<svg width="180" height="180" viewBox="0 0 180 180" fill="none" xmlns="http://www.w3.org/2000/svg">
<path d="M7.24996 138.503C7.43467 138.472 7.53316 138.476 7.71292 138.527L7.69708 138.672C6.49134 139.698 3.74077 140.337 2.13162 140.489C1.89007 140.479 1.74635 140.475 1.53857 140.351L1.55405 140.179C2.69294 138.974 5.62979 138.713 7.24996 138.503Z" fill="#4B68CB"/>
<path d="M38.1736 159.593C38.4613 159.545 38.7286 159.537 38.9844 159.664L39.0121 159.835C38.9508 159.934 38.8949 160.028 38.8084 160.11C37.755 161.106 34.0182 161.475 32.53 161.564C32.4057 161.581 32.2807 161.599 32.1556 161.611C31.875 161.637 31.6096 161.657 31.3897 161.484L31.4623 161.347C32.9596 160.28 36.2782 159.832 38.1736 159.593Z" fill="#4B68CB"/>
<path d="M44.0477 163.664C44.4158 163.636 44.5874 163.636 44.8934 163.848L44.9157 164.05C44.1725 164.909 38.4792 165.907 36.988 166.194C36.6305 166.253 36.3611 166.257 36.0041 166.193L35.9283 166.084C36.2341 165.837 36.6868 165.681 37.0521 165.516C39.2814 164.511 41.5846 163.867 44.0477 163.664Z" fill="#4B68CB"/>
<path d="M65.5426 176.89C65.583 176.885 65.6232 176.878 65.6638 176.875C65.9145 176.858 66.1095 176.885 66.3108 177.034L66.2645 177.221C64.5111 178.686 59.9663 179.546 57.6335 179.919C57.4188 179.971 57.2021 179.983 56.982 180L56.8133 179.859L56.8806 179.677C58.3279 178.408 63.4195 177.274 65.5426 176.89Z" fill="#4B68CB"/>
<path d="M11.9205 142.279C12.0634 142.254 12.1933 142.268 12.3374 142.275L12.451 142.441C11.5506 143.667 2.5672 145.399 0.708623 145.825C0.552904 145.872 0.444879 145.881 0.28343 145.889L0.204834 145.779C0.220036 145.757 0.233009 145.733 0.2504 145.712C1.50928 144.222 9.67943 142.661 11.9205 142.279Z" fill="#4B68CB"/>
<path d="M34.7481 155.341C34.9029 155.355 34.9494 155.39 35.078 155.467C35.0688 155.632 35.0983 155.649 34.9731 155.782C33.9573 156.86 25.5938 158.46 23.9025 158.568C23.7483 158.532 23.6748 158.494 23.5421 158.417L23.5139 158.231C24.6494 157.097 32.7754 155.547 34.7481 155.341Z" fill="#4B68CB"/>
<path d="M28.0107 151.859C28.1815 151.83 28.3588 151.796 28.5321 151.79C28.7398 151.782 28.9664 151.775 29.1266 151.903L29.046 152.066C27.1579 153.304 18.078 155.238 15.3694 155.834C15.1071 155.926 14.9563 156.02 14.6787 155.968L14.7342 155.805C17.0179 153.862 24.9469 152.188 28.0107 151.859Z" fill="#4B68CB"/>
<path d="M50.327 167.159C50.5542 167.122 50.6869 167.133 50.9092 167.189L50.9237 167.348C49.8039 168.734 39.4897 171.282 37.2055 171.719C36.9122 171.775 36.7158 171.883 36.4507 171.733L36.5045 171.555C38.7229 169.734 47.2745 167.594 50.327 167.159Z" fill="#4B68CB"/>
<path d="M60.2845 173.685C60.5358 173.649 60.7125 173.632 60.967 173.673L61.0255 173.811C59.4098 175.447 48.1064 178.308 45.2755 178.999C45.0449 179.101 44.8664 179.156 44.6141 179.188L44.5109 179.105C44.5429 178.985 44.5839 178.89 44.6673 178.793C45.3963 177.947 46.8291 177.372 47.866 176.977C49.4767 176.364 51.2335 175.968 52.8995 175.501C55.2628 174.84 57.832 173.941 60.2845 173.685Z" fill="#4B68CB"/>
<path d="M16.9802 145.004C17.0478 144.999 17.1151 144.989 17.1829 144.988C17.4113 144.982 17.5574 145.017 17.7245 145.167C17.7136 145.192 17.7066 145.22 17.6919 145.243C17.009 146.349 7.35536 148.938 5.51277 149.484C3.96631 149.943 2.44557 150.467 0.8922 150.908C0.612419 151.006 0.360813 151.115 0.0564588 151.102C-0.00987999 150.914 -0.0298973 150.982 0.0636416 150.821C0.428664 150.196 1.89862 149.6 2.56144 149.311C7.19393 147.29 12.0314 146.1 16.9802 145.004Z" fill="#4B68CB"/>
<path d="M21.2185 148.623C21.5906 148.571 22.104 148.504 22.4536 148.647L22.4782 148.789C21.1785 149.911 8.65155 153.579 6.26779 154.352L6.14236 154.401C5.78921 154.535 5.44445 154.72 5.07574 154.57L5.08707 154.39C7.33262 151.912 17.5802 149.009 21.2185 148.623Z" fill="#4B68CB"/>
<path d="M55.6973 170.46C55.8205 170.443 55.952 170.47 56.0755 170.483L56.1143 170.632C55.0001 171.882 43.7859 175.093 41.3895 175.714C39.3551 176.241 37.3331 176.698 35.2646 177.082L35.023 177.11L34.9357 177.01L35.0453 176.844C36.1669 176.163 37.5769 175.867 38.8137 175.428C44.3292 173.475 49.9025 171.517 55.6973 170.46Z" fill="#4B68CB"/>
<path d="M127.232 0.0391026C129.848 -0.0976262 132.293 0.127745 134.844 0.65983C144.406 2.65435 153.17 9.25904 158.362 17.0447C161.519 21.7776 163.515 27.1996 164.568 32.6854C164.776 33.7648 165.15 35.144 164.894 36.2279C166.972 37.8684 169.075 39.6356 171.026 41.4124C172.387 40.9179 177.003 38.9591 178.167 39.2043C178.771 39.3314 179.245 39.725 179.571 40.2116C179.881 40.6737 180.108 41.0783 179.947 41.6294C179.852 41.9551 179.684 42.2693 179.426 42.5043C177.844 43.947 174.761 45.5239 172.799 46.5863L163.024 51.7639C162.584 53.9783 162.262 56.224 161.857 58.4458C160.83 63.7843 159.844 69.1295 158.898 74.4813C157.93 79.7511 149.623 123 150.13 124.341C150.363 124.958 151.352 125.781 151.818 126.27C152.919 127.428 153.977 128.621 155.08 129.776C155.903 130.639 156.833 131.472 157.565 132.401C157.872 132.792 158.176 133.223 158.302 133.702C158.406 134.098 158.369 134.457 158.129 134.801C156.769 136.744 148.122 140.785 145.636 141.974C140.056 144.641 134.313 147.009 128.61 149.423L105.339 159.37C96.2587 163.395 87.1441 167.347 77.9951 171.227L73.761 172.996C72.5342 173.52 71.329 174.172 69.9936 174.402C69.1918 173.967 68.4647 173.345 67.7273 172.817C66.4278 171.888 65.1189 170.971 63.8005 170.066C61.2864 168.35 58.6643 166.773 56.0987 165.128C54.7449 164.26 53.4408 163.323 52.0945 162.444C49.0231 160.441 45.8383 158.58 42.7175 156.646L28.9338 147.966C23.882 144.787 18.8956 141.584 14.1916 137.942C12.7236 136.806 11.081 135.614 9.91523 134.189C9.63845 133.851 9.50613 133.481 9.36804 133.08C11.0221 130.583 15.6603 127.58 17.8673 125.223C18.1155 122.203 18.9591 119.132 19.5073 116.142L23.1804 95.991C24.9405 85.5775 26.8156 75.1828 28.8057 64.8069C30.111 57.8745 31.3418 50.8656 33.2753 44.0607C34.4988 39.7544 36.0954 35.5224 38.5702 31.7152C41.9276 26.551 46.4143 22.7613 52.1639 20.1383C53.7816 19.4004 55.4753 18.697 57.2285 18.3098C63.0887 17.0155 70.1516 17.6237 75.3188 20.6662C76.0692 20.2565 76.9166 19.9983 77.7141 19.6813L82.2191 17.8689C87.4655 15.7283 92.7478 13.671 98.066 11.6969C100.923 10.6369 103.905 9.74917 106.703 8.56114C107.712 8.13279 108.449 7.17096 109.332 6.54878C111.747 4.84723 114.625 3.25512 117.411 2.18492C120.48 1.00615 123.926 0.152621 127.232 0.0391026Z" fill="#4B68CB"/>
<path d="M119.768 63.4473C120.28 63.6768 120.726 64.1575 121.129 64.5258C116.471 66.9385 111.898 69.49 107.411 72.1801L101.641 75.7107C100.272 76.5457 98.9251 77.4151 97.4648 78.1014L96.3565 78.5352C97.7977 77.2286 99.5089 76.1428 101.111 75.021C104.798 72.4146 108.598 69.967 112.511 67.6782L117.162 64.9523C118.029 64.4488 118.931 63.997 119.768 63.4473Z" fill="white"/>
<path d="M147.83 24.3408C148.714 24.7481 150.029 25.9658 150.823 26.6015L156.555 31.2357C160.468 34.4436 164.533 37.5599 168.289 40.9344C168.681 41.287 169.034 41.6525 169.364 42.0588L168.374 42.464L167.304 42.8739C164.859 40.6327 147.87 27.3767 147.477 26.5786C147.186 25.9845 147.645 24.9507 147.83 24.3408Z" fill="white"/>
<path d="M127.457 1.64484C133.916 1.18231 140.882 3.90272 146.103 7.41096C155.856 13.9648 161.141 23.5746 163.154 34.6166C162.277 33.9776 161.437 33.2752 160.586 32.6046C160.277 32.3731 159.608 31.9147 159.459 31.5793C159.32 31.2632 158.951 28.8404 158.795 28.2126C158.204 25.828 157.3 23.6157 156.237 21.3865C155.866 20.6176 155.468 19.8611 155.044 19.1169C154.621 18.3729 154.172 17.6428 153.697 16.9268C153.223 16.2107 152.725 15.5102 152.202 14.8253C151.68 14.1404 151.134 13.4726 150.565 12.8218C150.4 12.6343 150.233 12.4488 150.063 12.2652C149.894 12.0816 149.722 11.9 149.548 11.7204C149.373 11.5408 149.197 11.3632 149.018 11.1877C148.839 11.0121 148.659 10.8387 148.475 10.6673C148.292 10.4959 148.107 10.3267 147.919 10.1596C147.732 9.99252 147.542 9.82761 147.35 9.66491C147.159 9.5022 146.965 9.34172 146.769 9.18348C146.573 9.02525 146.375 8.8693 146.176 8.71562C145.976 8.56195 145.774 8.41061 145.57 8.2616C145.367 8.11259 145.161 7.96595 144.954 7.82168C144.746 7.67741 144.537 7.53556 144.326 7.39613C144.115 7.25669 143.902 7.11971 143.688 6.98519C143.473 6.85066 143.257 6.71863 143.039 6.5891C142.821 6.45957 142.602 6.33257 142.38 6.2081C142.159 6.08364 141.937 5.96175 141.712 5.84242C141.488 5.7231 141.262 5.60638 141.035 5.49228C140.808 5.37816 140.579 5.26669 140.349 5.15787C140.119 5.04904 139.887 4.94288 139.655 4.83939C139.422 4.73591 139.188 4.63512 138.952 4.53703C138.717 4.43894 138.48 4.34359 138.242 4.25097C138.005 4.15836 137.766 4.0685 137.525 3.98139C137.285 3.89429 137.044 3.80997 136.802 3.72842C136.56 3.64689 136.316 3.56817 136.072 3.49225C135.828 3.41633 135.583 3.34325 135.337 3.27299C135.09 3.20272 134.843 3.13531 134.596 3.07075C134.348 3.00621 134.099 2.94453 133.85 2.88571C133.6 2.82689 133.35 2.77096 133.099 2.71792C132.848 2.66488 132.597 2.61474 132.345 2.56752C132.092 2.52029 131.84 2.47597 131.586 2.43457C131.333 2.39317 131.079 2.3547 130.825 2.31916C130.571 2.28362 130.316 2.25102 130.061 2.22136C129.806 2.1917 129.55 2.16499 129.295 2.14123C127.21 1.93642 125.124 2.22042 123.072 2.01897L122.939 2.00501C124.424 1.79129 125.958 1.7238 127.457 1.64484Z" fill="white"/>
<path d="M177.89 40.2129C178.142 40.3281 178.469 40.5076 178.639 40.7222C178.812 40.9401 178.782 41.0341 178.757 41.2876C178.64 41.4622 178.531 41.5899 178.355 41.7153C177.273 42.4884 175.055 43.1495 173.753 43.6699L163.625 47.7063C153.346 51.9108 143.018 56.0046 132.642 59.9875C129.664 61.132 126.715 62.3905 123.708 63.4614C123.2 63.6422 122.789 63.796 122.237 63.7143C121.792 63.3692 121.385 63.0079 120.978 62.6228C122.197 62.1864 123.38 61.6342 124.582 61.1567L132.308 58.1148C143.131 53.7554 153.979 49.451 164.85 45.2016C167.482 44.2028 170.102 43.1754 172.709 42.1193C174.38 41.454 176.128 40.6249 177.89 40.2129Z" fill="white"/>
<path d="M170.691 46.1551L170.767 46.1655L170.717 46.2552C169.779 46.6201 168.925 47.1917 168.045 47.6665C166.661 48.4135 165.251 49.1282 163.847 49.84C162.053 50.7493 160.201 51.5622 158.379 52.4191C156.049 53.5149 153.739 54.6369 151.388 55.6934C143.449 59.2777 135.451 62.7392 127.394 66.078C121.081 68.6699 114.671 71.0547 108.331 73.5856L108.268 73.5752L108.242 73.4908C109.652 72.4181 111.441 71.592 112.975 70.6552C114.51 69.7172 116.075 68.8264 117.616 67.8964C119.014 67.0529 120.415 66.1281 121.896 65.4248C124.067 64.3939 126.451 63.6048 128.701 62.732L141.875 57.5943L170.691 46.1551Z" fill="white"/>
<path d="M146.015 24.6701C146.09 24.6703 146.196 24.7051 146.271 24.7216C146.383 25.5227 145.955 26.5671 145.862 27.3911C145.522 30.4147 145.231 33.4461 144.842 36.4676C144.494 39.1664 144.036 41.8554 143.659 44.551C143.289 47.2018 143.015 49.8751 142.538 52.5101C141.82 52.8509 141.092 53.1708 140.353 53.4698C140.498 49.8236 141.308 46.1462 141.809 42.5328C142.507 37.4923 142.971 32.3237 144.013 27.3392C136.557 30.6349 128.796 33.1931 121.27 36.317C117.264 37.9926 113.048 39.3193 108.951 40.7804C107.383 41.3394 105.844 41.978 104.297 42.5856C102.943 43.1169 101.373 43.4873 100.214 44.3552L98.1859 42.6891C100.031 42.1371 101.842 41.381 103.64 40.7L115.57 36.0554L146.015 24.6701Z" fill="white"/>
<path d="M123.751 3.44179C124.462 3.29093 125.425 3.34999 126.157 3.37867C130.86 3.56271 136.639 4.94742 140.68 7.26195C141.075 7.4894 141.464 7.72404 141.849 7.96587C142.235 8.2077 142.615 8.45654 142.99 8.71238C143.365 8.96823 143.734 9.23089 144.098 9.50035C144.463 9.76982 144.821 10.0459 145.174 10.3286C145.527 10.6113 145.874 10.9004 146.215 11.1959C146.557 11.4914 146.892 11.7931 147.22 12.1009C147.549 12.4087 147.872 12.7225 148.188 13.0423C148.504 13.3621 148.813 13.6875 149.116 14.0187C149.419 14.3498 149.715 14.6863 150.004 15.0285C150.293 15.3705 150.575 15.7177 150.85 16.0702C151.124 16.4227 151.392 16.7801 151.652 17.1424C151.913 17.5047 152.165 17.8717 152.411 18.2433C152.656 18.615 152.894 18.9911 153.124 19.3715C153.354 19.7519 153.576 20.1364 153.79 20.5251C154.004 20.9136 154.211 21.306 154.409 21.7022C154.607 22.0985 154.797 22.4982 154.979 22.9014C156.029 25.213 156.762 27.6227 157.408 30.0584C155.735 28.8682 154.077 27.499 152.506 26.1856C151.445 25.2981 150.405 24.3437 149.235 23.5854L149.101 23.4995L149.137 23.347C149.81 23.1584 150.997 22.8883 151.444 22.3316C151.611 22.1248 151.645 21.9404 151.59 21.6862C151.433 20.9615 150.154 19.9738 149.596 19.4742C146.043 16.2898 142.178 13.3793 137.906 11.1022C129.929 6.85016 120.166 5.08225 111.26 7.47767C112.009 6.91578 112.882 6.52044 113.727 6.10764C116.954 4.53063 120.106 3.60158 123.751 3.44179Z" fill="white"/>
<path d="M95.6116 43.4341C97.4541 43.8824 108.4 53.5733 110.484 55.3549C111.909 56.5722 113.384 57.7321 114.813 58.9437C116.189 60.1101 117.517 61.3202 118.911 62.4696C117.553 63.4046 115.958 64.1278 114.516 64.9528C112.248 66.251 110.047 67.6491 107.824 69.0174C106.366 70.0279 104.808 70.9249 103.316 71.8919C100.587 73.661 97.8749 75.5369 95.2986 77.502C95.3296 76.661 95.5314 75.7936 95.6665 74.9613C95.9486 73.2248 96.2557 71.4844 96.4739 69.7398C97.3642 62.6243 98.0047 55.1003 96.7553 47.9965C96.4841 46.4545 95.9912 44.954 95.6116 43.4341Z" fill="white"/>
<path d="M18.1279 127.2C19.0151 127.881 19.7451 128.753 20.6529 129.416C22.2574 130.587 24.0393 131.593 25.7089 132.685L38.2406 140.871C45.744 145.803 53.1844 150.819 60.5618 155.92C64.1963 158.381 67.9321 160.709 71.4192 163.363C70.7349 166.071 69.933 168.794 69.3496 171.52C68.3905 171.061 67.4928 170.493 66.5862 169.948C64.8484 168.841 63.1756 167.656 61.4568 166.525C58.1695 164.363 54.8335 162.278 51.5219 160.151C50.3089 159.371 49.1386 158.531 47.919 157.761L32.1585 147.986C26.3731 144.394 20.5671 140.91 15.2505 136.692C13.946 135.657 12.4379 134.532 11.4715 133.198C13.6033 131.198 15.7405 128.924 18.1279 127.2Z" fill="white"/>
<path d="M149.637 126.381C150.421 126.946 151.148 127.856 151.791 128.567C153.38 130.324 154.871 132.161 156.494 133.89C154.101 136.24 147.358 139.227 144.023 140.763C136.384 144.279 128.602 147.43 120.886 150.777L76.2706 170.149C74.6458 170.834 73.0267 171.541 71.3714 172.157C71.4952 170.826 71.837 169.497 72.0921 168.182C72.3701 166.75 72.5682 165.234 73.0235 163.844C74.4639 162.501 81.8461 159.837 84.2082 158.809L131.191 138.513L142.601 133.666C144.716 132.776 147.125 131.952 149.067 130.76C149.165 129.278 149.335 127.838 149.637 126.381Z" fill="white"/>
<path d="M119.471 8.17241C119.533 8.16965 119.594 8.16522 119.656 8.16413C130.961 7.9638 141.426 14.1105 149.157 21.4978C147.976 22.0836 146.627 22.4794 145.386 22.9468L137.309 25.9907L116.056 34.0989C112.088 35.6069 108.087 37.0296 104.161 38.6335C101.252 39.8404 98.2427 40.9741 95.2441 41.9651C94.3216 40.1819 93.7209 38.2588 92.7716 36.4742C89.3822 30.1025 83.9257 25.2412 77.5754 21.5551C79.0667 20.8785 80.6323 20.3227 82.158 19.7168C85.8847 18.222 89.6388 16.7922 93.4203 15.4275C99.653 13.124 106.82 10.0297 113.352 8.80451C115.395 8.42116 117.392 8.25309 119.471 8.17241Z" fill="white"/>
<path d="M137.036 20.5308C137.214 20.5438 137.333 20.5862 137.499 20.6439C137.542 20.7457 137.603 20.8007 137.549 20.9095C137.338 21.3296 136.565 21.6264 136.138 21.8212C133.728 22.9197 131.166 23.7761 128.686 24.7227L115.178 29.7891C111.299 31.2046 107.462 32.6998 103.56 34.0635C102.184 34.5441 100.834 35.0738 99.4302 35.4786C99.2049 35.499 99.192 35.5024 98.9984 35.3937L98.9632 35.2096C100.789 33.0293 132.611 21.6338 137.036 20.5308Z" fill="#4B68CB"/>
<path d="M35.38 69.8386C39.3366 72.5895 43.5724 75.0424 47.6692 77.6016C52.4211 80.57 57.0963 83.6466 61.8795 86.5722C65.0346 88.5021 68.0991 90.5078 71.1999 92.5127C72.6763 93.4675 74.2397 94.3136 75.6427 95.3665C75.1072 97.0344 74.7511 98.8023 74.3336 100.503L71.9461 110.42L65.2352 138.646L63.1235 148.066C62.7739 149.65 62.4852 151.25 62.0725 152.819L61.6871 154.613L49.1084 146.171C46.0477 144.101 43.027 141.984 39.9405 139.947C34.451 136.323 28.838 132.848 23.4272 129.119C23.6015 127.3 24.0779 125.487 24.4259 123.69C25.2932 119.209 26.3033 114.755 27.2104 110.281L35.38 69.8386Z" fill="white"/>
<path d="M37.9374 75.5248C38.4444 75.5666 38.911 75.8086 39.34 76.0526C41.7745 77.4369 44.1137 79.0157 46.4817 80.5031L59.5423 88.655C62.8859 90.7194 66.2749 92.6579 69.5395 94.8407C70.3103 95.3562 71.1596 95.8047 71.8697 96.3945C72.1266 97.1684 61.0967 142.07 60.0304 147.23C59.9528 147.457 59.8752 147.774 59.6967 147.949C59.53 148.113 59.3372 148.221 59.0888 148.201C58.5158 148.156 57.8506 147.621 57.3786 147.314C53.9067 145.053 50.5335 142.631 47.1121 140.299L35.8068 132.728L29.8572 128.738C28.9342 128.117 27.8975 127.536 27.0876 126.784C27.0886 124.6 27.832 122.364 28.2654 120.222L31.0075 106.865L34.5887 89.7162C35.4727 85.3338 36.2262 80.8515 37.3656 76.5227C37.475 76.1075 37.6525 75.854 37.9374 75.5248Z" fill="#4B68CB"/>
<path d="M38.6636 77.3463C40.6446 78.4299 42.5444 79.7355 44.4566 80.9337L55.0734 87.5961C60.191 90.8215 65.4641 93.7784 70.6888 96.8357C69.9564 99.3881 69.3786 102.002 68.7259 104.576C67.474 109.345 66.2791 114.127 65.1412 118.922L59.023 144.237C58.8875 144.896 58.7254 145.534 58.5258 146.179L38.1202 132.243C36.5732 131.184 35.0117 130.146 33.4356 129.127C31.9061 128.128 30.1488 127.092 28.8455 125.83C29.708 122.151 30.3752 118.428 31.1277 114.726C32.3811 108.815 33.5916 102.896 34.7592 96.969C35.6574 92.5418 36.6527 88.1377 37.525 83.7036C37.9417 81.5854 38.3818 79.4852 38.6636 77.3463Z" fill="white"/>
<path d="M54.3012 90.247C55.0259 90.205 55.6616 90.4307 56.2182 90.8713C57.1585 91.6155 57.7308 92.8248 57.8209 93.9728C57.9025 95.0159 57.6536 96.236 56.8879 97.0275C56.405 97.5267 55.829 97.7662 55.1234 97.7978C55.3263 97.022 56.007 96.4636 56.2239 95.3838C56.4259 94.3786 56.288 93.3354 55.6656 92.4816C54.9011 91.4329 53.8424 91.1541 52.5932 90.9585C53.1627 90.5223 53.5799 90.3694 54.3012 90.247Z" fill="#4B68CB"/>
<path d="M50.992 91.2969C51.7455 91.2617 52.4674 91.3892 53.1061 91.7844C54.0274 92.3543 54.5513 93.3406 54.7799 94.3381C55.0527 95.5281 54.9301 96.8022 54.2096 97.8343C53.4987 98.8524 52.5794 99.1874 51.3806 99.4308C50.4703 99.4085 49.622 99.1471 48.9097 98.6C47.993 97.8954 47.4603 96.7785 47.3579 95.6738C47.3519 95.6042 47.3477 95.5345 47.3451 95.4648C47.3427 95.395 47.3421 95.3252 47.3431 95.2554C47.3442 95.1856 47.3471 95.1159 47.3517 95.0462C47.3563 94.9765 47.3627 94.9071 47.3708 94.8377C47.379 94.7682 47.389 94.699 47.4006 94.6302C47.4123 94.5612 47.4257 94.4926 47.4408 94.4244C47.456 94.356 47.4728 94.288 47.4914 94.2204C47.5099 94.153 47.5302 94.086 47.5523 94.0194C47.5743 93.9528 47.598 93.8867 47.6233 93.8211C47.6486 93.7555 47.6756 93.6907 47.7043 93.6265C47.7329 93.5622 47.7632 93.4985 47.7952 93.4356C47.8271 93.3728 47.8605 93.3107 47.8955 93.2493C47.9305 93.188 47.9671 93.1274 48.0053 93.0677C48.0434 93.008 48.083 92.9493 48.1241 92.8914C48.1651 92.8336 48.2076 92.7767 48.2517 92.7207C48.2956 92.6649 48.3409 92.61 48.3878 92.5562C49.0858 91.7677 49.935 91.4008 50.992 91.2969Z" fill="#4B68CB"/>
<path d="M51.157 92.5829C51.4127 92.6219 51.6558 92.6656 51.8888 92.7779C52.5781 93.1107 53.0636 93.7058 53.2793 94.4061C53.5334 95.2316 53.4434 96.1759 52.9754 96.9193C52.5512 97.5937 52.0699 97.8347 51.2899 98.0157C50.8038 97.9351 50.3782 97.8254 49.9671 97.554C49.3927 97.1745 49.0407 96.6049 48.9284 95.9519C48.7418 94.8674 49.1963 94.0054 49.8212 93.1455C50.2431 92.9175 50.7089 92.7584 51.157 92.5829Z" fill="white"/>
<path d="M57.9389 21.2251C59.3946 21.2145 60.9812 21.408 62.4129 21.6551C70.8445 23.1107 79.4869 29.0098 84.2991 35.6906C88.7478 41.8668 90.7175 49.598 90.9306 57.0069C91.1686 65.278 89.6778 72.7916 88.1027 80.8643L83.9085 101.485L72.1454 161.417C70.7046 160.745 69.4614 159.845 68.149 158.983C66.3825 157.823 64.5754 156.681 62.9402 155.355C63.4251 153.505 63.7852 151.639 64.2146 149.779L66.6791 139.194C68.6186 131.154 70.4987 123.103 72.3193 115.039C73.8528 108.249 75.7529 101.53 77.1499 94.7113C76.4556 94.2995 75.7873 93.8597 75.1191 93.4107C73.8337 92.5028 72.4787 91.6773 71.167 90.8041C65.414 86.9732 59.5204 83.3707 53.6589 79.6948C49.6902 77.1663 45.6999 74.669 41.6879 72.2029C39.9946 71.1459 38.3486 69.9853 36.6142 68.9941C36.1927 68.7533 35.5047 68.3124 35.007 68.2855C34.8582 68.2774 34.7412 68.2743 34.6282 68.3727C34.1767 68.7647 33.9644 70.0201 33.8259 70.6032C32.8987 74.5034 32.1664 78.4511 31.3765 82.3778L27.119 103.216L23.6186 119.926C23.0563 122.735 22.307 125.519 22.0592 128.376C21.0596 127.782 20.2943 127.044 19.4725 126.251C19.9346 122.41 20.7557 118.551 21.447 114.738L25.6406 91.9703C27.3291 82.2247 29.1259 72.4971 31.0311 62.7878C32.4162 55.7068 33.6602 48.6284 35.9832 41.7533C37.6001 36.9682 39.7865 32.4118 43.2379 28.5575C47.3056 24.0149 51.6988 21.6912 57.9389 21.2251Z" fill="white"/>
<path d="M60.6713 28.3114C63.0465 27.9961 67.0597 29.0877 69.2102 29.9764C76.2285 32.8771 81.148 38.0824 83.9405 44.7885C88.9073 56.7165 84.8102 69.3573 81.7893 81.2023C81.3159 83.058 80.8016 84.9029 80.3424 86.762C80.0341 88.0103 79.7675 89.8604 79.1899 91.0039C79.0393 91.3024 78.8015 91.3909 78.4929 91.5027C77.0988 91.3154 69.2325 86.0235 67.6285 84.9941C64.5687 82.9986 61.4284 81.1272 58.3286 79.1907L43.7396 69.9526C41.6693 68.6333 39.5553 67.3858 37.4975 66.0457C36.7352 65.5494 35.857 65.0636 35.1794 64.4677C34.8684 64.1944 34.7377 63.708 34.5978 63.3363C35.024 61.1337 35.6825 58.9572 36.2742 56.7897C38.2877 49.4141 40.6963 42.1738 45.5278 35.969C48.1103 32.6528 51.5067 30.1828 55.7345 29.1415C57.345 28.7448 59.0286 28.5471 60.6713 28.3114Z" fill="#4B68CB"/>
<path d="M61.4776 29.8354C62.1847 29.7387 63.2098 29.9073 63.9297 30.0055C69.752 30.8002 75.3202 34.1319 78.8275 38.5979C88.7873 51.2803 83.9323 66.85 80.3785 80.7841C79.6175 83.768 78.7408 86.8204 78.266 89.8553C76.1823 88.7854 74.2739 87.3937 72.3377 86.1036C70.5795 84.9321 68.7828 83.8166 67.0356 82.6292C64.5279 80.9545 61.903 79.4255 59.3334 77.8376L47.3056 70.3558L40.3472 66.0112C38.9371 65.1318 37.5086 64.115 35.9763 63.4397C37.8304 54.9757 41.5045 42.4287 47.4917 35.7985C51.6396 31.2052 55.4133 30.3017 61.4776 29.8354Z" fill="white"/>
<path d="M59.9422 33.046C62.5432 32.7823 65.4346 33.3271 67.8219 34.307C73.0753 36.4635 77.6444 41.1304 79.7298 46.1972C83.704 55.8531 80.8702 67.9484 78.1334 77.617C77.4804 79.9246 76.9857 82.4959 75.9817 84.678C74.3493 84.2493 68.8763 80.5059 67.0323 79.3454L48.7591 67.6572L43.2879 64.1662C42.2584 63.5121 41.1801 62.8831 40.2003 62.1633C39.9407 61.9726 39.6488 61.8082 39.6136 61.4749C39.5059 60.4621 40.2067 58.887 40.4829 57.8954C42.1231 52.0066 45.2329 42.7328 49.3875 38.093C49.5529 37.9115 49.7229 37.734 49.8975 37.5605C50.072 37.3869 50.2509 37.2176 50.4341 37.0524C50.6174 36.8872 50.8049 36.7263 50.9964 36.5698C51.1878 36.4133 51.3832 36.2613 51.5826 36.1137C51.7818 35.9663 51.9848 35.8236 52.1915 35.6856C52.3981 35.5475 52.6083 35.4144 52.8218 35.2861C53.0353 35.1579 53.2519 35.0346 53.4717 34.9163C53.6915 34.7981 53.9142 34.6851 54.1398 34.5771C54.3655 34.4693 54.5938 34.3667 54.8247 34.2694C55.0555 34.1721 55.2887 34.0803 55.5243 33.9937C55.76 33.9074 55.9978 33.8264 56.2375 33.7509C56.4773 33.6754 56.7188 33.6056 56.9621 33.5414C57.2055 33.4773 57.4504 33.4187 57.6968 33.3659C57.9431 33.3131 58.1907 33.266 58.4395 33.2246C58.6883 33.1832 58.9379 33.1477 59.1885 33.1179C59.4392 33.0881 59.6904 33.0642 59.9422 33.046Z" fill="#4B68CB"/>
<path d="M60.9812 34.3706C62.2193 34.2316 63.8725 34.5539 65.0805 34.8414C69.6242 35.9231 73.6912 39.2439 76.0386 43.0291C77.6479 45.6246 78.9355 48.6024 79.4962 51.5784C81.238 60.8216 77.4529 73.6235 74.9924 82.6745C72.0306 80.9813 69.2535 78.87 66.4069 76.9984L48.8052 65.7471C46.3031 64.1498 43.6607 62.6926 41.2664 60.9566C42.1543 58.1844 42.8845 55.3645 43.8066 52.6033C45.0384 48.914 48.0774 41.8869 50.6525 39.0008C53.286 36.0492 56.9776 34.6738 60.9812 34.3706Z" fill="white"/>
<path d="M52.6323 42.0897C54.1254 42.6579 55.7767 43.9439 57.1196 44.8146L64.7991 49.7957C67.6634 51.6425 70.5895 53.4012 73.4394 55.2673C74.5985 56.0263 75.9746 56.7844 76.942 57.7541C76.596 59.5082 75.1077 62.5523 74.3866 64.3198C72.8919 67.9847 71.463 71.6839 70.0463 75.3768C69.909 75.5179 69.7932 75.5756 69.6095 75.6537C69.2832 75.659 69.0612 75.621 68.7792 75.4553C67.8164 74.8891 66.8983 74.2132 65.9593 73.6073C63.1454 71.7911 60.3639 69.9208 57.5337 68.1287C54.8908 66.4896 52.2607 64.8324 49.6432 63.157C48.4394 62.3815 47.0888 61.631 46.0125 60.7019C46.3904 59.3427 46.9602 58.0293 47.4579 56.7065C48.0267 55.1565 48.583 53.6024 49.1267 52.0443C49.7996 50.1442 51.7484 43.292 52.6323 42.0897Z" fill="#4B68CB"/>
<path d="M74.718 59.4335L74.8306 59.4609C74.8891 59.7299 74.7502 59.9892 74.6535 60.2452C73.8548 62.3568 72.8981 64.4337 72.073 66.5408C71.255 68.6296 70.5824 70.8176 69.5396 72.8165C69.1422 71.9091 68.8784 70.9478 68.5857 70.0061C68.1282 68.7406 67.7856 67.4295 67.354 66.154C66.7332 64.3187 66.045 62.5224 65.5004 60.6621C68.5302 60.113 71.6595 59.8474 74.718 59.4335Z" fill="white"/>
<path d="M53.6296 44.5833C55.3868 45.3623 56.8369 46.5961 58.4568 47.5901C60.9156 49.0989 63.3108 50.6887 65.7573 52.2128C68.8297 54.1267 71.9464 55.9817 74.9315 58.0175C74.2906 58.1832 73.6266 58.2511 72.97 58.3381C71.4054 58.4556 69.8251 58.7424 68.2648 58.9257L58.9083 59.9893C58.3028 58.4878 57.8744 56.8776 57.3489 55.3436C56.1304 51.7503 54.8906 48.1635 53.6296 44.5833Z" fill="white"/>
<path d="M52.4699 46.0265C52.9471 46.5289 53.4168 48.3916 53.6562 49.0889L56.1273 56.096C56.624 57.5351 57.04 59.0846 57.6704 60.4742C57.8252 60.8156 57.9881 61.0619 58.2755 61.3126C59.0779 61.5831 63.1794 60.9577 64.2079 60.7899C64.9117 62.4956 65.3427 64.3982 65.8772 66.1637C66.6625 68.7583 67.5472 71.2572 68.5964 73.7649C67.7282 73.2935 66.927 72.7221 66.1205 72.1629C60.1224 68.0255 53.7947 64.2959 47.6857 60.3058C48.0863 58.0078 49.2529 55.7878 50.0577 53.5929C50.9627 51.1256 51.7202 48.5428 52.4699 46.0265Z" fill="white"/>
<path d="M61.54 19.2436C65.4513 19.2888 69.162 19.8014 72.7923 21.2631C73.1657 21.4101 73.5365 21.5631 73.9046 21.722C74.2726 21.881 74.6376 22.0459 74.9998 22.2165C75.3619 22.3871 75.7209 22.5635 76.0768 22.7458C76.4327 22.928 76.7853 23.1159 77.1346 23.3095C77.4837 23.5029 77.8293 23.702 78.1714 23.9067C78.5137 24.1114 78.8521 24.3215 79.1866 24.537C79.5213 24.7525 79.8521 24.9733 80.1789 25.1994C80.5058 25.4256 80.8284 25.6568 81.1469 25.8933C81.4656 26.1299 81.7799 26.3714 82.0899 26.618C82.3999 26.8647 82.7055 27.1162 83.0066 27.3726C83.3076 27.629 83.604 27.8901 83.8958 28.1561C84.1876 28.4221 84.4746 28.6926 84.7568 28.9678C85.0389 29.243 85.3161 29.5226 85.5883 29.8066C85.8605 30.0907 86.1276 30.3791 86.3896 30.6718C86.6516 30.9644 86.9082 31.2611 87.1596 31.562C87.411 31.8629 87.657 32.1678 87.8976 32.4766C97.6684 45.118 96.2908 59.7747 94.0096 74.4664C93.8426 75.5418 92.7919 79.4186 93.2863 80.2481C93.3717 80.3913 93.4479 80.5144 93.6186 80.5648C94.4863 80.8201 97.2957 79.4411 98.3433 79.087C99.6424 78.6477 100.955 78.2602 102.242 77.7869C106.006 76.4025 109.689 74.824 113.436 73.403C124.558 69.2316 135.509 64.6849 146.287 59.7628C151.396 57.4419 156.479 55.1067 161.47 52.5594C159.661 60.4767 158.368 68.5113 156.788 76.4722C154.443 88.0903 152.276 99.7384 150.287 111.416C149.191 117.536 148.177 123.669 147.243 129.813C144.894 131.023 142.355 131.911 139.915 132.937L126.223 138.835L104.185 148.292C98.5724 150.794 92.9323 153.24 87.2651 155.629C84.5071 156.804 81.795 158.024 78.9972 159.117C79.3657 157.701 79.5496 156.233 79.8025 154.796C80.3634 151.606 80.858 148.41 81.4723 145.228C83.9539 131.973 86.5444 118.738 89.2437 105.522C89.7605 103.179 90.241 100.829 90.6851 98.4727C90.9179 97.2406 91.1475 95.0282 91.6103 93.9565C91.8451 93.4131 94.1481 92.6833 94.7985 92.4256C97.5287 91.2481 100.3 90.1492 103.04 88.9926L144.079 71.7349C146.189 70.8288 154.324 67.6801 155.599 66.5644C155.848 66.346 155.969 66.163 155.991 65.832C155.882 65.5673 155.817 65.4801 155.564 65.3262C155.234 65.2679 155.006 65.2789 154.69 65.3956C153.394 65.8732 152.129 66.5905 150.85 67.134C146.473 68.9943 142.127 70.9285 137.72 72.7242C132.64 74.7941 127.618 77.0031 122.563 79.1263L104.674 86.5855C101.848 87.7888 99.0395 89.0594 96.1971 90.2216C94.3037 90.9959 92.2092 91.6404 90.4242 92.6046C89.7007 93.8549 88.6665 100.332 88.2799 102.146C85.8432 113.727 83.5296 125.329 81.3391 136.954L77.128 159.871C76.0155 160.401 74.8875 160.919 73.7092 161.302C77.3243 141.584 81.14 121.9 85.1561 102.252L89.7382 80.5511C91.0297 74.1299 92.3085 67.6678 92.4305 61.1098C92.6486 49.3854 90.6624 38.6831 81.8038 29.9779C77.2526 25.5057 70.4408 21.5028 63.9967 20.2346C61.9533 19.8324 59.9261 19.7634 57.8494 19.7316C59.0868 19.3885 60.2623 19.3064 61.54 19.2436Z" fill="white"/>
<path d="M154.811 69.5094C155.137 69.5548 155.289 69.6108 155.505 69.8527C155.646 70.2496 155.624 70.5957 155.563 71.0079C155.35 72.4647 154.832 73.9181 154.5 75.3576C153.977 77.6251 153.475 79.9138 153.028 82.1973C150.955 93.047 148.982 103.913 147.109 114.796C146.338 119.357 145.456 123.875 144.81 128.458C142.806 129.721 139.819 130.751 137.577 131.696L125.608 136.795C117.174 140.332 108.76 143.911 100.364 147.531C95.6835 149.534 90.954 151.459 86.3386 153.594C85.0936 154.17 83.9648 154.908 82.7395 155.487L82.629 155.539L82.4492 155.555C82.1871 155.451 82.1033 155.362 81.9338 155.157C81.7519 154.082 82.9239 149.662 83.1856 148.348L85.439 136.962C87.4021 127.231 89.3003 117.489 91.1337 107.735L92.5321 100.085C92.8337 98.414 93.0918 96.6813 93.5702 95.0477C94.9578 94.1837 96.6752 93.6823 98.2139 93.096C99.7639 92.4925 101.31 91.8794 102.851 91.2568L124.123 82.6439L137.612 77.0158C139.681 76.1442 141.777 75.3228 143.833 74.4239C146.039 73.4595 148.256 72.4942 150.446 71.4983C151.897 70.8383 153.318 70.0805 154.811 69.5094Z" fill="#4B68CB"/>
<path d="M153.116 73.3853C153.141 73.4328 153.182 73.4754 153.191 73.5276C153.253 73.8794 151.693 79.9596 151.489 81.0202C150.67 85.1309 149.888 89.248 149.144 93.3716L146.626 107.921L144.474 119.695C144.071 122.011 143.597 124.357 143.411 126.697C142.357 125.784 141.464 124.708 140.503 123.708C138.811 121.958 137.108 120.218 135.392 118.489C133.815 116.934 132.335 115.295 130.787 113.714C129.784 112.691 127.293 110.65 126.741 109.519C127.728 107.554 129.729 105.166 131.061 103.331L141.46 89.2584C144.066 85.7586 146.637 82.235 149.172 78.6878C150.457 76.9235 151.696 75.0515 153.116 73.3853Z" fill="white"/>
<path d="M94.6632 98.0219C97.2889 99.7777 99.6557 101.981 102.112 103.945C104.404 105.767 106.685 107.6 108.957 109.445C110.282 110.525 111.652 111.588 112.891 112.757C112.281 113.88 111.417 114.925 110.65 115.954C109.72 117.214 108.8 118.48 107.89 119.753C104.556 124.466 101.167 129.144 97.7245 133.787C95.9261 136.218 94.0024 138.565 92.2751 141.044C90.4072 143.495 88.5213 145.934 86.6174 148.359C85.8752 149.312 85.2061 150.316 84.4247 151.241C84.7347 148.839 85.3386 146.46 85.7909 144.078L89.3147 126.132L92.7924 107.871C93.4065 104.596 93.8934 101.265 94.6632 98.0219Z" fill="white"/>
<path d="M125.589 110.839C126.301 111.405 126.946 112.14 127.593 112.776C129.479 114.629 131.283 116.544 133.121 118.438L138.38 123.866C139.698 125.215 141.084 126.533 142.266 127.996C140.952 128.806 139.418 129.309 138.002 129.934C134.385 131.51 130.757 133.06 127.117 134.585C116.322 139.118 105.552 143.705 94.8087 148.347C91.8768 149.679 88.8607 150.849 85.9224 152.183C86.9535 150.614 88.2355 149.158 89.3547 147.642L98.5646 135.395C101.673 131.343 104.579 127.152 107.548 123.008L111.407 117.582C112.337 116.299 113.318 115.048 114.204 113.737C114.924 114.311 119.129 117.835 119.688 117.77C120.119 117.72 120.495 117.449 120.789 117.161C121.366 116.598 121.827 115.868 122.313 115.23C123.429 113.782 124.52 112.318 125.589 110.839Z" fill="white"/>
<path d="M150.746 73.2884C150.794 73.3062 150.825 73.3499 150.862 73.3837C150.05 74.619 149.063 75.7708 148.167 76.9537C147.289 78.1134 146.477 79.3368 145.639 80.5243C143.87 83.0564 142.083 85.5768 140.278 88.0855L134.987 95.1427L127.223 105.838C124.694 109.226 122.196 112.634 119.727 116.061C118.218 114.938 116.786 113.694 115.335 112.503C113.777 111.224 112.162 110.014 110.597 108.745C109.258 107.66 107.981 106.505 106.623 105.441C103.681 103.147 100.782 100.805 97.9263 98.4139C97.0234 97.6705 95.8311 96.9702 95.1084 96.0762C96.5299 95.151 98.6641 94.5082 100.263 93.8586C104.933 91.9864 109.617 90.1459 114.314 88.3371C121.149 85.6256 127.961 82.8629 134.75 80.049C140.123 77.883 145.455 75.6295 150.746 73.2884Z" fill="white"/>
</svg>
