<svg width="200" height="200" viewBox="0 0 200 200" fill="none" xmlns="http://www.w3.org/2000/svg">
<path d="M132.95 0.0421277C140.263 -0.0708832 147.57 0.0733947 154.882 0.126608C159.351 0.159158 163.869 -0.0164529 168.332 0.208135C169.342 0.25898 169.617 0.412949 170.296 1.10081C170.665 2.78618 170.516 4.8101 170.576 6.54318L170.927 20.0164L172.164 57.1169C175.958 59.0559 179.616 61.2555 183.363 63.2719C186.412 64.9133 189.83 66.3557 192.605 68.369C193.505 69.0218 194.748 70.161 195.117 71.1644C195.222 71.4495 195.178 71.5562 195.038 71.818C194.782 71.9712 194.567 72.1064 194.351 72.3059C194.341 74.611 194.507 76.938 194.607 79.2416L195.141 91.1325L196.479 120.368L199.397 191.929C199.664 192.232 199.927 192.481 199.991 192.88C200.131 193.757 198.671 195.275 198.074 195.907C197.731 196.269 197.357 196.603 196.953 196.909C196.697 197.107 196.43 197.291 196.151 197.46C195.872 197.63 195.583 197.784 195.284 197.923C194.985 198.062 194.678 198.184 194.364 198.29C194.049 198.397 193.729 198.486 193.402 198.558C190.534 199.19 188.646 198.058 186.148 197.049C184.872 196.539 183.568 196.1 182.234 195.732C175.061 193.751 167.616 193.329 160.182 192.864C152.204 192.435 144.222 192.128 136.233 191.943C128.245 191.757 120.255 191.692 112.264 191.75C104.273 191.806 96.2853 191.985 88.301 192.284C80.3166 192.584 72.34 193.005 64.3711 193.547C63.1884 193.723 61.9097 193.721 60.7076 193.814L52.6915 194.473C45.652 195.072 38.6356 195.844 31.6423 196.791C27.7275 197.318 23.8326 197.888 19.9653 198.659C18.1603 199.019 16.3984 199.626 14.5822 199.913C13.9838 200.007 13.3956 200.036 12.7934 199.944C10.7947 199.638 8.19902 198.388 7.06147 196.846C6.69885 196.354 6.47 195.776 6.37182 195.192C5.97146 192.808 6.04217 189.777 5.91962 187.328C5.62134 182.114 5.35761 176.898 5.12845 171.681L1.45303 95.7522C1.15371 89.9489 0.935017 84.1323 0.578678 78.3332C0.501066 77.0699 -0.178813 75.0745 0.0449948 73.9533C1.03907 72.5586 3.51481 71.4597 5.03982 70.5665C10.9024 67.1327 16.9373 63.9855 23.0058 60.865C26.2945 59.1739 29.7312 57.5742 32.8986 55.7056C32.8286 49.1448 32.3274 42.5552 32.0938 35.9948C31.9492 30.3745 31.7433 24.756 31.4763 19.1395C31.3587 15.9369 31.3048 12.7325 31.0969 9.53319C30.8504 9.43211 30.607 9.32127 30.3875 9.17643C30.0838 8.97607 29.9219 8.74957 29.8593 8.41265C30.0253 7.82984 30.8358 7.4296 31.2243 6.93768C31.541 6.5367 31.7269 6.09469 32.0854 5.71123C32.2686 5.65215 32.3365 5.5862 32.5297 5.65756C32.9927 5.82848 33.2091 6.30512 33.4239 6.68415C66.3275 1.29622 99.6019 0.411124 132.95 0.0421277Z" fill="#6F86D5"/>
<path d="M122.346 122.694C122.591 122.683 122.837 122.622 123.049 122.742C122.353 123.687 119.973 125.217 118.943 126.031C117.946 126.819 117.008 127.657 116.075 128.505C115.086 127.767 114.14 126.974 113.181 126.204L109.607 123.407C113.839 123.069 118.103 122.883 122.346 122.694Z" fill="#FEFEFE"/>
<path d="M90.905 116.304C90.8221 116.568 90.0166 117.086 89.7613 117.322C88.6469 118.35 87.6909 119.509 86.5712 120.537L76.4167 121.134C75.4814 120.538 74.6079 119.815 73.734 119.145C72.9445 118.552 72.1393 118 71.3015 117.465C73.4044 117.449 75.5464 117.232 77.65 117.117C82.0718 116.893 86.4902 116.622 90.905 116.304Z" fill="#FEFEFE"/>
<path d="M186.106 73.1704C186.635 73.1287 187.17 73.1141 187.7 73.0872C183.238 76.6748 178.546 80.0284 173.991 83.5163C173.906 83.5925 173.793 83.6384 173.69 83.6927C173.501 83.473 173.491 83.2297 173.471 82.9522C173.39 81.8603 173.416 80.7439 173.365 79.6475C173.275 77.7256 173.118 75.8065 173.07 73.8831C177.416 73.6814 181.773 73.5524 186.106 73.1704Z" fill="#FEFEFE"/>
<path d="M132.719 114.003L134.673 113.92C132.482 115.422 130.53 117.194 128.339 118.698C123.796 118.854 119.243 119.164 114.705 119.424C111.59 119.603 108.385 119.666 105.294 120.048C104.658 119.592 104.081 119.048 103.494 118.539C102.305 117.599 101.091 116.751 99.7932 115.936C104.273 115.565 108.783 115.358 113.273 115.086C119.75 114.656 126.232 114.295 132.719 114.003Z" fill="#FEFEFE"/>
<path d="M30.6611 76.3037C31.7896 76.2602 32.9257 76.2668 34.0554 76.2502C34.4861 82.2461 34.7632 88.2432 35.2646 94.2362C30.7758 91.6906 26.4876 88.7012 22.1658 85.9223C19.1972 84.1467 16.3844 82.1828 13.4832 80.322C11.6715 79.1599 9.77386 78.1126 7.9856 76.9212C11.3887 76.8997 14.7956 76.7302 18.197 76.6351C22.3524 76.5444 26.5071 76.4339 30.6611 76.3037Z" fill="#FEFEFE"/>
<path d="M190.947 73.842C190.954 73.8483 190.963 73.8542 190.97 73.8612C191.332 74.2153 191.31 75.6186 191.347 76.1205C191.485 77.9809 191.499 79.8537 191.593 81.717C191.871 86.9308 192.108 92.1462 192.303 97.3631L193.666 128.542L195.14 165.751C195.441 173.482 195.874 181.217 195.941 188.951C193.072 186.903 190.352 184.663 187.588 182.499L174.488 172.285L162.178 162.887C160.317 161.493 158.411 160.162 156.584 158.728C152.167 155.222 147.5 151.926 142.948 148.566L128.868 138.022L122.09 133.005C120.803 132.057 119.427 131.158 118.251 130.096C120.227 128.315 122.501 126.79 124.614 125.145L140.015 113.271L190.947 73.842Z" fill="#FEFEFE"/>
<path d="M187.041 91.4272C187.075 91.4385 187.11 91.4488 187.143 91.4616C187.434 91.5746 187.6 91.7102 187.713 91.9783C188.198 93.1284 188.174 94.8565 188.321 96.1104C189.053 102.189 189.53 108.283 189.754 114.394C190.04 121.759 189.739 129.156 189.733 136.525C189.73 139.812 190.386 157.643 189.558 159.34C189.224 159.264 189.15 159.244 188.9 159.033C188.418 157.496 188.846 153.42 188.824 151.58L188.763 118.439C188.708 114.073 188.523 109.712 188.208 105.355C187.949 102.475 187.651 99.5985 187.314 96.7256C187.143 95.2708 186.812 93.7009 186.809 92.2412C186.808 91.9292 186.894 91.7052 187.041 91.4272Z" fill="#6F86D5"/>
<path d="M3.46289 77.1538C4.85556 77.7314 6.68157 79.275 7.99326 80.1306C12.1084 82.8402 16.2486 85.5177 20.4139 88.1631C30.7686 94.7117 41.2911 101.049 51.5813 107.683C59.5413 112.866 67.4198 118.149 75.2167 123.533C76.8248 124.66 78.3551 125.879 79.9604 127.014C76.762 129.963 73.7132 133.023 70.574 136.021L58.0911 147.852C53.4551 152.298 48.6486 156.646 44.1481 161.203L20.3348 183.752L14.0205 189.751C12.4653 191.207 10.8589 192.618 9.39573 194.152C9.05938 191.205 9.05485 188.165 8.89862 185.202L7.94334 166.191L4.857 102.376C4.40504 93.9668 4.20605 85.5467 3.46289 77.1538Z" fill="#FEFEFE"/>
<path d="M9.69975 97.7075C10.0946 97.7542 10.2821 97.7334 10.5946 97.967C11.2131 99.4458 10.763 106.32 10.7503 108.357L10.7544 118.474C10.7458 127.863 11.4292 137.219 12.0871 146.583C12.3964 150.387 12.6233 154.195 12.7679 158.007C12.8229 159.448 13.0489 161.133 12.7959 162.55C12.4521 162.535 12.3461 162.549 12.0623 162.381C11.87 162.075 11.8033 161.786 11.7661 161.437C11.681 160.64 11.7563 159.804 11.7276 158.999C11.6531 156.9 11.56 154.802 11.4484 152.705C11.0007 144.599 10.2434 136.508 9.91355 128.393C9.60133 120.707 9.70548 113.025 9.7609 105.336C9.7793 102.797 9.61279 100.242 9.69975 97.7075Z" fill="#6F86D5"/>
<path d="M95.1303 117.796L95.2328 117.792C96.7155 117.742 98.1512 118.085 99.3654 118.873C101.592 120.319 103.607 122.168 105.657 123.82C108.41 126.039 111.239 128.204 114.034 130.379C118.379 133.761 122.91 136.981 127.356 140.253C130.232 142.394 133.093 144.551 135.939 146.725C149.853 157.029 163.643 167.469 177.31 178.044L189.755 187.72C191.356 188.968 193.101 190.12 194.627 191.437C194.948 191.715 195.2 191.878 195.185 192.314C195.167 192.844 194.73 193.364 194.333 193.719C193.56 194.41 192.549 194.905 191.503 195.152C190.614 195.363 189.727 195.265 188.84 195.096C186.611 194.669 184.409 193.761 182.195 193.207C177.789 192.104 173.305 191.442 168.776 190.922C163.886 190.362 158.915 190.118 153.997 189.845C139.597 189.044 125.094 188.985 110.669 189.111C100.982 189.207 91.301 189.479 81.6263 189.927C68.8121 190.406 56.0368 191.329 43.3003 192.697C38.8008 193.179 34.3101 193.722 29.8282 194.326C25.9449 194.866 15.4311 197.052 12.2114 196.434C11.8541 196.365 11.6341 196.286 11.4305 196.008C12.4525 194.812 13.7508 193.73 14.906 192.637L22.7272 185.347L45.0133 164.266L81.7243 129.195C84.9991 126.107 87.9068 122.63 91.2936 119.658C92.4278 118.663 93.54 118 95.1303 117.796Z" fill="#FEFEFE"/>
<path d="M152.21 183.751C152.497 183.739 152.785 183.732 153.071 183.718C153.133 183.715 153.194 183.71 153.256 183.707C153.702 183.682 154.065 183.704 154.398 184.006C154.557 184.149 154.513 184.186 154.518 184.371C154.145 184.75 153.532 184.689 153.017 184.704L111.22 185.711C105.624 185.872 100.025 186.152 94.4305 186.373C78.6652 186.953 62.9251 187.886 47.2103 189.172C46.7232 189.245 45.9177 189.448 45.4452 189.324C45.1375 189.242 45.088 189.143 44.9784 188.902L45.1038 188.683C46.2445 187.971 53.4121 187.667 55.0971 187.54C75.5522 186.144 96.0314 185.172 116.535 184.625L138.343 184.108C142.967 184.047 147.59 183.928 152.21 183.751Z" fill="#6F86D5"/>
<path d="M125.629 2.86355C128.247 2.78685 130.891 2.89503 133.513 2.88797C140.359 2.80969 147.204 2.84985 154.048 3.00846C158.506 3.09157 163.012 2.97302 167.46 3.19248L170.387 86.2718C169.369 87.194 168.19 88.0179 167.093 88.8638C164.002 91.2466 160.74 93.5574 157.823 96.1125C157.799 95.3757 157.799 94.6771 157.457 93.9918C157.327 93.7313 157.312 93.7584 157.014 93.6615C156.962 93.715 156.905 93.7652 156.858 93.8221C156.27 94.5265 156.594 96.0795 156.687 96.9191C153.131 99.6041 149.656 102.369 146.118 105.071C143.992 106.695 141.803 108.234 139.721 109.911C133.811 110.291 127.898 110.625 121.982 110.911L84.663 112.979C81.0831 113.198 77.5016 113.391 73.9184 113.561C71.434 113.673 68.8945 113.693 66.4292 113.992C65.2573 113.601 64.0882 112.568 63.0813 111.878C60.7637 110.29 57.369 107.784 54.9009 106.586C54.5373 103.029 54.4164 99.4489 54.21 95.8809C54.1548 94.9259 54.3058 93.9448 54.183 92.9977C54.145 92.7052 54.0786 92.5029 53.8775 92.2652C53.5421 92.177 53.5323 92.2185 53.2105 92.3558C52.54 93.4688 53.4303 103.909 53.6862 105.691C52.0281 104.932 50.4343 103.695 48.9148 102.717C45.4436 100.482 41.9316 98.1183 38.2784 96.1384C37.9879 92.9699 37.9181 89.7727 37.7199 86.5969C37.0911 76.2967 36.5614 65.9925 36.1306 55.6841L34.8072 26.3109C34.5659 20.6129 34.2117 14.9107 34.1775 9.208C43.9878 7.74105 53.8376 6.54134 63.7268 5.60886C73.6158 4.6764 83.5266 4.01282 93.4593 3.61812C104.176 3.13381 114.905 3.09509 125.629 2.86355Z" fill="#FEFEFE"/>
<path d="M154.149 67.7378C154.359 67.7878 154.528 67.8503 154.726 67.9303C154.85 68.0924 154.934 68.2263 154.996 68.4181C155.243 69.1851 155.251 70.194 154.817 70.9015C154.734 70.9034 154.633 70.9115 154.552 70.8845C154.315 70.8052 154.181 70.6677 154.084 70.4637C153.761 69.7881 153.852 68.407 154.149 67.7378Z" fill="#6F86D5"/>
<path d="M151.801 25.469C152.086 25.4849 152.281 25.5218 152.545 25.622C152.775 25.829 152.851 25.9913 152.904 26.2751C153.024 26.9044 152.762 27.7946 152.377 28.3105C152.108 28.342 151.952 28.3435 151.694 28.267C151.53 28.1023 151.428 27.973 151.373 27.7566C151.199 27.0774 151.39 26.0546 151.801 25.469Z" fill="#6F86D5"/>
<path d="M52.2281 65.2917C52.3088 65.3059 52.4044 65.3185 52.4782 65.3526C52.7696 65.488 52.88 65.6972 52.9782 65.9679C53.2966 66.8443 53.3393 68.1115 52.9215 68.9587C52.832 68.9528 52.702 68.9491 52.6194 68.9202C52.337 68.8211 52.1822 68.5863 52.0835 68.339C51.7637 67.5365 51.8588 66.0772 52.2281 65.2917Z" fill="#6F86D5"/>
<path d="M102.705 16.8749C103.114 16.838 103.486 16.79 103.88 16.9267C104.156 17.0231 104.428 17.1759 104.562 17.4214L104.454 17.5816C103.475 18.0405 102.292 17.947 101.216 17.9642C100.802 17.989 100.121 18.1091 99.7727 17.8732C99.5198 17.7015 99.4715 17.6298 99.4132 17.3662C99.976 16.8224 101.894 16.9277 102.705 16.8749Z" fill="#6F86D5"/>
<path d="M70.3903 17.9324C71.4371 17.9192 73.8228 17.7264 74.7023 18.106C74.9699 18.2214 74.9783 18.2321 75.0791 18.4848C74.9618 18.7147 74.8622 18.8418 74.6565 19.0128C73.5818 19.0289 72.4662 19.0799 71.3943 19.0093C70.8681 18.9745 70.4056 18.9363 70.049 18.5593C70.0831 18.2264 70.1498 18.1932 70.3903 17.9324Z" fill="#6F86D5"/>
<path d="M130.712 15.5722C131.178 15.549 131.844 15.4833 132.221 15.7715C132.334 16.065 132.342 16.0859 132.25 16.384C131.64 16.9214 130.231 16.7566 129.403 16.8042C128.786 16.8479 128.335 16.9459 127.819 16.5995C127.717 16.3158 127.701 16.3056 127.81 16.0272C128.481 15.5149 129.854 15.6085 130.712 15.5722Z" fill="#6F86D5"/>
<path d="M52.8157 72.2874L53.1812 72.4373C53.6136 73.014 53.7289 75.709 53.6444 76.4708C53.604 76.8341 53.4716 76.8936 53.1618 77.1096C53.0452 77.0257 52.9686 76.9764 52.8642 76.8723C52.2574 76.2661 52.1361 74.5808 52.1772 73.7912C52.212 73.1189 52.2538 72.756 52.8157 72.2874Z" fill="#6F86D5"/>
<path d="M50.1939 30.1394C50.3069 30.1937 50.4252 30.2437 50.5212 30.3234C51.1072 30.8113 51.2397 33.8978 51.24 34.7511C51.2402 35.1294 51.1205 35.2185 50.8387 35.486C50.8122 35.466 50.7852 35.4466 50.7594 35.4262C49.9579 34.7976 49.8349 33.0999 49.7604 32.1889C49.6944 31.3825 49.5869 30.7884 50.1939 30.1394Z" fill="#6F86D5"/>
<path d="M136.543 15.34C137.739 15.3104 139.306 15.1051 140.455 15.3819C140.769 15.4578 140.878 15.5488 141.05 15.7902C141.011 16.1418 140.933 16.2165 140.716 16.4988C139.51 16.5335 137.775 16.7678 136.631 16.4627C136.328 16.3817 136.261 16.2937 136.134 16.0429C136.19 15.7013 136.303 15.5907 136.543 15.34Z" fill="#6F86D5"/>
<path d="M80.1913 17.6371C80.8889 17.5863 81.8346 17.4703 82.4471 17.8292C82.6521 17.9492 82.5866 17.8805 82.6463 18.1058C82.5713 18.2199 82.5668 18.2421 82.4418 18.3438C81.773 18.8872 80.5401 18.7929 79.7155 18.8025C79.1974 18.8542 78.6467 18.9311 78.1272 18.8731C77.7684 18.8331 77.3931 18.7381 77.1561 18.478C77.1676 18.3472 77.1442 18.3577 77.2381 18.2566C77.8814 17.5637 79.3049 17.6587 80.1913 17.6371Z" fill="#6F86D5"/>
<path d="M61.2963 18.1304C62.5462 18.1998 64.6251 17.884 65.7319 18.3282C65.9526 18.5596 65.9942 18.5848 66.035 18.8844C65.8389 19.1337 65.8234 19.1391 65.5026 19.2354C64.2384 19.2942 61.4989 19.6517 60.4794 18.8775L60.483 18.6576C60.7261 18.3808 60.9454 18.2776 61.2963 18.1304Z" fill="#6F86D5"/>
<path d="M53.1128 82.6008L53.6025 82.8222C54.1108 83.6677 54.0237 86.4498 53.9833 87.4922C53.9637 87.9984 53.861 88.1568 53.4711 88.4932C52.9339 88.0619 52.9332 87.6351 52.8486 87.0202C52.678 85.7802 52.2478 83.6173 53.1128 82.6008Z" fill="#6F86D5"/>
<path d="M124.545 15.8994C124.727 15.8846 124.954 15.8488 125.133 15.8723C125.456 15.9144 125.496 15.9789 125.672 16.2012C125.699 16.5246 125.712 16.5176 125.498 16.7747C124.335 17.3092 121.553 17.1249 120.146 17.1727C119.878 17.2097 119.624 17.184 119.356 17.1634C119.1 16.9467 118.987 16.8835 118.881 16.5741L119.031 16.3794C120.284 15.8203 123.074 15.9533 124.545 15.8994Z" fill="#6F86D5"/>
<path d="M156.123 84.9688C156.227 84.985 156.46 85.017 156.553 85.0531C156.722 85.1193 156.795 85.2554 156.862 85.3988C157.288 86.3085 157.7 90.8027 157.325 91.6786L156.82 91.6134C156.63 91.5076 156.543 91.4378 156.44 91.2512C155.877 90.2364 155.738 85.9804 156.123 84.9688Z" fill="#6F86D5"/>
<path d="M154.769 73.0483C154.993 73.1157 155.427 73.2287 155.528 73.4345C155.659 73.6991 156.107 78.5798 156.072 79.2058C156.059 79.4479 155.972 79.6693 155.867 79.8892C155.398 79.691 155.157 79.5872 154.986 79.1248C154.478 77.7526 154.045 74.3134 154.769 73.0483Z" fill="#6F86D5"/>
<path d="M113.525 16.3471C113.978 16.3156 114.942 16.1309 115.308 16.3781C115.569 16.5546 115.602 16.6441 115.662 16.9142L115.523 17.1047C114.492 17.5917 111.164 17.5195 109.826 17.6056C109.36 17.6849 108.911 17.7807 108.435 17.741C108.164 17.5589 108.179 17.5723 108.12 17.2699C108.184 17.1078 108.244 16.9079 108.393 16.7905C109.025 16.2936 112.611 16.3753 113.525 16.3471Z" fill="#6F86D5"/>
<path d="M153.365 57.718C153.559 57.7334 153.674 57.7389 153.843 57.8388C154.086 57.9833 154.145 58.2873 154.19 58.5294C154.401 59.6517 155.072 64.0708 154.408 64.9372C154.228 64.8959 154.038 64.8637 153.896 64.7446C153.581 64.4796 153.52 63.8959 153.464 63.5226C153.303 62.4462 152.899 59.1721 153.077 58.1995C153.112 58.0077 153.239 57.8677 153.365 57.718Z" fill="#6F86D5"/>
<path d="M51.0457 39.0393C51.2654 39.0856 51.4589 39.1582 51.6663 39.2381C52.0196 40.1777 51.9692 41.3245 52.0153 42.3136C52.0702 43.488 52.5176 46.0277 51.6634 46.874L51.4534 46.7938C51.2153 46.5361 51.1582 46.23 51.1083 45.9051C50.9272 44.7253 50.367 39.8674 51.0457 39.0393Z" fill="#6F86D5"/>
<path d="M93.3506 17.2012C93.8314 17.1747 94.5648 17.0575 95.0213 17.1836C95.398 17.2876 95.6565 17.4148 95.861 17.7214L95.7298 17.9412C94.486 18.5496 91.3315 18.3497 89.839 18.3862C89.0345 18.4278 87.8319 18.6479 87.1361 18.2083C87.041 17.9632 87.0525 17.9658 87.1542 17.7205C88.0722 17.1699 92.0936 17.2618 93.3506 17.2012Z" fill="#6F86D5"/>
<path d="M51.8561 52.0679L52.0974 52.1441C52.6385 52.6902 52.7178 59.2064 52.6784 60.3135C52.66 60.8267 52.5833 61.0438 52.1688 61.3999C52.0427 61.3071 51.9037 61.2041 51.8012 61.0896C51.2248 60.4447 51.1968 54.0193 51.3108 52.899C51.3557 52.4564 51.4787 52.3406 51.8561 52.0679Z" fill="#6F86D5"/>
<path d="M151.903 30.9966C152.11 31.0583 152.282 31.1443 152.476 31.2349C152.658 31.4344 152.697 31.5889 152.742 31.8386C152.919 32.8355 153.654 39.6442 153.38 40.4044C153.344 40.5051 153.162 40.6767 153.088 40.7697C152.978 40.7404 152.813 40.7019 152.716 40.6511C152.521 40.5481 152.404 40.4449 152.344 40.2526C152.247 39.9462 151.628 32.1 151.67 31.5661C151.686 31.351 151.792 31.1819 151.903 30.9966Z" fill="#6F86D5"/>
<path d="M152.828 44.0537C153.12 44.1304 153.387 44.1687 153.586 44.3949C153.885 45.5915 154.354 53.3314 153.873 54.1773C153.505 54.105 153.286 54.1247 153.036 53.8594C152.763 52.4721 152.842 50.9519 152.764 49.5382C152.679 47.9914 152.425 46.3698 152.527 44.8227C152.548 44.5018 152.631 44.3171 152.828 44.0537Z" fill="#6F86D5"/>
<path d="M49.4417 17.8447C51.5586 18.0314 53.7129 17.8999 55.8305 18.0531C56.3998 18.0942 56.9521 18.1431 57.334 18.5544C57.2832 18.7097 57.2497 18.8471 57.1186 18.9655C56.9991 19.0735 56.8572 19.1597 56.6941 19.2002C55.9063 19.3953 51.5271 19.0933 50.3425 19.0474L50.5087 20.7314C50.5799 21.8467 51.4915 25.5397 50.8523 26.3165C50.5491 26.4058 50.3965 26.3937 50.0869 26.3317C49.9667 26.1579 49.9698 26.1948 49.9194 26.0264C49.4971 24.6184 48.9567 20.1519 49.1271 18.6682C49.1619 18.366 49.2885 18.1107 49.4417 17.8447Z" fill="#6F86D5"/>
<path d="M150.893 15.1451C151.738 15.1086 152.59 14.9354 153.287 15.4521C153.412 15.6605 153.471 15.7826 153.489 16.0264C153.535 16.6424 152.819 20.7593 152.562 21.5507C152.429 21.9581 152.271 22.3314 151.849 22.5491L151.619 22.4816C150.932 21.4618 151.543 19.5638 151.759 18.4326C151.883 17.7373 151.998 17.0408 152.104 16.343C150.725 16.3706 145.404 16.5766 144.483 16.2152C144.274 15.9721 144.221 15.9393 144.196 15.6364C144.226 15.6044 144.253 15.5692 144.287 15.5405C144.973 14.9576 149.726 15.1672 150.893 15.1451Z" fill="#6F86D5"/>
<path d="M143.008 101.633C143.707 101.583 144.563 101.442 145.194 101.789C145.67 102.05 145.928 102.516 146.025 103.001C146.133 103.543 146.05 104.183 145.667 104.628C145.419 104.917 145.117 105.047 144.731 105.117C142.645 105.493 140.253 105.357 138.115 105.48L121.104 106.363L85.2588 108.305C79.7459 108.594 74.2354 108.918 68.7273 109.276C67.8824 109.335 67.2027 109.403 66.4658 108.956C65.9336 108.634 65.4847 108.138 65.3982 107.545C65.3914 107.498 65.3873 107.451 65.3861 107.403C65.3848 107.355 65.3863 107.308 65.3906 107.26C65.3951 107.213 65.4022 107.166 65.4121 107.119C65.422 107.072 65.4346 107.026 65.4501 106.981C65.4654 106.935 65.4834 106.891 65.5041 106.847C65.5248 106.803 65.5479 106.761 65.5736 106.719C65.5992 106.678 65.6272 106.637 65.6577 106.599C65.6881 106.56 65.7207 106.523 65.7556 106.487C66.1486 106.079 66.7539 105.842 67.3327 105.752C69.2175 105.459 71.5002 105.526 73.4323 105.426L86.8908 104.693L143.008 101.633Z" fill="#6F86D5"/>
<path d="M142.33 85.8797C142.98 85.8335 143.764 85.6974 144.334 86.0583C144.847 86.3834 145.155 86.9647 145.255 87.5133C145.339 87.9753 145.274 88.5043 144.94 88.8792C144.669 89.1825 144.376 89.2796 143.964 89.3322C141.787 89.6093 139.44 89.5712 137.241 89.6751L122.287 90.3615C104.067 91.2798 85.8013 91.9985 67.6079 93.2862C66.7429 93.3042 66.2059 93.4444 65.4849 92.8933C65 92.5226 64.6386 92.0057 64.6018 91.4201C64.5784 91.0477 64.7086 90.7055 64.9821 90.4271C65.4118 89.9902 66.0597 89.8211 66.676 89.7435C67.9177 89.5873 69.2194 89.5812 70.4718 89.5152L77.9156 89.1162C85.7058 88.6398 93.4998 88.2243 101.298 87.8699C114.975 87.2658 128.64 86.265 142.33 85.8797Z" fill="#6F86D5"/>
<path d="M141.973 93.5759C142.852 93.5194 144.248 93.2697 144.997 93.7786C145.441 94.0806 145.635 94.6703 145.698 95.1488C145.765 95.6633 145.708 96.3297 145.283 96.7193C144.914 97.0581 144.163 97.0853 143.663 97.1152C132.27 97.7997 120.85 98.1476 109.454 98.8016L83.2539 100.243C78.4674 100.524 73.6765 100.973 68.8845 101.15C67.9025 101.252 66.6598 101.426 65.8116 100.852C65.3699 100.554 65.1331 100.067 65.0713 99.5782C65.0092 99.0873 65.1329 98.5817 65.4898 98.201C65.8858 97.7786 66.5134 97.6945 67.0872 97.6267C69.0732 97.3918 71.1534 97.3918 73.1559 97.286L86.2879 96.5777C104.843 95.4828 123.405 94.4822 141.973 93.5759Z" fill="#6F86D5"/>
<path d="M104.115 28.8257C111.464 28.5491 119.064 29.7598 124.885 34.114C131.019 38.7027 134.789 45.8042 135.511 52.9456C136.259 60.3305 133.476 67.7131 128.278 73.3799C123.638 78.4392 117.251 82.4434 110.145 83.98C107.987 84.4467 105.806 84.6299 103.603 84.8164C96.1792 85.2194 88.1686 82.366 82.5972 77.9529C76.6144 73.2139 72.6404 65.6108 72.1495 58.4293C71.6323 50.8625 75.006 43.8391 80.4604 38.259C86.7057 31.8701 94.9805 29.2974 104.115 28.8257Z" fill="#6F86D5"/>
<path d="M116.072 33.031L117.393 33.5477C116.774 34.5036 116.099 35.4296 115.436 36.3607C114.993 36.1964 114.558 36.0094 114.121 35.8336C114.92 34.9731 115.485 34.0151 116.072 33.031Z" fill="#FEFEFE"/>
<path d="M104.862 31.7744C105.512 31.7262 106.16 31.7475 106.811 31.7603C106.217 32.5905 105.589 33.4156 105.098 34.3015C104.991 34.4944 104.993 34.4501 104.782 34.5146C104.15 34.5676 103.515 34.6035 102.881 34.6463C103.57 33.7059 104.284 32.7761 104.862 31.7744Z" fill="#FEFEFE"/>
<path d="M112.497 32.2087L114.516 32.5818C113.875 33.4088 113.231 34.2317 112.747 35.1445C112.707 35.2025 112.593 35.2677 112.532 35.3114C111.952 35.2794 111.414 35.0658 110.87 34.8883C111.429 34.0024 111.987 33.1194 112.497 32.2087Z" fill="#FEFEFE"/>
<path d="M122.053 35.9885C122.595 36.2291 123.052 36.7397 123.474 37.1249C122.635 37.9261 121.916 38.8239 121.178 39.7015L121.083 39.7219C120.665 39.6098 120.284 39.2522 119.949 39.004C120.574 37.9708 121.351 36.9824 122.053 35.9885Z" fill="#FEFEFE"/>
<path d="M101.507 31.9043C101.943 31.8878 102.423 31.8285 102.847 31.9358C102.415 32.9444 101.588 33.9683 100.998 34.9187L99.5638 35.2877L98.4478 35.6106C99.4243 34.377 100.36 33.0083 101.507 31.9043Z" fill="#FEFEFE"/>
<path d="M108.858 31.8057C109.502 31.8263 110.15 31.9024 110.792 31.9584C110.175 32.8493 109.492 33.7095 108.956 34.6441C108.239 34.6465 107.528 34.6024 106.813 34.5602C107.416 33.5833 108.026 32.6383 108.858 31.8057Z" fill="#FEFEFE"/>
<path d="M83.9713 69.0623C84.3383 69.3174 84.5783 69.6659 84.8435 70.0044C84.0167 71.126 83.0906 72.2034 82.2118 73.2926C81.8513 72.9376 81.5168 72.5541 81.1729 72.1853C81.9669 71.2436 82.9272 69.7378 83.9713 69.0623Z" fill="#FEFEFE"/>
<path d="M118.904 34.2603C119.514 34.4354 120.041 34.7296 120.591 35.0195C119.989 36.0068 119.203 36.9196 118.483 37.839C118.078 37.9087 117.25 37.317 116.901 37.1195C117.668 36.2343 118.27 35.2265 118.904 34.2603Z" fill="#FEFEFE"/>
<path d="M124.607 38.2C125.063 38.4494 125.467 38.8831 125.851 39.2195C125.123 40.1964 124.382 41.1648 123.627 42.1246L123.363 42.1016C122.937 41.7619 122.668 41.3958 122.359 40.9708C123.076 40.0243 123.843 39.1143 124.607 38.2Z" fill="#FEFEFE"/>
<path d="M95.4951 76.5632L97.0142 76.9698C96.2256 78.237 95.5372 79.5535 94.7307 80.8136C94.1416 80.6813 93.5877 80.4757 93.0234 80.2758C93.9458 79.1077 94.6646 77.7887 95.4951 76.5632Z" fill="#FEFEFE"/>
<path d="M97.0118 32.7241C97.0586 32.7528 97.0627 32.816 97.0827 32.8643C95.6105 34.2282 94.6306 35.9517 93.2451 37.2198C93.2002 37.2609 93.1534 37.3 93.1085 37.3408C92.5521 37.8462 91.8388 38.1307 91.1451 38.452C91.0586 38.3829 91.1095 38.4359 91.0603 38.2556C92.3648 36.4065 93.9868 34.709 95.5025 33.0007L97.0118 32.7241Z" fill="#FEFEFE"/>
<path d="M81.6885 66.2048C82.2279 66.4171 82.6165 67.3102 82.8879 67.7732C82.0477 68.7338 81.1359 69.656 80.2619 70.5921C79.8794 70.5221 79.3286 69.5817 79.11 69.2838C79.9248 68.2189 80.7798 67.2044 81.6885 66.2048Z" fill="#FEFEFE"/>
<path d="M127.018 40.7041C127.454 41.1604 127.771 41.7119 128.111 42.2297C127.292 43.302 126.649 44.4819 125.854 45.5724C125.34 45.2417 125.034 44.4164 124.767 43.9034C125.42 42.7179 126.063 41.7104 127.018 40.7041Z" fill="#FEFEFE"/>
<path d="M88.9656 73.5872C89.5941 73.8572 90.2052 74.2655 90.7957 74.6047C89.8906 75.5895 89.0187 76.5768 88.1979 77.6215L87.9325 77.6952C87.4003 77.5135 87.0181 77.1987 86.5852 76.8747C87.2409 75.7118 88.1417 74.6553 88.9656 73.5872Z" fill="#FEFEFE"/>
<path d="M98.5382 77.3779L100.905 77.7173L98.3021 81.0818C98.2006 81.213 98.0759 81.3276 97.9579 81.4466C97.6662 81.4931 97.3335 81.5803 97.0432 81.5038C96.8858 81.4623 96.8612 81.3647 96.7786 81.2485C96.8127 80.0447 97.9847 78.6538 98.4775 77.5194L98.5382 77.3779Z" fill="#FEFEFE"/>
<path d="M129.083 44.0701C129.569 44.5329 129.87 45.2525 130.18 45.8225C129.237 46.94 128.409 48.1277 127.564 49.3073L127.461 49.3656C127.082 49.0818 126.837 48.3304 126.633 47.916C126.948 47.2297 127.311 46.5647 127.721 45.9211C128.131 45.2774 128.585 44.6604 129.083 44.0701Z" fill="#FEFEFE"/>
<path d="M130.88 47.7485C131.321 48.131 131.406 49.0479 131.533 49.5783C130.502 51.0185 129.322 52.3654 128.313 53.8178L128.221 53.908C127.916 53.4115 127.97 52.3409 127.919 51.7486C129.046 50.5485 129.876 49.0466 130.88 47.7485Z" fill="#FEFEFE"/>
<path d="M79.8405 62.3179C80.2905 62.7716 80.56 64.1016 80.7659 64.7041C79.9998 65.7428 79.0954 66.706 78.3057 67.7342C77.9544 67.2501 77.5959 66.7704 77.2302 66.2951C78.0465 64.936 78.8587 63.5864 79.8405 62.3179Z" fill="#FEFEFE"/>
<path d="M109.519 77.146C109.607 77.1977 109.556 77.1571 109.622 77.305L109.459 77.3572L109.608 77.5058L109.375 77.6473L109.46 77.5078C108.361 78.8219 107.4 80.2678 106.396 81.6451C105.745 81.7503 105.084 81.7916 104.425 81.8453L104.335 81.7244L107.376 77.5191C108.128 77.4511 108.793 77.3372 109.519 77.146Z" fill="#FEFEFE"/>
<path d="M92.2061 75.2559L94.0634 76.0996C93.0991 77.1956 92.3359 78.4567 91.5308 79.6531C90.8216 79.3463 90.1637 79.0295 89.5104 78.6325C90.2918 77.4531 91.3748 76.4212 92.2061 75.2559Z" fill="#FEFEFE"/>
<path d="M85.9504 71.1992C86.1059 71.2468 86.1267 71.2472 86.2927 71.3324C86.6873 71.5349 87.1603 71.8667 87.2274 72.3024C87.3796 73.2902 85.6513 75.1041 85.0797 75.9319C84.508 75.515 83.9698 75.0791 83.4359 74.6228C84.1872 73.4351 85.0911 72.3237 85.9504 71.1992Z" fill="#FEFEFE"/>
<path d="M102.585 77.8809C103.442 77.9017 104.301 77.893 105.159 77.8956C104.162 79.1246 103.201 80.377 102.278 81.6527C102.195 81.7171 102.177 81.7357 102.071 81.7894C101.686 81.9832 100.972 81.9978 100.564 81.8848C100.385 81.8355 100.395 81.744 100.325 81.6023C100.465 80.4316 101.936 78.9325 102.585 77.8809Z" fill="#FEFEFE"/>
<path d="M132.023 51.8818C132.283 52.532 132.266 53.4291 132.331 54.1234C130.584 55.7193 129.211 57.7575 127.758 59.579C127.706 59.594 127.65 59.561 127.598 59.5462C127.691 58.6847 127.844 57.8246 127.974 56.9668C129.462 55.4456 130.771 53.5717 132.023 51.8818Z" fill="#FEFEFE"/>
<path d="M78.935 57.4514C79.0734 58.5563 79.1756 59.6386 79.4195 60.7309C78.2805 61.6866 77.3842 62.8566 76.5006 64.007C76.2046 63.19 75.9452 62.3832 75.7357 61.5442C76.9858 60.3644 77.9575 58.8221 78.935 57.4514Z" fill="#FEFEFE"/>
<path d="M114.975 75.6138L115.032 75.6344C115.094 75.8917 111.765 79.8587 111.352 80.5816C110.58 80.821 109.796 81.004 109.007 81.1906L108.922 81.1096C109.117 80.2867 111.287 77.7065 111.85 76.6559C112.946 76.4275 113.954 76.034 114.975 75.6138Z" fill="#FEFEFE"/>
<path d="M130.428 63.5315C130.514 63.6158 130.459 63.5513 130.53 63.7592C129.762 67.2593 124.822 72.3531 121.858 74.6381C121.811 74.5931 121.808 74.5223 121.789 74.4628C124.852 70.9707 127.5 67.1265 130.428 63.5315Z" fill="#FEFEFE"/>
<path d="M79.3684 51.4648C79.5076 52.4442 79.0263 54.2529 78.8799 55.2995C77.6525 56.5578 76.7858 58.2881 75.4488 59.4204C75.285 58.5112 75.1519 57.6228 75.0984 56.7023C76.3745 54.9373 77.7624 52.9822 79.3684 51.4648Z" fill="#FEFEFE"/>
<path d="M92.4064 33.9106C92.4498 34.2837 91.5249 35.2722 91.2741 35.5716C86.0958 41.7497 80.394 47.5534 75.4678 53.9084C75.2542 53.0858 75.9315 50.9033 76.3916 50.1572C77.0222 49.1348 78.1727 48.2448 78.9999 47.3368L84.7412 41.0022C86.5003 39.081 88.5303 37.1489 89.8169 34.9354C90.6434 34.5008 91.5122 34.2081 92.4064 33.9106Z" fill="#FEFEFE"/>
<path d="M132.195 56.8833L132.339 57.04C132.351 57.5875 132.333 58.0923 132.165 58.6251C131.651 60.2491 129.365 62.0719 128.271 63.5008C126.702 65.5515 125.006 67.528 123.468 69.5972C122.059 71.4932 120.704 73.3875 119.245 75.256C118.656 76.0113 118.079 76.8328 117.396 77.5212C116.63 78.2934 115.505 78.8045 114.517 79.3014L114.411 79.238C115.359 77.8595 116.476 76.5469 117.508 75.2184C119.416 72.7646 121.314 70.3138 123.27 67.8913C126.241 64.2111 129.097 60.48 132.195 56.8833Z" fill="#FEFEFE"/>
<path d="M104.34 37.6247C104.97 37.5521 105.653 37.5651 106.287 37.5701C111.151 37.6082 115.916 39.1289 119.359 42.3417C123.045 45.7805 124.88 50.3655 124.81 55.1365C124.795 55.8371 124.732 56.5341 124.619 57.2274C124.506 57.9207 124.346 58.6047 124.138 59.2795C123.478 61.4628 120.184 69.0954 118.532 70.5071C114.627 73.8446 107.655 74.9469 102.496 74.8402C98.0007 74.5986 93.7744 73.1741 90.2736 70.5916C86.086 67.5023 82.5499 62.7089 82.0117 57.74C81.5143 53.1457 84.1809 48.5681 87.3184 45.1204C91.6696 40.339 97.6627 38.1966 104.34 37.6247Z" fill="#FEFEFE"/>
<path d="M113.378 43.6539C113.51 43.6412 113.643 43.6333 113.777 43.6302C114.924 43.6002 116.017 44.2 116.804 44.9229C117.532 45.5923 118.054 46.4482 118.039 47.4088C118.032 47.8506 117.846 48.1913 117.625 48.5739C117.033 49.5987 116.31 50.5721 115.675 51.5771C113.134 55.6016 110.532 59.3494 107.903 63.2908C106.588 65.2613 105.388 68.2566 103.517 69.7535C102.961 70.1988 102.025 70.4202 101.297 70.3478C100.66 70.2846 100.079 69.9248 99.6069 69.5536C97.2759 67.723 93.8623 63.1871 91.8939 60.7774C91.3757 60.156 90.8865 59.5162 90.4262 58.8581C89.4468 57.4734 87.2123 54.4137 87.713 52.6581C87.8986 52.0079 88.4533 51.5401 89.0926 51.2431C89.8555 50.8889 90.8739 50.7507 91.6445 51.161C92.95 51.8558 94.0434 53.8538 94.9172 54.9932C95.9119 56.2902 99.0503 60.2909 100.645 60.7296C100.751 60.7068 100.869 60.7092 100.965 60.6612C101.842 60.2233 108.279 50.8159 109.046 49.6213C110.145 47.9071 111.09 45.9248 112.397 44.3466C112.659 44.0303 113.005 43.8464 113.378 43.6539Z" fill="#6F86D5"/>
</svg>
