<svg width="160" height="68" viewBox="0 0 160 68" fill="none" xmlns="http://www.w3.org/2000/svg">
<path d="M64.735 53.4001V30.2366H69.1456V53.4001H64.735ZM68.511 53.4001V49.5924H79.0139V53.4001H68.511ZM68.511 43.5318V39.7241H78.1889V43.5318H68.511ZM68.511 34.0443V30.2366H78.7601V34.0443H68.511ZM90.0248 53.9713C88.819 53.9713 87.7085 53.7492 86.6931 53.3049C85.6777 52.8607 84.7998 52.2366 84.0594 51.4328C83.319 50.629 82.7479 49.6982 82.3459 48.6405C81.944 47.5616 81.743 46.3982 81.743 45.1501V44.4837C81.743 43.2568 81.9334 42.1039 82.3142 41.0251C82.7161 39.9462 83.2661 39.0049 83.9642 38.201C84.6834 37.3972 85.5402 36.7731 86.5344 36.3289C87.5498 35.8635 88.671 35.6308 89.8979 35.6308C91.2517 35.6308 92.4364 35.927 93.4517 36.5193C94.4883 37.0904 95.3133 37.9577 95.9268 39.1212C96.5402 40.2847 96.8787 41.7443 96.9421 43.5001L95.6412 41.977V30.2366H100.052V53.4001H96.5614V46.0703H97.3229C97.2595 47.8261 96.8998 49.2963 96.2441 50.4809C95.5883 51.6443 94.721 52.5222 93.6421 53.1145C92.5844 53.6857 91.3787 53.9713 90.0248 53.9713ZM91.0085 50.2588C91.8758 50.2588 92.6691 50.0684 93.3883 49.6876C94.1075 49.2857 94.6787 48.7145 95.1018 47.9741C95.546 47.2126 95.7681 46.3241 95.7681 45.3087V44.0395C95.7681 43.0241 95.546 42.178 95.1018 41.501C94.6575 40.803 94.0758 40.2741 93.3566 39.9145C92.6373 39.5337 91.8546 39.3433 91.0085 39.3433C90.0565 39.3433 89.2104 39.576 88.47 40.0414C87.7508 40.4856 87.1796 41.1203 86.7565 41.9453C86.3546 42.7703 86.1536 43.7328 86.1536 44.8328C86.1536 45.9328 86.3652 46.8953 86.7883 47.7203C87.2113 48.5241 87.7825 49.1482 88.5017 49.5924C89.2421 50.0366 90.0777 50.2588 91.0085 50.2588ZM110.942 53.9395C108.954 53.9395 107.41 53.2838 106.31 51.9722C105.231 50.6607 104.691 48.7145 104.691 46.1337V36.1385H109.102V46.5145C109.102 47.5722 109.398 48.4184 109.99 49.053C110.583 49.6664 111.387 49.9732 112.402 49.9732C113.417 49.9732 114.242 49.6453 114.877 48.9895C115.533 48.3337 115.861 47.4453 115.861 46.3241V36.1385H120.271V53.4001H116.781V46.0703H117.13C117.13 47.8049 116.908 49.2539 116.464 50.4174C116.019 51.5809 115.353 52.4588 114.465 53.0511C113.576 53.6434 112.465 53.9395 111.133 53.9395H110.942ZM132.985 54.003C131.483 54.003 130.182 53.7492 129.082 53.2415C128.003 52.7338 127.094 52.0568 126.353 51.2107C125.634 50.3645 125.095 49.4126 124.735 48.3549C124.375 47.2972 124.196 46.2184 124.196 45.1184V44.5155C124.196 43.352 124.375 42.2414 124.735 41.1837C125.116 40.1049 125.676 39.1529 126.417 38.3279C127.157 37.4818 128.067 36.8154 129.146 36.3289C130.246 35.8212 131.515 35.5674 132.953 35.5674C134.455 35.5674 135.798 35.8635 136.983 36.4558C138.168 37.027 139.109 37.8308 139.807 38.8674C140.526 39.9039 140.928 41.1097 141.013 42.4847H136.729C136.623 41.5962 136.243 40.8558 135.587 40.2635C134.952 39.6712 134.074 39.3751 132.953 39.3751C131.98 39.3751 131.166 39.6078 130.51 40.0731C129.875 40.5385 129.399 41.1837 129.082 42.0087C128.765 42.8126 128.606 43.7433 128.606 44.801C128.606 45.8164 128.754 46.7366 129.05 47.5616C129.368 48.3866 129.844 49.0318 130.478 49.4972C131.134 49.9626 131.97 50.1953 132.985 50.1953C133.747 50.1953 134.402 50.0578 134.952 49.7828C135.502 49.5078 135.936 49.127 136.253 48.6405C136.592 48.1539 136.803 47.6039 136.888 46.9905H141.172C141.087 48.3866 140.674 49.6136 139.934 50.6713C139.215 51.7078 138.252 52.5222 137.047 53.1145C135.862 53.7068 134.508 54.003 132.985 54.003ZM152.193 53.6222C150.607 53.6222 149.295 53.4213 148.259 53.0193C147.243 52.5963 146.482 51.8982 145.974 50.9251C145.466 49.9309 145.213 48.5982 145.213 46.927L145.244 31.3154H149.369L149.338 47.2126C149.338 48.0587 149.56 48.7145 150.004 49.1799C150.469 49.6241 151.125 49.8463 151.971 49.8463H154.668V53.6222H152.193ZM142.484 39.4068V36.1702H154.668V39.4068H142.484Z" fill="#4B68CB"/>
<path d="M23.1662 17.9798L14.5221 19.7085V13.6577C16.8687 11.7752 18.66 11.0483 23.1662 10.8916V17.9798Z" fill="black"/>
<path d="M23.1662 17.9798L31.8103 19.7085V13.6577C29.4637 11.7752 27.6723 11.0483 23.1662 10.8916V17.9798Z" fill="black"/>
<path d="M9.79621 63.8033C17.0889 67.7607 23.1662 67.4165 23.1662 67.4165V18.036C22.4771 17.9219 19.95 18.0429 17.634 18.6713C15.3016 19.3041 13.1824 20.4448 13.0953 20.4448C12.9217 20.4448 11.0117 18.3801 10.4908 17.864C9.96985 17.3478 8.92803 16.4875 7.71258 16.3155C6.49712 16.1434 6.49712 16.3155 5.45531 16.8316C4.41349 17.3478 4.06622 18.2081 3.54531 19.4125C3.0244 20.6169 3.37167 21.8213 4.76076 23.5419C6.14985 25.2624 7.19167 26.1227 7.19167 26.1227C7.19167 26.1227 2.52647 32.5019 2.17665 33.0205C1.82682 33.5392 1.30208 35.4409 1.30208 35.4409C1.30208 35.4409 2.50349 34.2307 2.70139 34.0578C2.89928 33.8849 4.23985 33.1771 4.23985 33.1771C4.23985 33.1771 1.12717 38.0341 0.777344 38.7256C0.427517 39.4172 0.077692 41.3189 0.077692 41.3189C0.077692 41.3189 0.952257 39.7629 1.37486 39.2851C1.79745 38.8073 3.19804 37.4785 3.19804 37.4785C3.19804 37.4785 1.8276 39.368 0.952257 41.146C0.340567 42.3884 0.149643 43.6276 0.077692 43.9121C-0.0972214 44.6036 0.077692 46.1596 0.077692 46.1596C0.077692 46.1596 0.252605 45.2952 0.489574 44.6036C0.726543 43.9121 0.777344 43.5663 1.12717 43.0477C1.477 42.529 2.50349 41.6079 2.50349 41.6079C2.50349 41.6079 0.76713 52.4475 1.28804 55.0284C1.80895 57.6093 2.50349 59.846 9.79621 63.8033Z" fill="#D3AC93"/>
<path d="M10.5725 53.4206C8.64843 52.3833 5.32508 48.407 5.32508 48.407C5.32508 48.407 4.97525 51.0003 5.67491 52.7291C6.37456 54.4579 7.77386 56.1867 8.64843 57.224C9.52299 58.2613 9.87282 58.78 11.447 59.6444C13.0212 60.5088 15.9948 61.3732 15.9948 61.3732C15.9948 61.3732 15.8199 58.9529 16.3446 58.78C16.8693 58.6071 18.4435 59.8173 19.6679 60.5088C20.8923 61.2003 23.1662 64.4851 23.1662 64.4851V56.1867C23.1662 56.1867 20.7174 56.0139 19.6679 56.0139C18.6185 56.0139 12.4965 54.4579 10.5725 53.4206Z" fill="#B48768"/>
<path d="M13.1533 24.7979C13.0309 24.6697 12.8632 24.5917 12.6861 24.587C12.1484 24.5721 11.7132 24.6779 11.3302 25.0662C10.6606 25.7446 11.9287 26.3179 12.1908 26.944C12.3468 27.3172 12.3392 27.8831 12.3303 28.363C12.3255 28.62 12.3766 28.884 12.5492 29.0744C12.8217 29.3749 13.1687 29.4998 13.5815 29.6576C13.6545 29.6855 13.7239 29.7221 13.7945 29.7557C13.883 29.798 13.9737 29.8275 14.0665 29.8502C14.3878 29.9289 14.7765 29.7802 14.769 29.4495C14.7294 27.6724 14.3796 26.0825 13.1533 24.7979Z" fill="black"/>
<path d="M9.40166 18.9115C8.90603 18.4129 8.26376 18.0486 7.56303 17.992C7.39224 17.9782 7.226 17.9748 7.07328 17.9884C6.5842 18.0316 6.22799 18.1839 5.91186 18.4528C5.64178 18.6826 5.45555 19.0007 5.37934 19.347C5.29755 19.7187 5.30874 20.0705 5.40923 20.4992C5.7315 21.8718 6.78217 23.1783 7.98121 23.9447C8.04949 23.9883 8.11026 24.0613 8.17392 24.1115C8.33609 24.2392 8.56667 24.1057 8.70541 23.9528C9.4327 23.1515 10.5335 22.0114 10.5713 21.036C10.6021 20.2454 10.0138 19.5272 9.40166 18.9115Z" fill="black"/>
<path d="M36.5362 63.8033C29.2435 67.7607 23.1662 67.4165 23.1662 67.4165V18.036C23.8553 17.9219 26.3824 18.0429 28.6984 18.6713C31.0308 19.3041 33.15 20.4448 33.2371 20.4448C33.4107 20.4448 35.3207 18.3801 35.8416 17.864C36.3626 17.3478 37.4044 16.4875 38.6198 16.3155C39.8353 16.1434 39.8353 16.3155 40.8771 16.8316C41.9189 17.3478 42.2662 18.2081 42.7871 19.4125C43.308 20.6169 42.9607 21.8213 41.5716 23.5419C40.1825 25.2624 39.1407 26.1227 39.1407 26.1227C39.1407 26.1227 43.8059 32.5019 44.1558 33.0205C44.5056 33.5392 45.0303 35.4409 45.0303 35.4409C45.0303 35.4409 43.8289 34.2307 43.631 34.0578C43.4331 33.8849 42.0925 33.1771 42.0925 33.1771C42.0925 33.1771 45.2052 38.0341 45.5551 38.7256C45.9049 39.4172 46.2547 41.3189 46.2547 41.3189C46.2547 41.3189 45.3801 39.7629 44.9575 39.2851C44.5349 38.8073 43.1344 37.4785 43.1344 37.4785C43.1344 37.4785 44.5048 39.368 45.3801 41.146C45.9918 42.3884 46.1828 43.6276 46.2547 43.9121C46.4296 44.6036 46.2547 46.1596 46.2547 46.1596C46.2547 46.1596 46.0798 45.2952 45.8428 44.6036C45.6059 43.9121 45.5551 43.5663 45.2052 43.0477C44.8554 42.529 43.8289 41.6079 43.8289 41.6079C43.8289 41.6079 45.5653 52.4475 45.0444 55.0284C44.5235 57.6093 43.8289 59.846 36.5362 63.8033Z" fill="#D3AC93"/>
<path d="M35.7599 53.4206C37.684 52.3833 41.0073 48.407 41.0073 48.407C41.0073 48.407 41.3571 51.0003 40.6575 52.7291C39.9578 54.4579 38.5585 56.1867 37.684 57.224C36.8094 58.2613 36.4596 58.78 34.8854 59.6444C33.3111 60.5088 30.3376 61.3732 30.3376 61.3732C30.3376 61.3732 30.5125 58.9529 29.9878 58.78C29.4631 58.6071 27.8888 59.8173 26.6645 60.5088C25.4401 61.2003 23.1662 64.4851 23.1662 64.4851V56.1867C23.1662 56.1867 25.615 56.0139 26.6645 56.0139C27.7139 56.0139 33.8359 54.4579 35.7599 53.4206Z" fill="#B48768"/>
<path d="M31.0912 50.7667L31.3645 50.5566C31.7264 50.2784 32.0354 49.9374 32.2767 49.5498L32.8182 48.6801C33.1447 48.1558 33.3841 47.582 33.5271 46.9812L33.77 45.9608C33.9292 45.292 33.9666 44.6 33.8804 43.918L33.7328 42.7513C33.685 42.3736 33.5997 42.0016 33.478 41.6408L32.9886 40.1897C32.8542 39.7911 32.6763 39.4086 32.458 39.0491L31.6391 37.7C31.3559 37.2336 31.0076 36.8101 30.6045 36.4424L29.3165 35.2672C29.0649 35.0377 28.7939 34.8288 28.5014 34.6543C26.703 33.5812 25.4688 33.2483 23.1662 33.1934V49.4443L28.5121 51.2056C28.7944 51.2986 29.0898 51.346 29.3871 51.346C30.0035 51.346 30.6026 51.1424 31.0912 50.7667Z" fill="#845540"/>
<path d="M15.367 50.7667L15.0938 50.5566C14.7318 50.2784 14.4228 49.9374 14.1815 49.5498L13.64 48.6801C13.3136 48.1558 13.0742 47.582 12.9311 46.9812L12.6882 45.9608C12.529 45.292 12.4916 44.6 12.5779 43.918L12.7254 42.7513C12.7732 42.3736 12.8586 42.0016 12.9802 41.6408L13.4696 40.1897C13.604 39.7911 13.782 39.4086 14.0002 39.0491L14.8192 37.7C15.1023 37.2336 15.4507 36.8101 15.8538 36.4424L17.1418 35.2672C17.3934 35.0377 17.6643 34.8288 17.9568 34.6543C19.7552 33.5812 20.9895 33.2483 23.2921 33.1934V49.4443L17.9461 51.2056C17.6638 51.2986 17.3684 51.346 17.0712 51.346C16.4548 51.346 15.8557 51.1424 15.367 50.7667Z" fill="#845540"/>
<path d="M25.7548 39.4518L25.0257 40.1725C24.8367 40.3592 24.6792 40.5753 24.5593 40.8124L24.5405 40.8495C24.4411 41.046 24.3719 41.2564 24.3353 41.4736L24.2459 42.0035C24.2263 42.1203 24.2445 42.2403 24.2979 42.3459C24.4427 42.6321 24.7994 42.7361 25.0753 42.5725L25.44 42.3562L26.6608 41.8077C27.1241 41.5996 27.5365 41.293 27.8692 40.9093L28.2764 40.4398C28.3666 40.3358 28.4311 40.212 28.4649 40.0786C28.5415 39.7759 28.4521 39.4553 28.2301 39.2358L28.1813 39.1876C27.9939 39.0024 27.741 38.8985 27.4776 38.8985H27.1017C26.5974 38.8985 26.1134 39.0973 25.7548 39.4518Z" fill="black"/>
<path d="M20.7035 39.4518L21.4326 40.1725C21.6215 40.3592 21.779 40.5753 21.8989 40.8124L21.9177 40.8495C22.0171 41.046 22.0863 41.2564 22.1229 41.4736L22.2123 42.0035C22.232 42.1203 22.2138 42.2403 22.1603 42.3459C22.0156 42.6321 21.6589 42.7361 21.383 42.5725L21.0182 42.3562L19.7975 41.8077C19.3342 41.5996 18.9218 41.293 18.589 40.9093L18.1819 40.4398C18.0917 40.3358 18.0271 40.212 17.9934 40.0786C17.9168 39.7759 18.0061 39.4553 18.2282 39.2358L18.277 39.1876C18.4644 39.0024 18.7172 38.8985 18.9807 38.8985H19.3566C19.8608 38.8985 20.3448 39.0973 20.7035 39.4518Z" fill="black"/>
<path d="M33.1792 24.7979C33.3015 24.6697 33.4692 24.5917 33.6464 24.587C34.1841 24.5721 34.6192 24.6779 35.0023 25.0662C35.6719 25.7446 34.4037 26.3179 34.1417 26.944C33.9857 27.3172 33.9933 27.8831 34.0022 28.363C34.007 28.62 33.9558 28.884 33.7832 29.0744C33.5108 29.3749 33.1637 29.4998 32.751 29.6576C32.6779 29.6855 32.6086 29.7221 32.538 29.7557C32.4494 29.798 32.3587 29.8275 32.266 29.8502C31.9446 29.9289 31.556 29.7802 31.5635 29.4495C31.6031 27.6724 31.9529 26.0825 33.1792 24.7979Z" fill="black"/>
<path d="M36.9307 18.9115C37.4264 18.4129 38.0686 18.0486 38.7694 17.992C38.9402 17.9782 39.1064 17.9748 39.2591 17.9884C39.7482 18.0316 40.1044 18.1839 40.4205 18.4528C40.6906 18.6826 40.8768 19.0007 40.9531 19.347C41.0349 19.7187 41.0237 20.0705 40.9232 20.4992C40.6009 21.8718 39.5502 23.1783 38.3512 23.9447C38.2829 23.9883 38.2221 24.0613 38.1585 24.1115C37.9963 24.2392 37.7657 24.1057 37.627 23.9528C36.8997 23.1515 35.7989 22.0114 35.7611 21.036C35.7303 20.2454 36.3186 19.5272 36.9307 18.9115Z" fill="black"/>
<path d="M43.5663 10.7187L34.0578 15.9052C34.582 14.6142 34.8259 13.8978 34.0578 12.7933L34.0092 12.7455C33.1855 11.9365 32.709 11.4684 31.6374 10.7187C28.6655 9.25007 26.8605 8.94596 23.1662 8.98988V0L43.5663 10.7187Z" fill="black"/>
<path d="M2.76609 10.7187L12.2746 15.9052C11.7504 14.6142 11.5065 13.8978 12.2746 12.7933L12.3232 12.7455C13.1469 11.9365 13.6234 11.4684 14.695 10.7187C17.6669 9.25007 19.4719 8.94596 23.1662 8.98988V0L2.76609 10.7187Z" fill="black"/>
</svg>
