<svg width="152" height="64" viewBox="0 0 152 64" fill="none" xmlns="http://www.w3.org/2000/svg">
<path d="M21.8456 17.375L13.6943 19.0052V13.2994C15.9071 11.5242 17.5964 10.8388 21.8456 10.691V17.375Z" fill="#4B68CB"/>
<path d="M21.8453 17.375L29.9966 19.0052V13.2994C27.7838 11.5242 26.0946 10.8388 21.8453 10.691V17.375Z" fill="#4B68CB"/>
<path d="M9.23755 60.5857C16.1145 64.3174 21.8452 63.9929 21.8452 63.9929V17.4279C21.1954 17.3203 18.8124 17.4344 16.6284 18.027C14.429 18.6238 12.4307 19.6994 12.3485 19.6994C12.1848 19.6994 10.3837 17.7524 9.89249 17.2657C9.40128 16.779 8.41887 15.9677 7.27271 15.8055C6.12656 15.6432 6.12656 15.8055 5.14415 16.2922C4.16173 16.779 3.83426 17.5902 3.34305 18.7259C2.85184 19.8617 3.17932 20.9974 4.4892 22.6199C5.79909 24.2423 6.78151 25.0536 6.78151 25.0536C6.78151 25.0536 2.38231 31.069 2.05243 31.5581C1.72255 32.0471 1.22773 33.8404 1.22773 33.8404C1.22773 33.8404 2.36064 32.6992 2.54725 32.5362C2.73386 32.3732 3.998 31.7057 3.998 31.7057C3.998 31.7057 1.06279 36.2858 0.732908 36.9379C0.403028 37.59 0.0731487 39.3833 0.0731487 39.3833C0.0731487 39.3833 0.897848 37.916 1.29635 37.4655C1.69485 37.0149 3.01558 35.7619 3.01558 35.7619C3.01558 35.7619 1.72328 37.5437 0.897848 39.2202C0.321033 40.3918 0.140997 41.5604 0.0731487 41.8286C-0.0917912 42.4807 0.0731487 43.948 0.0731487 43.948C0.0731487 43.948 0.238089 43.1328 0.461548 42.4807C0.685005 41.8286 0.732908 41.5026 1.06279 41.0135C1.39267 40.5244 2.36063 39.6558 2.36063 39.6558C2.36063 39.6558 0.723276 49.8774 1.21449 52.3111C1.70569 54.7448 2.36064 56.854 9.23755 60.5857Z" fill="#D3AC93"/>
<path d="M9.96954 50.7941C8.1552 49.816 5.02135 46.0664 5.02135 46.0664C5.02135 46.0664 4.69147 48.5118 5.35122 50.142C6.01098 51.7723 7.3305 53.4025 8.1552 54.3807C8.9799 55.3588 9.30978 55.8479 10.7942 56.663C12.2787 57.4782 15.0827 58.2933 15.0827 58.2933C15.0827 58.2933 14.9177 56.0109 15.4126 55.8479C15.9074 55.6849 17.3918 56.8261 18.5464 57.4782C19.701 58.1303 21.8452 61.2277 21.8452 61.2277V53.4025C21.8452 53.4025 19.5361 53.2395 18.5464 53.2395C17.5568 53.2395 11.7839 51.7723 9.96954 50.7941Z" fill="#B48768"/>
<path d="M12.4033 23.8042C12.288 23.6833 12.1298 23.6097 11.9628 23.6053C11.4557 23.5912 11.0454 23.691 10.6842 24.0572C10.0528 24.6969 11.2486 25.2375 11.4957 25.8279C11.6393 26.1715 11.6359 26.6882 11.6278 27.1336C11.623 27.3972 11.6741 27.6696 11.8558 27.8606C12.1093 28.127 12.429 28.2422 12.8071 28.3867C12.876 28.4131 12.9414 28.4476 13.0079 28.4793C13.0914 28.5191 13.177 28.547 13.2644 28.5684C13.5675 28.6426 13.9339 28.5024 13.9269 28.1905C13.8895 26.5147 13.5597 25.0155 12.4033 23.8042Z" fill="black"/>
<path d="M8.92846 18.3162C8.42415 17.8007 7.76269 17.4207 7.04271 17.3794C6.91309 17.3719 6.78735 17.3717 6.67007 17.3822C6.22634 17.4214 5.8986 17.5558 5.60891 17.7917C5.32689 18.0215 5.135 18.35 5.0636 18.7066C4.9966 19.0413 5.01006 19.3623 5.1009 19.7498C5.40479 21.0441 6.39556 22.2762 7.52623 22.9988C7.59062 23.04 7.64793 23.1088 7.70796 23.1561C7.86087 23.2766 8.07831 23.1507 8.20914 23.0065C8.89496 22.2509 9.93298 21.1758 9.96863 20.256C9.99663 19.5375 9.48244 18.8825 8.92846 18.3162Z" fill="black"/>
<path d="M34.4529 60.5857C27.576 64.3174 21.8452 63.9929 21.8452 63.9929V17.4279C22.495 17.3203 24.8781 17.4344 27.062 18.027C29.2614 18.6238 31.2597 19.6994 31.3419 19.6994C31.5056 19.6994 33.3067 17.7524 33.7979 17.2657C34.2891 16.779 35.2716 15.9677 36.4177 15.8055C37.5639 15.6432 37.5639 15.8055 38.5463 16.2922C39.5287 16.779 39.8562 17.5902 40.3474 18.7259C40.8386 19.8617 40.5111 20.9974 39.2012 22.6199C37.8913 24.2423 36.9089 25.0536 36.9089 25.0536C36.9089 25.0536 41.3081 31.069 41.638 31.5581C41.9679 32.0471 42.4627 33.8404 42.4627 33.8404C42.4627 33.8404 41.3298 32.6992 41.1432 32.5362C40.9566 32.3732 39.6924 31.7057 39.6924 31.7057C39.6924 31.7057 42.6276 36.2858 42.9575 36.9379C43.2874 37.59 43.6173 39.3833 43.6173 39.3833C43.6173 39.3833 42.7926 37.916 42.3941 37.4655C41.9956 37.0149 40.6749 35.7619 40.6749 35.7619C40.6749 35.7619 41.9672 37.5437 42.7926 39.2202C43.3694 40.3918 43.5494 41.5604 43.6173 41.8286C43.7822 42.4807 43.6173 43.948 43.6173 43.948C43.6173 43.948 43.4523 43.1328 43.2289 42.4807C43.0054 41.8286 42.9575 41.5026 42.6276 41.0135C42.2978 40.5244 41.3298 39.6558 41.3298 39.6558C41.3298 39.6558 42.9672 49.8774 42.4759 52.3111C41.9847 54.7448 41.3298 56.854 34.4529 60.5857Z" fill="#D3AC93"/>
<path d="M33.7209 50.7941C35.5352 49.816 38.6691 46.0664 38.6691 46.0664C38.6691 46.0664 38.999 48.5118 38.3392 50.142C37.6794 51.7723 36.3599 53.4025 35.5352 54.3807C34.7105 55.3588 34.3806 55.8479 32.8962 56.663C31.4117 57.4782 28.6078 58.2933 28.6078 58.2933C28.6078 58.2933 28.7727 56.0109 28.2779 55.8479C27.7831 55.6849 26.2986 56.8261 25.144 57.4782C23.9894 58.1303 21.8452 61.2277 21.8452 61.2277V53.4025C21.8452 53.4025 24.1544 53.2395 25.144 53.2395C26.1337 53.2395 31.9065 51.7723 33.7209 50.7941Z" fill="#B48768"/>
<path d="M29.3184 48.2915L29.5761 48.0935C29.9174 47.8311 30.2088 47.5095 30.4363 47.144L30.9061 46.3895C31.241 45.8516 31.4865 45.2631 31.6333 44.6467L31.8245 43.8434C31.9878 43.1574 32.0262 42.4475 31.9377 41.7479L31.8153 40.7802C31.7663 40.3927 31.6787 40.0111 31.5539 39.641L31.1243 38.3672C30.9865 37.9584 30.8039 37.5661 30.5801 37.1972L29.8703 36.0281C29.5799 35.5497 29.2225 35.1152 28.8091 34.738L27.6761 33.7044C27.418 33.4689 27.1402 33.2544 26.8398 33.0761C25.1636 32.0814 24.0009 31.7716 21.8452 31.7202V47.0446L26.8863 48.7054C27.1526 48.7931 27.4311 48.8378 27.7114 48.8378C28.2926 48.8378 28.8576 48.6458 29.3184 48.2915Z" fill="#845540"/>
<path d="M14.4912 48.2915L14.2335 48.0935C13.8922 47.8311 13.6008 47.5095 13.3733 47.144L12.9035 46.3895C12.5686 45.8516 12.323 45.2631 12.1763 44.6467L11.9851 43.8434C11.8217 43.1574 11.7834 42.4475 11.8719 41.7479L11.9943 40.7802C12.0433 40.3927 12.1308 40.0111 12.2556 39.641L12.6852 38.3672C12.8231 37.9584 13.0056 37.5661 13.2295 37.1972L13.9392 36.0281C14.2297 35.5497 14.587 35.1152 15.0005 34.738L16.1334 33.7044C16.3915 33.4689 16.6694 33.2544 16.9698 33.0761C18.646 32.0814 19.8087 31.7716 21.9644 31.7202V47.0446L16.9233 48.7054C16.657 48.7931 16.3785 48.8378 16.0982 48.8378C15.5169 48.8378 14.952 48.6458 14.4912 48.2915Z" fill="#845540"/>
<path d="M24.2863 37.6223L23.5988 38.3019C23.4206 38.478 23.2721 38.6818 23.159 38.9053L23.1413 38.9404C23.0476 39.1257 22.9823 39.3241 22.9478 39.5288L22.8635 40.0286C22.845 40.1387 22.8622 40.2518 22.9125 40.3514C23.0491 40.6213 23.3854 40.7193 23.6456 40.5651L23.9895 40.3611L25.1407 39.8439C25.5776 39.6476 25.9664 39.3585 26.2802 38.9967L26.6641 38.554C26.7492 38.4559 26.8101 38.3392 26.8419 38.2133C26.9141 37.9279 26.8299 37.6256 26.6205 37.4187L26.5745 37.3732C26.3978 37.1985 26.1594 37.1006 25.9109 37.1006H25.5565C25.0809 37.1006 24.6246 37.2881 24.2863 37.6223Z" fill="black"/>
<path d="M19.5232 37.6223L20.2108 38.3019C20.3889 38.478 20.5375 38.6818 20.6505 38.9053L20.6683 38.9404C20.762 39.1257 20.8272 39.3241 20.8618 39.5288L20.946 40.0286C20.9646 40.1387 20.9474 40.2518 20.897 40.3514C20.7605 40.6213 20.4241 40.7193 20.164 40.5651L19.82 40.3611L18.6689 39.8439C18.232 39.6476 17.8431 39.3585 17.5293 38.9967L17.1454 38.554C17.0604 38.4559 16.9995 38.3392 16.9676 38.2133C16.8954 37.9279 16.9797 37.6256 17.1891 37.4187L17.2351 37.3732C17.4118 37.1985 17.6502 37.1006 17.8987 37.1006H18.2531C18.7286 37.1006 19.185 37.2881 19.5232 37.6223Z" fill="black"/>
<path d="M31.2876 23.8042C31.403 23.6833 31.5611 23.6097 31.7282 23.6053C32.2352 23.5912 32.6455 23.691 33.0068 24.0572C33.6381 24.6969 32.4423 25.2375 32.1952 25.8279C32.0516 26.1715 32.055 26.6882 32.0631 27.1336C32.0679 27.3972 32.0169 27.6696 31.8351 27.8606C31.5816 28.127 31.262 28.2422 30.8838 28.3867C30.8149 28.4131 30.7495 28.4476 30.683 28.4793C30.5995 28.5191 30.5139 28.547 30.4265 28.5684C30.1234 28.6426 29.757 28.5024 29.764 28.1905C29.8014 26.5147 30.1312 25.0155 31.2876 23.8042Z" fill="black"/>
<path d="M34.7625 18.3162C35.2668 17.8007 35.9282 17.4207 36.6482 17.3794C36.7778 17.3719 36.9036 17.3717 37.0209 17.3822C37.4646 17.4214 37.7923 17.5558 38.082 17.7917C38.364 18.0215 38.5559 18.35 38.6273 18.7066C38.6943 19.0413 38.6809 19.3623 38.59 19.7498C38.2861 21.0441 37.2954 22.2762 36.1647 22.9988C36.1003 23.04 36.043 23.1088 35.983 23.1561C35.83 23.2766 35.6126 23.1507 35.4818 23.0065C34.796 22.2509 33.7579 21.1758 33.7223 20.256C33.6943 19.5375 34.2085 18.8825 34.7625 18.3162Z" fill="black"/>
<path d="M41.0822 10.5275L32.1158 15.4182C32.6101 14.2009 32.8402 13.5253 32.1158 12.4838L32.07 12.4388C31.2933 11.6759 30.8439 11.2344 29.8334 10.5275C27.031 9.14258 25.3288 8.85581 21.8452 8.89722V0.419922L41.0822 10.5275Z" fill="#4B68CB"/>
<path d="M2.60826 10.5275L11.5746 15.4182C11.0803 14.2009 10.8503 13.5253 11.5746 12.4838L11.6205 12.4388C12.3971 11.6759 12.8465 11.2344 13.857 10.5275C16.6595 9.14258 18.3616 8.85581 21.8452 8.89722V0.419922L2.60826 10.5275Z" fill="#4B68CB"/>
<path d="M57.7891 43.71V19.9484H62.3136V43.71H57.7891ZM61.6626 43.71V39.8039H72.4367V43.71H61.6626ZM61.6626 33.5869V29.6809H71.5904V33.5869H61.6626ZM61.6626 23.8544V19.9484H72.1763V23.8544H61.6626ZM83.7318 44.2959C82.4949 44.2959 81.3557 44.068 80.3141 43.6123C79.2724 43.1566 78.3719 42.5165 77.6124 41.6919C76.8529 40.8672 76.267 39.9124 75.8547 38.8274C75.4424 37.7207 75.2362 36.5272 75.2362 35.2469V34.5634C75.2362 33.3048 75.4315 32.1221 75.8221 31.0154C76.2344 29.9087 76.7986 28.943 77.5147 28.1184C78.2525 27.2938 79.1314 26.6537 80.1513 26.198C81.1929 25.7206 82.343 25.4819 83.6016 25.4819C84.9904 25.4819 86.2056 25.7857 87.2472 26.3933C88.3105 26.9792 89.1568 27.8689 89.7861 29.0624C90.4154 30.2559 90.7626 31.7532 90.8277 33.5543L89.4932 31.9919V19.9484H94.0177V43.71H90.4371V36.1909H91.2183C91.1532 37.992 90.7843 39.5001 90.1116 40.7153C89.4389 41.9089 88.5492 42.8094 87.4425 43.417C86.3575 44.0029 85.1206 44.2959 83.7318 44.2959ZM84.7409 40.4875C85.6306 40.4875 86.4443 40.2922 87.1821 39.9016C87.9199 39.4893 88.5058 38.9034 88.9398 38.1439C89.3955 37.3627 89.6234 36.4513 89.6234 35.4097V34.1077C89.6234 33.0661 89.3955 32.1981 88.9398 31.5037C88.4841 30.7876 87.8874 30.2451 87.1496 29.8762C86.4118 29.4856 85.6089 29.2902 84.7409 29.2902C83.7644 29.2902 82.8964 29.529 82.1369 30.0064C81.3991 30.4621 80.8132 31.1131 80.3792 31.9594C79.9668 32.8057 79.7607 33.793 79.7607 34.9214C79.7607 36.0498 79.9777 37.0372 80.4117 37.8835C80.8457 38.7081 81.4316 39.3482 82.1694 39.8039C82.9289 40.2596 83.7861 40.4875 84.7409 40.4875ZM105.189 44.2633C103.15 44.2633 101.566 43.5906 100.437 42.2452C99.3304 40.8998 98.7771 38.9034 98.7771 36.256V26.0027H103.302V36.6466C103.302 37.7316 103.605 38.5996 104.213 39.2506C104.821 39.8799 105.645 40.1945 106.687 40.1945C107.728 40.1945 108.575 39.8582 109.226 39.1855C109.898 38.5128 110.235 37.6014 110.235 36.4513V26.0027H114.759V43.71H111.179V36.1909H111.537C111.537 37.9703 111.309 39.4567 110.853 40.6502C110.397 41.8438 109.714 42.7443 108.803 43.3519C107.891 43.9595 106.752 44.2633 105.385 44.2633H105.189ZM127.801 44.3284C126.26 44.3284 124.926 44.068 123.797 43.5472C122.691 43.0264 121.758 42.332 120.998 41.464C120.26 40.596 119.707 39.6195 119.338 38.5345C118.969 37.4495 118.785 36.3428 118.785 35.2144V34.5959C118.785 33.4024 118.969 32.2632 119.338 31.1782C119.729 30.0715 120.304 29.0949 121.063 28.2486C121.823 27.3806 122.756 26.6971 123.863 26.198C124.991 25.6772 126.293 25.4168 127.769 25.4168C129.309 25.4168 130.687 25.7206 131.902 26.3282C133.118 26.9141 134.083 27.7387 134.799 28.802C135.537 29.8653 135.95 31.1022 136.036 32.5127H131.642C131.534 31.6013 131.143 30.8418 130.47 30.2342C129.819 29.6266 128.919 29.3228 127.769 29.3228C126.77 29.3228 125.935 29.5615 125.262 30.0389C124.611 30.5163 124.123 31.1782 123.797 32.0245C123.472 32.8491 123.309 33.8039 123.309 34.8889C123.309 35.9305 123.461 36.8744 123.765 37.7207C124.09 38.567 124.579 39.2289 125.23 39.7063C125.902 40.1837 126.76 40.4224 127.801 40.4224C128.582 40.4224 129.255 40.2813 129.819 39.9992C130.383 39.7171 130.828 39.3265 131.154 38.8274C131.501 38.3283 131.718 37.7641 131.805 37.1348H136.199C136.112 38.567 135.689 39.8256 134.93 40.9106C134.192 41.974 133.204 42.8094 131.968 43.417C130.752 44.0246 129.364 44.3284 127.801 44.3284ZM147.505 43.9378C145.878 43.9378 144.533 43.7317 143.469 43.3194C142.428 42.8854 141.646 42.1693 141.126 41.1711C140.605 40.1511 140.344 38.784 140.344 37.0697L140.377 21.0551H144.608L144.576 37.3627C144.576 38.2307 144.804 38.9034 145.259 39.3808C145.737 39.8365 146.41 40.0643 147.278 40.0643H150.044V43.9378H147.505ZM137.545 29.3554V26.0352H150.044V29.3554H137.545Z" fill="#0C132B"/>
</svg>
