<svg width="200" height="200" viewBox="0 0 200 200" fill="none" xmlns="http://www.w3.org/2000/svg">
<g clip-path="url(#clip0_1167_882)">
<path d="M0 -0.00012207H200V200H0V-0.00012207Z" fill="white"/>
<path d="M103.631 14.889C105.025 14.8438 106.449 14.914 107.839 15.0156C118.377 15.7855 129.427 19.8379 136.473 28.0088C142.898 35.4586 146.03 45.2411 145.909 55.0327C145.866 58.493 145.378 61.9559 145.007 65.392C144.586 69.292 144.238 73.2053 143.777 77.0999C143.395 80.321 142.886 83.5405 142.644 86.776C145.241 87.3198 147.836 87.7877 150.422 88.3977C151.493 88.65 152.648 88.8575 153.659 89.2932C154.153 89.5059 154.659 89.8178 154.98 90.2602C155.267 90.6565 155.465 91.1932 155.665 91.6444C156.761 94.1079 157.341 96.619 157.421 99.3137C157.553 103.73 156.799 108.233 156.301 112.618L154.377 129.852L151.564 154.885C151.231 157.61 150.973 160.34 150.544 163.054C150.476 163.506 150.392 163.954 150.291 164.4C150.191 164.846 150.075 165.287 149.942 165.725C149.81 166.162 149.662 166.594 149.498 167.021C149.334 167.447 149.155 167.867 148.961 168.281C146.539 173.374 141.568 178.253 137.011 181.53C135.218 182.819 132.86 184.34 130.696 184.85C127.936 185.5 124.77 185.128 121.964 184.958C118.631 184.78 115.305 184.507 111.988 184.138C108.67 183.769 105.366 183.305 102.075 182.746C89.3758 180.447 78.6336 177.27 67.0394 171.505C64.2644 170.144 61.5423 168.685 58.873 167.127C56.2037 165.569 53.5943 163.917 51.0447 162.17C48.7832 160.636 45.9781 158.746 44.2277 156.637C43.6619 155.956 43.2773 155.21 43.0025 154.372C42.4693 152.746 42.6361 150.787 42.6865 149.09C42.8039 145.132 43.1455 141.151 43.4148 137.201L44.9711 114.944L45.966 98.0948C46.1511 95.1969 46.2855 92.2811 46.6562 89.3999C46.9521 87.1008 47.4328 84.869 48.4935 82.7909C51.3558 77.1829 57.2933 72.5778 63.2693 70.6567C63.483 68.8586 63.5404 67.0131 63.6675 65.2045C63.9685 60.9286 64.2281 56.6284 64.7234 52.3708C65.8293 42.8645 69.5377 33.4166 76.1353 26.3864C83.2463 18.8088 93.4115 15.2005 103.631 14.889Z" fill="#4B68CB"/>
<path d="M51.842 82.8118C56.8412 85.0536 61.9301 87.0689 67.1088 88.8577C75.3617 91.668 83.9014 93.804 92.3834 95.7907C99.5313 97.4813 106.707 99.0448 113.91 100.481C121.033 101.891 128.163 103.584 135.396 104.336C137.498 104.554 139.615 104.581 141.725 104.669C141.204 105.175 140.679 105.652 140.112 106.104C139.857 106.29 139.559 106.426 139.281 106.572C132.789 106.382 126.203 104.961 119.827 103.826C103.109 100.851 86.5998 97.2413 70.3785 92.1735C65.3391 90.6468 60.3945 88.8579 55.5449 86.8067C53.8977 86.1235 52.1895 85.5075 50.5996 84.6991C50.9902 84.0495 51.3984 83.4264 51.842 82.8118Z" fill="white"/>
<path d="M62.9568 73.7303C63.1611 75.3348 62.7732 77.5368 62.6195 79.1548C62.5625 79.7542 62.4519 80.429 62.547 81.027C62.5939 81.3204 62.7293 81.5745 62.9105 81.8065C64.1064 83.3374 67.9424 84.4135 69.8219 84.6516C71.9621 84.9229 75.8795 84.7227 77.6144 83.3032C77.8715 83.0928 78.0744 82.8493 78.1769 82.5311C78.5844 81.2694 78.7386 76.838 78.8961 75.196C89.0161 77.6042 99.1757 79.832 109.375 81.8794C114.609 82.998 119.854 84.0576 125.112 85.0583L124.511 90.8643C124.388 91.9704 124.011 93.4057 124.161 94.4864C124.23 94.9852 124.556 95.5134 124.844 95.9137C126.269 97.8954 128.938 98.8065 131.249 99.1643C134.608 99.6842 138.337 99.4075 141.152 97.3409C141.788 95.1831 141.862 92.0714 142.344 89.7163C145.303 90.1738 148.233 90.7751 151.134 91.52L151.914 91.8003C150.629 95.3112 147.309 99.9932 143.858 101.559C141.949 102.425 133.048 101.246 130.647 100.871C125.081 100 119.539 98.7526 114.023 97.6085C106.919 96.1755 99.8394 94.6328 92.7836 92.9802C85.3825 91.1885 78.0305 89.214 70.7275 87.0567C64.7933 85.2403 59.2013 82.6792 53.389 80.5534C55.84 77.4497 59.364 75.2704 62.9568 73.7303Z" fill="white"/>
<path d="M153.756 94.8967C153.777 94.9266 153.801 94.9541 153.818 94.9864C154.511 96.3446 154.568 99.5334 154.504 101.075C154.375 104.131 153.954 107.211 153.638 110.255L151.39 130.517C150.633 138.441 149.747 146.35 148.732 154.245C148.314 157.603 148.101 161.093 147.334 164.391C145.953 170.329 138.844 177.204 133.79 180.364C133.595 180.482 133.434 180.559 133.214 180.621L133.113 180.497C133.891 175.257 134.165 169.913 134.773 164.649L136.651 147.706C137.336 142.025 138.153 136.355 138.741 130.663L140.177 117.501C140.479 114.666 140.67 111.77 141.132 108.957C142.173 107.616 143.534 106.444 144.762 105.268C148.196 101.981 151.326 99.0514 153.756 94.8967Z" fill="white"/>
<path d="M151.759 101.364C151.904 101.385 152.058 101.402 152.199 101.444C152.441 101.517 152.518 101.596 152.646 101.807C152.642 102.065 152.625 102.201 152.468 102.412C151.968 103.086 151.118 103.636 150.472 104.172C148.45 105.849 146.195 107.443 144.39 109.352C144.109 109.322 143.872 109.27 143.601 109.189C143.422 108.988 143.421 108.956 143.381 108.688C143.553 108.359 143.918 108.082 144.194 107.84C145.363 106.812 146.638 105.906 147.813 104.884C148.976 103.872 150.511 102.087 151.759 101.364Z" fill="#4B68CB"/>
<path d="M149.902 124.414C150.143 124.467 150.389 124.53 150.578 124.702C150.783 124.889 150.763 124.992 150.754 125.243C149.989 126.13 143.317 130.763 141.927 131.544C141.756 131.528 141.487 131.505 141.338 131.401C141.113 131.244 141.094 131.157 141.043 130.908C141.122 130.683 141.119 130.594 141.307 130.436C142.263 129.631 143.462 129.011 144.489 128.282C146.276 127.014 148.02 125.523 149.902 124.414Z" fill="#4B68CB"/>
<path d="M150.58 117.163C150.806 117.207 151.058 117.317 151.199 117.513C151.359 117.735 151.323 117.831 151.293 118.086C150.655 119.133 143.42 123.317 141.822 124.021C141.586 124.019 141.397 124.003 141.221 123.821C141.04 123.635 141.047 123.522 141.045 123.283C141.153 123.04 141.268 122.946 141.486 122.791C142.502 122.07 143.67 121.529 144.723 120.858C146.613 119.654 148.534 118.056 150.58 117.163Z" fill="#4B68CB"/>
<path d="M150.558 120.581C150.828 120.645 151.072 120.714 151.245 120.953C151.335 121.076 151.376 121.221 151.347 121.368C151.3 121.614 151.18 121.738 150.995 121.899C150.146 122.634 149.071 123.209 148.132 123.828C145.985 125.27 143.814 126.677 141.62 128.048C141.589 128.05 141.559 128.055 141.528 128.053C141.333 128.04 141.074 127.873 140.97 127.704C140.837 127.49 140.869 127.41 140.919 127.182C141.647 126.336 149.277 121.225 150.558 120.581Z" fill="#4B68CB"/>
<path d="M150.827 113.168C151.244 113.173 151.498 113.235 151.803 113.529C151.837 113.673 151.883 113.76 151.833 113.907C151.72 114.246 151.414 114.498 151.147 114.721C150.009 115.671 148.652 116.466 147.42 117.296C145.81 118.381 144.217 119.557 142.533 120.518C142.486 120.534 142.441 120.556 142.393 120.567C142.097 120.634 142.032 120.605 141.78 120.467C141.694 120.332 141.57 120.231 141.605 120.064C141.677 119.723 142.036 119.437 142.289 119.223C143.604 118.108 145.158 117.152 146.568 116.151C147.967 115.158 149.345 114.027 150.827 113.168Z" fill="#4B68CB"/>
<path d="M151.736 105.345C151.947 105.375 152.174 105.476 152.339 105.613C152.543 105.783 152.577 105.905 152.6 106.158C151.961 107.408 144.925 112.302 143.327 113.343C143.158 113.324 143.02 113.271 142.875 113.18C142.654 113.042 142.582 112.866 142.518 112.629C142.731 111.967 150.839 105.95 151.736 105.345Z" fill="#4B68CB"/>
<path d="M144.95 163.933C145.18 163.962 145.412 163.991 145.562 164.197C145.702 164.39 145.758 164.581 145.694 164.815C145.612 165.117 145.219 165.466 145.006 165.694C143.348 167.469 141.55 169.129 139.848 170.866C138.826 171.909 137.29 173.823 136.141 174.579C136.048 174.571 135.924 174.565 135.836 174.54C135.57 174.464 135.506 174.392 135.358 174.179C135.37 173.968 135.358 173.873 135.48 173.696C136.535 172.168 138.854 170.135 140.225 168.766C141.819 167.175 143.337 165.502 144.95 163.933Z" fill="#4B68CB"/>
<path d="M146.348 159.933L146.664 160.121C146.821 160.4 146.871 160.468 146.871 160.798C146.369 161.756 143.447 163.932 142.469 164.813C141.319 165.849 140.164 166.924 139.084 168.032C138.296 168.841 137.197 170.507 136.318 171.017C136.07 170.924 135.933 170.824 135.734 170.657C135.687 170.496 135.64 170.447 135.701 170.282C136.174 168.988 144.954 160.562 146.348 159.933Z" fill="#4B68CB"/>
<path d="M151.564 108.878C151.861 108.859 152.013 108.901 152.262 109.065C152.314 109.21 152.383 109.302 152.338 109.458C152.009 110.599 144.223 116.387 142.913 117.153C142.556 117.131 142.365 117.065 142.079 116.862C142.028 116.757 141.953 116.675 141.983 116.554C142.179 115.768 150.389 109.53 151.564 108.878Z" fill="#4B68CB"/>
<path d="M148.297 133.882C148.488 133.878 148.666 133.867 148.851 133.926C149.165 134.026 149.308 134.186 149.43 134.48C149.363 134.778 149.29 134.891 149.065 135.101C148.259 135.855 147.257 136.491 146.361 137.141C143.981 138.866 141.531 140.497 139.135 142.202C139.01 142.251 138.879 142.311 138.74 142.289C138.599 142.266 138.369 142.119 138.287 141.999C138.206 141.882 138.155 141.773 138.189 141.632C138.236 141.436 138.345 141.296 138.493 141.165C139.865 139.942 141.556 138.884 143.039 137.792C144.795 136.501 146.492 135.101 148.297 133.882Z" fill="#4B68CB"/>
<path d="M148.3 137.877C148.382 137.878 148.465 137.879 148.547 137.884C148.84 137.903 149.142 138.075 149.31 138.315C149.399 138.442 149.363 138.484 149.345 138.624C148.529 139.754 146.958 140.719 145.858 141.607C143.572 143.45 141.343 145.361 138.928 147.038C138.852 147.072 138.701 147.146 138.623 147.162C138.4 147.205 138.285 147.075 138.12 146.955C138.055 146.811 137.995 146.754 138.032 146.59C138.104 146.259 138.357 146.009 138.595 145.782C139.499 144.92 140.613 144.205 141.578 143.397C143.765 141.565 145.925 139.441 148.3 137.877Z" fill="#4B68CB"/>
<path d="M149.518 128.507C149.894 128.619 150.109 128.718 150.394 128.994C150.437 129.117 150.51 129.233 150.478 129.366C150.285 130.177 142.016 136.481 140.771 137.145C140.543 137.185 140.31 137.25 140.105 137.094C139.908 136.944 139.922 136.844 139.906 136.619C140.019 136.312 140.162 136.15 140.403 135.931C141.621 134.815 143.008 133.831 144.286 132.777C145.48 131.793 148.353 129.053 149.518 128.507Z" fill="#4B68CB"/>
<path d="M147.311 142.482C147.545 142.47 147.88 142.456 148.098 142.555C148.346 142.668 148.352 142.738 148.431 142.978C148.392 143.208 148.332 143.329 148.17 143.5C147.371 144.344 146.305 145.087 145.407 145.838C142.889 147.943 140.312 149.97 137.744 152.014L137.409 152.191C137.185 152.135 137.165 152.105 137.029 151.925C136.924 151.785 136.865 151.566 136.919 151.394C137.058 150.949 146.319 143.055 147.311 142.482Z" fill="#4B68CB"/>
<path d="M147.752 146.163C147.945 146.203 148.077 146.257 148.225 146.398C148.407 146.572 148.435 146.745 148.443 146.984C148.172 147.868 138.458 155.616 137.097 156.539C136.958 156.492 136.73 156.394 136.626 156.296C136.44 156.121 136.447 156.028 136.443 155.795C137.021 154.878 141 151.815 142.137 150.834C143.699 149.487 145.205 148.04 146.815 146.753C147.108 146.519 147.419 146.334 147.752 146.163Z" fill="#4B68CB"/>
<path d="M146.701 155.138C147.102 155.287 147.382 155.578 147.696 155.858C146.305 157.366 144.685 158.666 143.228 160.11C140.941 162.376 138.438 165.26 135.947 167.214C135.738 167.311 135.526 167.326 135.3 167.353L135.166 167.224C135.168 167.156 135.169 167.089 135.175 167.021C135.21 166.62 135.425 166.359 135.669 166.055C136.717 164.751 138.078 163.556 139.253 162.357C141.641 159.921 144.052 157.288 146.701 155.138Z" fill="#4B68CB"/>
<path d="M146.697 150.863C147 150.869 147.344 150.993 147.563 151.211C147.753 151.401 147.754 151.472 147.758 151.721C147.28 152.42 146.028 153.255 145.375 153.862C143.831 155.298 142.346 156.798 140.794 158.226C139.336 159.567 137.814 160.827 136.398 162.216C136.388 162.221 136.379 162.228 136.368 162.23C136.144 162.276 135.96 162.217 135.782 162.07C135.574 161.899 135.541 161.716 135.506 161.466C136.005 160.588 145.483 151.641 146.697 150.863Z" fill="#4B68CB"/>
<path d="M102.746 17.7165C109.021 17.2753 116.607 18.8397 122.371 21.2993C122.618 21.4031 122.864 21.5098 123.108 21.6196C123.353 21.7294 123.596 21.8422 123.838 21.9581C124.079 22.0738 124.32 22.1926 124.558 22.3143C124.797 22.4361 125.034 22.5607 125.27 22.6883C125.506 22.8159 125.74 22.9464 125.972 23.0797C126.205 23.2131 126.435 23.3493 126.665 23.4883C126.894 23.6274 127.121 23.7693 127.347 23.9139C127.572 24.0587 127.796 24.2062 128.018 24.3563C128.24 24.5066 128.46 24.6595 128.678 24.8151C128.897 24.9707 129.113 25.129 129.327 25.2899C129.541 25.451 129.754 25.6146 129.964 25.7807C130.174 25.947 130.382 26.1157 130.588 26.287C130.794 26.4583 130.998 26.6322 131.2 26.8087C131.402 26.9851 131.601 27.1639 131.799 27.3452C131.996 27.5264 132.191 27.7102 132.384 27.8963C132.577 28.0824 132.768 28.2709 132.956 28.4618C133.144 28.6525 133.33 28.8456 133.513 29.0411C133.697 29.2365 133.878 29.4342 134.056 29.634C134.235 29.8339 134.411 30.0359 134.584 30.2401C134.758 30.4444 134.929 30.6508 135.097 30.8592C135.266 31.0676 135.432 31.2781 135.595 31.4907C135.758 31.7032 135.919 31.9177 136.077 32.1342C136.235 32.3506 136.39 32.5691 136.543 32.7895C136.695 33.0098 136.845 33.232 136.992 33.4559C137.139 33.68 137.284 33.9059 137.425 34.1335C137.567 34.3611 137.705 34.5904 137.841 34.8213C137.977 35.0523 138.11 35.285 138.24 35.5192C138.371 35.7536 138.498 35.9894 138.622 36.2268C138.746 36.4643 138.868 36.7033 138.986 36.9438C139.104 37.1842 139.22 37.426 139.332 37.6694C139.445 37.9126 139.554 38.1572 139.661 38.4032C139.767 38.6491 139.87 38.8964 139.971 39.145C141.895 43.9571 142.749 49.2426 142.911 54.4083C142.954 55.4826 142.932 56.5557 142.845 57.6274C142.718 59.1671 142.497 60.6999 142.347 62.2376C141.471 70.8919 140.497 79.5351 139.423 88.1672C139.254 89.6016 138.979 94.5528 138.548 95.4647C138.413 95.7506 138.276 95.8676 137.987 95.9815C137.716 95.8538 137.605 95.7196 137.558 95.4108C137.454 94.7305 138.133 91.934 138.241 90.9274C138.932 83.9864 139.666 77.05 140.443 70.1182C140.776 67.1105 141.071 64.0991 141.328 61.0838C141.492 59.2454 141.697 57.4026 141.73 55.5561C141.783 52.5571 141.403 45.87 140.178 43.1842C140.006 42.8075 139.733 42.3778 139.3 42.2768C139.076 42.2243 138.805 42.2991 138.618 42.4278C137.891 42.929 138.686 45.0965 138.84 45.8659C139.462 48.9686 139.73 52.2354 139.675 55.3987C139.602 59.6587 139.081 63.8987 138.627 68.1301C138.099 73.3934 137.529 78.6522 136.918 83.9065L136.281 90.0424C136.183 90.9715 136.182 92.1456 135.885 93.0192C135.798 93.2745 135.736 93.3301 135.496 93.4401C134.666 93.2073 134.193 91.8227 133.892 91.092C133.299 89.6487 132.248 87.061 132.096 85.586C132.015 84.7917 132.347 83.7813 132.455 82.9758C132.684 81.2762 132.87 79.5684 133.079 77.8661L134.35 67.1651C134.66 64.4897 135.03 61.8169 135.134 59.1231C135.404 52.1026 134.008 44.6141 129.98 38.7456C125.055 31.5694 117.621 28.021 109.3 26.4655C106.037 26.0604 102.794 25.8672 99.5074 26.1383C94.5342 26.5487 89.9734 28.4551 85.9697 31.385C74.6883 39.6403 74.1838 52.3235 73.0256 65.003C72.8629 66.7837 72.6982 71.4192 72.1908 72.7901C71.9061 73.5594 71.1488 74.2829 70.6219 74.9065C71.1621 67.4296 71.6717 59.9758 72.9932 52.585C73.5561 49.4374 74.1986 46.3372 75.2627 43.3145C77.1662 37.9071 80.7961 32.8639 85.5035 29.5581C87.0426 28.4772 88.6506 27.6477 90.3227 26.8083C90.6129 26.6626 90.8885 26.4604 90.9531 26.1182C91.0076 25.8292 90.8842 25.4409 90.6709 25.2348C90.4977 25.0672 90.2631 24.9981 90.0287 24.9852C88.1789 24.8835 83.0104 28.7774 81.6258 30.0362C77.7803 33.5327 75.0234 38.0321 73.2246 42.8864C72.5949 44.5856 72.1783 46.3462 71.7705 48.109C70.275 54.5745 69.6031 61.2372 69.0186 67.8389C68.5827 72.3362 68.2381 76.8404 67.9846 81.3514C67.0225 80.8047 66.0848 80.1104 65.2627 79.371C65.4293 74.2387 65.9094 69.0837 66.3352 63.9659C67.3623 51.6182 68.443 39.3405 76.9961 29.5614C83.6963 21.9008 92.7863 18.412 102.746 17.7165Z" fill="white"/>
<path d="M101.261 34.0241C103.138 33.7846 105.21 33.9493 107.084 34.1866C113.378 34.9829 119.947 37.9307 123.866 43.0518C129.549 50.4776 127.64 60.4041 126.731 68.9625C126.264 73.3661 125.887 77.7965 125.31 82.1854C123.599 81.9678 121.858 81.5092 120.162 81.1717C116.438 80.4396 112.719 79.6796 109.006 78.8918C106.672 78.3618 104.307 77.9469 101.964 77.4491C94.3479 75.8717 86.7554 74.1868 79.1868 72.3942C79.2534 69.4592 79.7061 66.4348 79.9848 63.5077C80.7463 55.5118 80.8971 47.9827 86.3579 41.4235C90.1303 36.8922 95.4514 34.5274 101.261 34.0241Z" fill="white"/>
<path d="M49.608 87.953C50.006 88.6142 50.4277 88.9269 51.0713 89.3317C57.6191 93.4509 65.7041 96.3315 73.0342 98.688C77.2095 99.9853 81.4087 101.2 85.6316 102.333C89.8547 103.466 94.0982 104.516 98.3623 105.483C102.626 106.45 106.908 107.332 111.206 108.132C115.505 108.931 119.818 109.645 124.144 110.276C127.633 110.802 131.04 111.156 134.56 111.397C135.376 111.453 136.581 111.684 137.365 111.459C137.622 111.386 137.688 111.31 137.818 111.084C137.721 110.627 137.538 110.456 137.095 110.316C136.28 110.059 132.961 110.012 131.898 109.935C130.207 109.801 128.52 109.622 126.838 109.399C120.422 108.596 114.055 107.395 107.708 106.171C101.953 105.117 96.2372 103.884 90.5605 102.469C84.8838 101.055 79.2575 99.4625 73.6814 97.6925C69.5511 96.3603 65.4767 94.9716 61.465 93.3089C57.8285 91.8015 54.0715 90.2042 50.8955 87.8433C53.2713 88.8215 55.6602 89.7667 58.0623 90.6788C60.4642 91.591 62.8783 92.47 65.3045 93.3155C67.7308 94.161 70.1683 94.9728 72.617 95.7509C75.0657 96.529 77.5246 97.2731 79.9939 97.9833C82.4632 98.6936 84.9418 99.3696 87.4297 100.011C89.9176 100.653 92.4138 101.26 94.9185 101.833C97.4232 102.406 99.9354 102.944 102.455 103.447C104.975 103.95 107.501 104.419 110.033 104.852C115.032 105.791 120.044 106.823 125.072 107.582C129.448 108.243 133.822 108.644 138.216 109.143C138.163 112.693 137.572 116.288 137.188 119.82L134.65 141.7L131.591 168.71C131.105 173.164 130.878 177.714 130.149 182.136L129.969 182.193C127.142 183.105 112.517 181.487 108.77 180.983C92.0392 178.732 76.9427 174.131 62.182 165.853C60.0699 164.668 58.0105 163.339 55.9527 162.06C53.1908 160.343 47.9806 157.152 46.0781 154.613C45.3467 153.638 45.3484 152.642 45.3361 151.463C45.3023 148.192 45.6802 144.912 45.9058 141.652L47.066 124.203L48.3459 104.649C48.6722 99.0925 48.8381 93.4679 49.608 87.953Z" fill="white"/>
<path d="M47.0639 144.712C47.1022 144.71 47.1407 144.707 47.1792 144.707C47.9913 144.727 51.7493 146.617 52.3376 147.266C52.603 147.559 52.7928 147.967 52.727 148.369C52.6391 148.908 52.2504 149.206 51.8241 149.49C51.7249 149.492 51.6253 149.495 51.5262 149.489C50.5963 149.43 47.1108 147.672 46.47 146.918C46.2378 146.644 46.0739 146.255 46.1301 145.891C46.2196 145.315 46.6124 145.022 47.0639 144.712Z" fill="#4B68CB"/>
<path d="M49.1204 113.862C49.1942 113.865 49.2682 113.869 49.3419 113.876C50.2399 113.963 54.3606 115.948 54.8428 116.649C54.9932 116.867 55.0317 117.119 54.9856 117.377C54.888 117.924 54.3938 118.273 53.9706 118.566C53.8126 118.575 53.6626 118.586 53.5057 118.558C52.6514 118.402 48.8102 116.603 48.3575 115.861C48.1909 115.588 48.1198 115.274 48.2085 114.959C48.3473 114.467 48.6985 114.122 49.1204 113.862Z" fill="#4B68CB"/>
<path d="M47.9937 135.43C48.9668 135.604 52.9789 137.658 53.5259 138.4C53.7398 138.69 53.8546 139.015 53.783 139.376C53.6792 139.899 53.2281 140.174 52.7988 140.405C52.7666 140.401 52.7341 140.398 52.7021 140.393C51.5408 140.215 47.706 138.414 47.0925 137.478C46.8916 137.171 46.8078 136.843 46.9097 136.484C47.0585 135.959 47.5406 135.66 47.9937 135.43Z" fill="#4B68CB"/>
<path d="M48.6244 124.9C48.7652 124.905 48.8967 124.925 49.0353 124.954C50.008 125.155 54.2035 127.204 54.7148 128.014C54.8926 128.296 54.9623 128.588 54.8703 128.915C54.7328 129.404 54.2351 129.713 53.8094 129.916C53.766 129.913 53.7226 129.912 53.6795 129.908C52.6205 129.809 48.5176 127.799 47.8746 126.997C47.6457 126.712 47.5344 126.363 47.608 125.999C47.7111 125.489 48.2127 125.148 48.6244 124.9Z" fill="#4B68CB"/>
<path d="M128.79 121.294C129.878 121.181 131.089 121.469 132.183 121.55C133.007 121.611 133.863 121.531 134.674 121.684C135 121.746 135.418 121.852 135.669 122.086C135.854 122.257 135.942 122.445 135.94 122.7C135.936 123.179 135.374 123.874 135.05 124.192C134.788 124.276 134.543 124.304 134.268 124.315C133.243 124.356 130.315 124.262 129.404 124.024C128.999 123.919 128.591 123.741 128.288 123.444C128.088 123.248 127.963 123.01 127.978 122.722C128.002 122.217 128.411 121.606 128.79 121.294Z" fill="#4B68CB"/>
<path d="M126.056 141.093C127.02 141.1 127.967 141.567 128.931 141.684C129.998 141.813 131.111 141.583 132.171 141.751C132.514 141.806 133.017 141.937 133.257 142.211C133.436 142.415 133.499 142.571 133.481 142.845C133.451 143.332 132.917 143.976 132.587 144.306C132.542 144.319 132.497 144.334 132.452 144.346C131.264 144.677 127.245 144.4 126.13 143.719C125.779 143.505 125.425 143.164 125.361 142.737C125.267 142.114 125.663 141.528 126.056 141.093Z" fill="#4B68CB"/>
<path d="M128.664 111.697C129.499 111.87 130.334 112.019 131.182 112.108C132.141 112.21 136.208 112.271 136.792 112.985C137.033 113.279 137.067 113.764 136.98 114.123C136.862 114.606 136.48 114.867 136.079 115.11C134.604 114.981 133.128 114.861 131.651 114.752C130.828 114.687 129.929 114.683 129.124 114.506C128.646 114.401 128.129 114.212 127.776 113.86C127.581 113.665 127.426 113.419 127.471 113.13C127.564 112.526 128.189 112.002 128.664 111.697Z" fill="#4B68CB"/>
<path d="M123.416 151.652C124.556 151.633 125.857 152.21 127.011 152.375C127.734 152.479 131.514 152.538 131.841 152.761C132.024 152.885 132.167 153.114 132.203 153.331C132.307 153.974 131.857 154.58 131.462 155.027C131.297 155.1 131.149 155.155 130.97 155.18C129.296 155.411 124.587 155.086 123.317 154.059C123.018 153.817 122.774 153.495 122.757 153.099C122.732 152.529 123.038 152.045 123.416 151.652Z" fill="#4B68CB"/>
<path d="M50.5903 94.6458C51.3666 94.7668 56.5561 96.9358 57.5584 97.4559C57.8786 97.6219 58.335 97.8577 58.5334 98.1704C58.7051 98.4411 58.7502 98.7188 58.6639 99.0249C58.4995 99.6086 58.0159 100.005 57.5108 100.289C57.2838 100.295 57.0381 100.306 56.8176 100.245C55.6877 99.9329 54.2102 99.0473 53.0971 98.5383C52.235 98.1442 51.2604 97.8331 50.4481 97.3522C50.0766 97.1323 49.7139 96.8372 49.4969 96.4577C49.3473 96.1959 49.2729 95.8885 49.3883 95.5969C49.5795 95.1135 50.1268 94.8059 50.5903 94.6458Z" fill="#4B68CB"/>
<path d="M121.109 172.08C121.137 172.077 121.165 172.074 121.193 172.071C122.159 171.982 123.387 172.54 124.354 172.733C125.94 173.051 127.526 173.076 129.115 173.319C129.429 173.367 129.769 173.379 130.007 173.613C130.27 173.871 130.35 174.217 130.326 174.573C130.287 175.148 130.075 175.484 129.658 175.863C129.587 175.88 129.516 175.897 129.444 175.908C127.935 176.147 122.173 175.545 121.06 174.666C120.732 174.407 120.447 174.037 120.429 173.604C120.404 172.994 120.729 172.52 121.109 172.08Z" fill="#4B68CB"/>
<path d="M120.701 162.587C121.296 162.654 121.891 162.807 122.489 162.883C123.555 163.017 124.637 163.074 125.71 163.125C127.486 163.21 129.282 163.071 131.041 163.365C131.13 163.461 131.226 163.559 131.293 163.673C131.496 164.02 131.452 164.464 131.328 164.828C131.175 165.28 130.973 165.471 130.555 165.684C129.38 165.963 123.184 165.815 121.756 165.65C121.146 165.58 120.437 165.397 120.053 164.875C119.788 164.516 119.739 164.024 119.834 163.595C119.944 163.095 120.292 162.848 120.701 162.587Z" fill="#4B68CB"/>
<path d="M49.9049 104.695C50.0598 104.722 50.2131 104.756 50.3646 104.797C51.3596 105.067 58.4 108.121 59.3094 108.687C59.516 108.816 59.6736 108.97 59.7803 109.191C59.9164 109.474 59.9123 109.782 59.7953 110.07C59.5773 110.607 59.1705 110.909 58.6619 111.146C58.5029 111.129 58.3521 111.111 58.1975 111.069C56.7754 110.689 55.2785 109.829 53.9209 109.237C52.4543 108.598 50.9062 108.057 49.4846 107.327C49.2314 107.198 48.9457 107.066 48.8025 106.815C48.6398 106.529 48.6295 106.24 48.7322 105.932C48.9352 105.325 49.3498 104.969 49.9049 104.695Z" fill="#4B68CB"/>
<path d="M122.937 131.155C123.134 131.134 123.333 131.12 123.532 131.129C124.733 131.183 125.97 131.454 127.173 131.575C129.104 131.768 131.559 131.808 133.415 132.232C133.737 132.306 133.916 132.368 134.135 132.635C134.304 132.841 134.376 133.147 134.354 133.407C134.303 134.016 134.062 134.375 133.618 134.774C133.535 134.788 133.387 134.816 133.295 134.822C132.138 134.887 130.313 134.509 129.087 134.398C127.241 134.23 125.296 134.26 123.479 133.922C123.129 133.857 122.879 133.792 122.622 133.531C122.349 133.252 122.217 132.904 122.24 132.513C122.275 131.924 122.525 131.552 122.937 131.155Z" fill="#4B68CB"/>
<path d="M49.0062 154.732C50.4373 155.102 53.8664 157.786 55.3876 158.742C58.0617 160.439 60.7803 162.062 63.5433 163.611C65.4714 164.704 67.4292 165.741 69.4166 166.721C71.4041 167.702 73.4179 168.625 75.4582 169.491C77.4984 170.356 79.5617 171.163 81.6482 171.91C83.7347 172.657 85.8408 173.344 87.9666 173.971C90.303 174.649 92.6554 175.267 95.0236 175.824C97.3918 176.382 99.7728 176.877 102.167 177.312C104.56 177.746 106.964 178.119 109.377 178.43C111.79 178.741 114.209 178.989 116.635 179.175C118.105 179.293 127.889 179.731 128.124 179.877C128.367 180.027 128.37 180.088 128.431 180.348C128.353 180.616 128.298 180.757 128.111 180.976C124.331 180.953 120.542 180.662 116.777 180.348C99.973 178.943 83.3335 175.154 68.2503 167.438C62.5779 164.49 57.0666 161.267 51.7162 157.768C51.0105 157.312 48.8167 156.169 48.5789 155.431C48.6517 155.126 48.808 154.961 49.0062 154.732Z" fill="#4B68CB"/>
<path d="M84.7293 119.862C85.7782 119.744 86.9008 119.888 87.9149 120.167C91.0678 121.036 93.5407 123.286 95.1342 126.088C96.9663 129.309 97.6743 133.251 96.6467 136.859C95.8549 139.639 94.0036 141.58 91.5233 142.967C91.4036 144.761 90.8004 152.96 90.2623 154.19L90.0348 154.268C89.5565 154.213 89.1653 153.979 88.7418 153.764C86.6586 152.687 84.5116 151.718 82.3887 150.722C81.1573 150.144 79.6723 149.601 78.6016 148.763C78.545 145.765 79.2506 142.278 79.4332 139.212C79.0768 138.525 78.5913 137.884 78.1952 137.216C77.1762 135.498 76.5938 133.531 76.3817 131.551C76.0661 128.608 76.8305 125.488 78.7116 123.169C80.2688 121.249 82.2854 120.127 84.7293 119.862Z" fill="#4B68CB"/>
<path d="M83.0279 121.177L83.1121 121.204C83.082 121.441 82.1265 122.042 81.8871 122.261C81.4703 122.642 81.0935 123.103 80.7654 123.562C79.8185 124.884 79.2252 126.503 78.9765 128.104C78.3236 132.31 80.1084 135.605 82.5054 138.86C81.7576 140.623 81.2363 145.764 81.3484 147.72C82.4734 148.561 87.4863 150.752 88.9676 151.25C89.3002 150.873 89.5492 150.446 89.8109 150.019C89.689 150.868 89.5836 151.706 89.5279 152.562L89.5013 152.8C89.2658 152.828 89.0933 152.74 88.882 152.647C87.7324 152.144 86.6103 151.481 85.475 150.933C83.808 150.127 81.1869 149.13 79.7965 148.092C79.8476 145.02 80.4351 141.924 80.6488 138.853C79.9715 137.779 79.1633 136.783 78.6142 135.631C77.3052 132.885 77.0502 129.459 78.0713 126.584C79.0084 123.945 80.533 122.372 83.0279 121.177Z" fill="white"/>
</g>
<defs>
<clipPath id="clip0_1167_882">
<rect width="200" height="200" fill="white"/>
</clipPath>
</defs>
</svg>
