<svg width="200" height="200" viewBox="0 0 200 200" fill="none" xmlns="http://www.w3.org/2000/svg">
<g clip-path="url(#clip0_1165_1674)">
<path d="M0 0H200V200H0V0Z" fill="#FEFEFE"/>
<path d="M154.111 26.8103C156.742 26.707 158.933 27.8201 160.849 29.5875C162.552 31.159 163.767 33.2205 164.433 35.4338C165.228 38.0766 165.208 41.8398 165.432 44.6342C165.834 49.6623 166.335 54.731 166.518 59.7703C171.871 60.0844 176.61 62.0025 180.735 65.442C180.907 65.5857 181.076 65.7316 181.244 65.8797C181.412 66.0276 181.578 66.1775 181.742 66.3295C181.906 66.4816 182.068 66.6356 182.228 66.7916C182.389 66.9476 182.547 67.1055 182.704 67.2652C182.86 67.4251 183.015 67.5869 183.167 67.7506C183.32 67.9142 183.47 68.0797 183.619 68.2471C183.767 68.4144 183.913 68.5835 184.058 68.7543C184.202 68.9253 184.344 69.0979 184.484 69.2723C184.625 69.4467 184.762 69.6228 184.898 69.8006C185.034 69.9783 185.168 70.1577 185.299 70.3387C185.43 70.5198 185.56 70.7024 185.687 70.8865C185.814 71.0708 185.938 71.2565 186.061 71.4437C186.183 71.631 186.303 71.8197 186.421 72.01C186.539 72.2001 186.654 72.3917 186.767 72.5848C186.88 72.7777 186.991 72.9721 187.099 73.1678C187.207 73.3635 187.313 73.5605 187.417 73.7588C187.52 73.9571 187.621 74.1566 187.72 74.3574C187.819 74.5582 187.915 74.7602 188.008 74.9635C188.102 75.1666 188.193 75.3708 188.282 75.5762C188.371 75.7815 188.457 75.9879 188.54 76.1955C188.624 76.4029 188.705 76.6114 188.784 76.8209C188.862 77.0303 188.938 77.2406 189.012 77.4519C189.085 77.6633 189.156 77.8755 189.224 78.0887C189.292 78.3017 189.358 78.5155 189.421 78.7301C189.483 78.9448 189.544 79.1602 189.601 79.3764C189.659 79.5925 189.714 79.8093 189.766 80.0267C189.819 80.2442 189.868 80.4623 189.915 80.681C189.962 80.8998 190.007 81.1191 190.048 81.3389C190.09 81.5585 190.129 81.7788 190.165 81.9996C190.202 82.2203 190.235 82.4415 190.266 82.6631C190.297 82.8846 190.325 83.1064 190.35 83.3287C190.376 83.551 190.399 83.7735 190.419 83.9963C190.973 90.3281 189.33 96.9465 185.181 101.863C180.586 107.309 175.139 109.568 168.138 110.173C168.27 111.723 168.377 113.274 168.458 114.826C168.771 120.153 169.038 125.482 169.257 130.813C169.484 135.848 169.889 142.951 169.04 147.836C168.751 149.501 168.204 151.361 167.027 152.629C166.303 153.408 165.497 153.843 164.465 154.054C163.005 154.352 161.449 154.341 159.964 154.421L152.657 154.807C145.111 155.232 137.565 155.813 130.014 156.12C128.599 157.958 127.449 160.13 126.261 162.124C125.236 163.842 124.135 165.51 123.092 167.216C122.38 168.382 121.712 169.707 120.851 170.764C120.414 170.959 119.957 171.099 119.495 171.221C118.293 171.538 111.311 173.441 110.648 173.052C110.432 172.804 110.29 172.58 110.16 172.278C109.799 171.433 107.662 164.891 107.572 164.127C107.545 163.892 107.534 163.651 107.635 163.429C108.281 162.02 112.372 158.748 113.489 157.178C113.633 156.975 113.705 156.862 113.672 156.609C113.155 156.426 100.797 157.25 99.2938 157.319L88.1867 157.735C81.6555 158.043 75.0893 158.424 68.552 158.51L34.5453 159.704C32.2153 159.792 29.8971 159.826 27.566 159.852C23.27 159.901 20.3465 160.301 16.9299 157.087C15.2415 155.499 14.1168 153.208 13.7116 150.939C13.434 149.384 13.4394 147.774 13.3869 146.199C13.3264 144.537 13.2541 142.875 13.1699 141.213L12.127 117.291L10.2664 70.8058C9.97306 63.267 9.58712 55.723 9.39835 48.181C9.28406 43.6137 10.7971 39.2994 13.986 35.9822C16.3717 33.5008 19.4767 31.668 22.8512 30.9492C25.4733 30.3906 28.1899 30.5986 30.8543 30.4584C35.9296 30.1693 41.0032 29.8538 46.0752 29.5119C62.711 28.4348 79.3498 28.1023 96.0127 27.7801L154.111 26.8103Z" fill="#4B68CB"/>
<path d="M126.057 136.596C126.483 136.975 127.074 137.418 127.379 137.901C127.557 138.182 127.492 138.258 127.418 138.569L127.198 138.621C126.546 138.263 126.293 137.264 126.057 136.596Z" fill="#FEFEFE"/>
<path d="M120.501 144.539C120.65 144.535 120.713 144.55 120.851 144.595C120.802 145.108 120.246 145.526 120.116 146.043C119.982 146.576 120.224 147.209 120.195 147.767C120.193 147.797 120.191 147.828 120.189 147.858C119.897 147.147 119.137 145.792 119.533 145.038C119.729 144.665 120.131 144.616 120.501 144.539Z" fill="#FEFEFE"/>
<path d="M113.232 161.732L113.235 161.831C112.418 162.915 111.5 165.036 110.587 165.865L110.411 165.784C110.192 165.314 110.044 164.822 109.885 164.33C110.956 163.421 112.109 162.579 113.232 161.732Z" fill="#FEFEFE"/>
<path d="M130.374 133.339L130.397 133.38C130.401 133.514 130.382 133.591 130.324 133.714C130.084 134.222 128.568 137.087 128.239 137.206L127.888 136.718C127.016 135.611 127.413 135.566 127.378 134.304L127.374 134.182C128.36 133.821 129.333 133.499 130.374 133.339Z" fill="#FEFEFE"/>
<path d="M124.981 142.958L125.017 143.081C124.343 144.179 121.82 148.609 121.057 149.136C121.285 148.646 121.474 148.171 121.636 147.655L121.313 146.359C121.804 145.388 122.379 144.459 122.932 143.524C123.613 143.331 124.293 143.127 124.981 142.958Z" fill="#FEFEFE"/>
<path d="M119.838 150.88C120.198 150.271 120.533 149.62 121.057 149.136C120.799 149.73 120.376 150.32 120.048 150.882C118.81 153.004 117.396 155.03 116.214 157.179C116.078 156.805 115.971 156.422 115.86 156.04C115.528 154.836 115.093 153.665 114.759 152.461C116.389 151.798 118.167 151.456 119.838 150.88Z" fill="#FEFEFE"/>
<path d="M21.1919 34.3768L21.2575 34.4385C20.854 34.934 20.3794 35.3662 19.9917 35.8756C18.0548 38.4211 16.7793 42.0752 16.5335 45.2541C16.3739 47.3192 16.5947 49.4996 16.6913 51.5699C16.8793 55.5356 17.0936 59.4997 17.3343 63.4623L18.7816 92.9817C19.2955 105.224 19.8995 117.461 20.5936 129.695C20.7799 134.059 20.9928 138.422 21.2321 142.784C21.3524 144.885 21.3768 147.06 21.6829 149.14C22.1883 152.574 23.9469 155.765 26.7356 157.853C26.1559 157.781 25.595 157.69 25.0255 157.561C23.1464 156.769 21.6749 155.43 20.684 153.646C19.9536 152.33 19.505 150.83 19.3429 149.337C19.1278 147.354 19.1174 145.333 19.025 143.341L18.521 132.932C17.9301 122.276 17.4038 111.617 16.942 100.955C16.2614 88.6951 15.6477 76.4324 15.1009 64.1664L14.5802 53.0914C14.494 51.1217 14.3637 49.1369 14.3644 47.1656C14.3628 46.7465 14.3758 46.3278 14.4031 45.9096C14.4305 45.4912 14.4723 45.0744 14.5285 44.659C14.5846 44.2436 14.655 43.8307 14.7397 43.4201C14.8244 43.0096 14.9231 42.6025 15.0359 42.1988C15.0926 41.9936 15.1544 41.7899 15.2213 41.5877C15.2882 41.3855 15.36 41.185 15.4368 40.9863C15.5136 40.7878 15.5953 40.5912 15.6818 40.3965C15.7684 40.202 15.8598 40.0096 15.9559 39.8195C16.052 39.6296 16.1528 39.4421 16.2582 39.257C16.3636 39.0719 16.4736 38.8895 16.588 38.71C16.7025 38.5304 16.8214 38.3538 16.9446 38.1801C17.0678 38.0064 17.1953 37.8359 17.327 37.6686C17.4587 37.5013 17.5945 37.3373 17.7344 37.1766C17.8742 37.016 18.018 36.859 18.1656 36.7055C18.3133 36.552 18.4646 36.4022 18.6197 36.2563C18.7748 36.1103 18.9334 35.9683 19.0955 35.8303C19.2577 35.6921 19.4231 35.5582 19.5919 35.4283C19.7606 35.2984 19.9325 35.1727 20.1077 35.0514C20.2827 34.93 20.4605 34.8131 20.6413 34.7006C20.8221 34.5881 21.0057 34.4802 21.1919 34.3768Z" fill="#FEFEFE"/>
<path d="M165.079 110.13C165.407 110.133 165.571 110.1 165.859 110.265C165.898 110.487 165.932 110.71 165.95 110.935C166.332 115.784 166.468 120.68 166.724 125.54C166.956 129.727 167.096 133.917 167.145 138.11C167.182 141.006 167.261 143.999 166.875 146.875C166.684 148.3 166.335 150.088 165.333 151.185C164.818 151.749 164.015 151.95 163.284 152.059C161.929 152.261 160.494 152.264 159.124 152.334L151.533 152.714C144.865 153.079 138.188 153.636 131.513 153.812C132.281 152.188 133.397 150.636 134.328 149.092C136.714 145.133 139.154 141.207 141.647 137.315C146.411 129.774 150.943 122.082 155.737 114.559C156.398 114.922 159.737 117.018 160.226 116.909C161.476 116.63 164.022 111.533 164.972 110.272L165.079 110.13Z" fill="#FEFEFE"/>
<path d="M164.48 61.8572C169.163 61.6502 173.926 63.3099 177.73 65.9863C177.894 66.1018 178.056 66.2193 178.216 66.3387C178.376 66.4581 178.535 66.5793 178.693 66.7025C178.851 66.8258 179.007 66.951 179.161 67.0779C179.316 67.205 179.468 67.3339 179.62 67.4646C179.771 67.5954 179.921 67.7279 180.069 67.8623C180.217 67.9967 180.364 68.1328 180.509 68.2707C180.654 68.4086 180.797 68.5482 180.938 68.6896C181.08 68.831 181.219 68.9741 181.357 69.1189C181.495 69.2636 181.632 69.41 181.766 69.5582C181.901 69.7062 182.033 69.8559 182.164 70.0072C182.295 70.1585 182.424 70.3114 182.551 70.4658C182.678 70.6201 182.803 70.776 182.927 70.9336C183.05 71.091 183.171 71.2499 183.291 71.4103C183.41 71.5708 183.528 71.7325 183.644 71.8957C183.759 72.059 183.873 72.2236 183.984 72.3896C184.096 72.5556 184.205 72.723 184.313 72.8916C184.42 73.0602 184.526 73.2301 184.629 73.4014C184.733 73.5726 184.834 73.745 184.933 73.9187C185.032 74.0924 185.13 74.2672 185.224 74.4431C185.32 74.6192 185.412 74.7963 185.503 74.9746C185.594 75.1528 185.682 75.3322 185.769 75.5127C185.855 75.6931 185.939 75.8746 186.021 76.057C186.103 76.2394 186.183 76.4228 186.26 76.6072C186.338 76.7916 186.413 76.9769 186.486 77.1633C186.559 77.3495 186.63 77.5365 186.698 77.7244C186.767 77.9123 186.833 78.101 186.897 78.2906C186.961 78.4801 187.022 78.6703 187.081 78.8613C187.141 79.0523 187.198 79.2441 187.252 79.4365C187.307 79.629 187.359 79.822 187.409 80.0156C187.459 80.2094 187.507 80.4036 187.552 80.5984C187.597 80.7932 187.64 80.9885 187.681 81.1844C187.721 81.3803 187.759 81.5767 187.795 81.7734C188.822 87.7398 187.883 94.2451 184.323 99.2631C180.836 104.179 175.056 107.624 168.981 107.954C167.77 108.02 164.986 107.667 164.09 107.869C163.359 108.034 160.389 113.321 159.825 114.251C158.853 113.806 156.01 111.793 155.085 111.954C154.747 112.013 154.529 112.395 154.333 112.657C152.994 114.434 151.894 116.491 150.713 118.381L142.382 131.968L121.738 165.277L119.451 168.86C116.963 169.543 114.452 170.297 111.914 170.763C111.52 169.775 111.194 168.765 110.934 167.734C112.049 166.112 113.082 164.433 114.179 162.799C115.067 161.478 116.041 160.211 116.898 158.87C117.5 157.927 117.816 156.844 118.396 155.887C120.82 151.884 123.382 147.962 125.802 143.958C127.236 141.586 128.569 139.143 129.945 136.736C130.699 135.418 132.214 133.268 132.517 131.888C132.566 131.665 132.608 131.444 132.681 131.227C132.881 130.629 134.075 128.428 134.541 128.172C134.979 127.932 135.657 127.899 136.155 127.671C136.195 127.653 136.234 127.634 136.273 127.616C136.695 126.952 137.604 125.841 137.472 125.031C137.399 124.582 137.124 124.391 136.793 124.116C137.407 122.921 138.169 121.765 138.863 120.613C140.817 117.37 142.902 114.223 144.894 111.008C145.741 109.642 146.688 108.269 147.391 106.825C147.374 106.806 147.357 106.786 147.34 106.768C147.311 106.736 147.281 106.706 147.251 106.675C146.038 105.393 143.922 104.487 142.418 103.513C143.53 101.444 145.257 99.6224 146.148 97.4389C143.576 93.6373 141.661 89.9599 141.412 85.2631C141.119 79.7508 143.407 74.2986 147.063 70.2346C147.201 70.0809 147.341 69.929 147.483 69.7789C147.625 69.6288 147.768 69.4803 147.914 69.3336C148.059 69.187 148.206 69.0421 148.355 68.899C148.504 68.7559 148.655 68.6146 148.807 68.4752C148.96 68.3357 149.114 68.1982 149.269 68.0625C149.425 67.9269 149.582 67.7932 149.741 67.6613C149.9 67.5295 150.061 67.3997 150.223 67.2717C150.385 67.1438 150.549 67.0179 150.714 66.8941C150.88 66.7702 151.046 66.6482 151.214 66.5283C151.383 66.4085 151.552 66.2907 151.723 66.175C151.894 66.0594 152.067 65.9458 152.241 65.8344C152.414 65.7228 152.59 65.6134 152.766 65.5062C152.943 65.3989 153.12 65.2939 153.299 65.191C153.479 65.0881 153.659 64.9874 153.84 64.8888C154.022 64.7904 154.205 64.6942 154.389 64.6002C154.573 64.5062 154.758 64.4144 154.944 64.3248C155.13 64.2352 155.317 64.148 155.505 64.0631C155.693 63.9782 155.883 63.8955 156.073 63.815C156.263 63.7347 156.454 63.6567 156.647 63.581C156.839 63.5054 157.032 63.4321 157.226 63.3611C157.42 63.2902 157.614 63.2215 157.81 63.1553C158.006 63.0891 158.202 63.0253 158.399 62.9638C158.596 62.9024 158.794 62.8434 158.993 62.7869C159.192 62.7303 159.391 62.6761 159.591 62.6244C159.791 62.5726 159.991 62.5233 160.192 62.4765C160.394 62.4297 160.595 62.3853 160.798 62.3433C161 62.3014 161.202 62.262 161.406 62.225C161.609 62.188 161.812 62.1535 162.016 62.1215C162.22 62.0894 162.425 62.0599 162.63 62.0328C162.834 62.0058 163.039 61.9814 163.245 61.9594C163.45 61.9372 163.656 61.9177 163.862 61.9008C164.067 61.8837 164.273 61.8692 164.48 61.8572Z" fill="#FEFEFE"/>
<path d="M140.408 122.537C140.514 122.566 140.672 122.596 140.772 122.648C141.007 122.771 141.02 122.842 141.111 123.077C140.96 124.008 138.676 127.599 137.967 128.274C137.878 128.257 137.733 128.235 137.652 128.2C137.4 128.093 137.38 127.994 137.295 127.757C137.506 127.032 139.5 123.565 139.981 122.916C140.101 122.755 140.245 122.651 140.408 122.537Z" fill="#4B68CB"/>
<path d="M136.111 129.464C136.351 129.521 136.642 129.564 136.852 129.696C137.028 129.807 137.036 129.834 137.089 130.039C136.74 130.823 136.206 131.534 135.757 132.265C135.177 133.209 134.652 134.192 134 135.089C133.771 135.169 133.665 135.138 133.426 135.115C133.328 135.008 133.259 134.973 133.239 134.82C133.119 133.929 135.524 130.386 136.111 129.464Z" fill="#4B68CB"/>
<path d="M144.905 114.814C145.08 114.827 145.351 114.825 145.51 114.893C145.749 114.995 145.765 115.093 145.848 115.316C145.668 116.182 142.665 121.099 141.935 122.054C141.794 122.055 141.587 122.062 141.456 122.018C141.2 121.932 141.155 121.856 141.035 121.638C141.019 120.915 144.311 115.809 144.905 114.814Z" fill="#4B68CB"/>
<path d="M149.178 98.9277C149.84 99.1502 150.515 99.675 151.137 100.021C152.989 101.044 154.834 102.077 156.673 103.122C157.463 103.579 161.618 105.904 161.91 106.386C161.956 106.462 161.956 106.557 161.979 106.642C161.898 106.971 161.743 107.137 161.519 107.385C160.709 107.173 159.767 106.461 159.043 106.037C157.053 104.875 155.075 103.695 153.108 102.494C152.025 101.846 150.899 101.27 149.818 100.618C149.32 100.318 148.869 100.151 148.722 99.557C148.803 99.2543 148.955 99.1293 149.178 98.9277Z" fill="#4B68CB"/>
<path d="M163.901 62.9248C164.117 62.8918 164.497 62.833 164.698 62.9262C164.883 63.0119 165.075 63.3045 165.113 63.4976C165.134 63.6056 165.069 63.7553 164.999 63.8379C164.855 64.0076 164.524 64.1154 164.318 64.1691C163.578 64.3625 162.767 64.4213 162.01 64.574C161.169 64.7457 160.339 64.9613 159.52 65.2207C158.701 65.4799 157.899 65.7816 157.112 66.1258C153.926 67.5035 151.166 69.4211 148.961 72.1094C148.941 72.126 148.922 72.1451 148.9 72.1594C148.652 72.317 148.392 72.3166 148.126 72.2379C148.05 72.1285 148.009 72.0277 148.004 71.89C147.993 71.5252 148.313 71.0949 148.526 70.8244C148.928 70.315 149.444 69.8654 149.911 69.4158C153.62 65.8412 158.812 63.6258 163.901 62.9248Z" fill="#4B68CB"/>
<path d="M145.427 74.1592C145.575 74.2211 145.715 74.3064 145.856 74.3834C146.367 75.2176 145.45 76.1898 145.097 76.9477C143.827 79.6785 143.203 83.1691 143.602 86.1613C144.275 91.2105 147.255 95.0445 151.552 97.609C152.657 98.2686 154.083 98.7311 155.068 99.5355C155.329 99.7482 155.394 99.8926 155.426 100.222C155.317 100.518 155.167 100.599 154.913 100.757C152.104 99.6107 148.593 97.4965 146.516 95.283C143.733 92.3166 142.144 87.9463 142.288 83.8871C142.382 81.233 143.423 76.0145 145.427 74.1592Z" fill="#4B68CB"/>
<path d="M131.733 136.774C131.857 136.773 132.003 136.762 132.127 136.787C132.39 136.841 132.5 136.954 132.66 137.156C132.707 137.484 132.641 137.673 132.483 137.955C131.939 138.923 131.271 139.835 130.711 140.799C126.855 147.332 122.915 153.815 118.891 160.246C117.033 163.238 115.436 166.436 113.506 169.373C113.343 169.375 113.142 169.369 112.988 169.304C112.748 169.201 112.672 169.038 112.569 168.815C112.571 168.603 112.582 168.462 112.683 168.272C113.687 166.389 114.922 164.573 116.048 162.757L120.716 155.175C124.467 149.089 128.139 142.955 131.733 136.774Z" fill="#4B68CB"/>
<path d="M169.317 67.9103C169.438 67.9038 169.56 67.9001 169.681 67.8992C169.803 67.8983 169.924 67.9002 170.046 67.9049C170.167 67.9094 170.288 67.9168 170.409 67.9269C170.53 67.9371 170.651 67.9501 170.772 67.9658C170.892 67.9814 171.012 67.9998 171.132 68.0209C171.252 68.0421 171.371 68.066 171.489 68.0926C171.608 68.1193 171.726 68.1486 171.843 68.1805C171.96 68.2125 172.077 68.2471 172.192 68.2844C172.308 68.3217 172.423 68.3616 172.537 68.4041C172.651 68.4467 172.763 68.4918 172.875 68.5394C172.987 68.5872 173.098 68.6375 173.207 68.6902C173.316 68.743 173.425 68.7982 173.532 68.8558C173.639 68.9135 173.744 68.9736 173.848 69.0361C173.953 69.0986 174.055 69.1635 174.157 69.2307C174.258 69.2978 174.357 69.3673 174.455 69.4391C174.554 69.5108 174.65 69.5848 174.745 69.6609C176.51 71.0517 177.832 73.1564 178.095 75.4086C178.109 75.5363 178.12 75.6644 178.128 75.7928C178.136 75.9211 178.141 76.0497 178.143 76.1783C178.144 76.3068 178.143 76.4353 178.138 76.5639C178.133 76.6924 178.126 76.8207 178.114 76.9488C178.103 77.0769 178.089 77.2047 178.071 77.3322C178.054 77.4596 178.033 77.5864 178.01 77.7129C177.986 77.8393 177.959 77.965 177.929 78.09C177.899 78.2152 177.866 78.3394 177.83 78.4627C177.794 78.5861 177.754 78.7086 177.712 78.8301C177.67 78.9515 177.625 79.0719 177.576 79.1912C177.528 79.3103 177.477 79.4282 177.423 79.5449C177.369 79.6616 177.312 79.7769 177.252 79.8908C177.192 80.0046 177.13 80.1169 177.064 80.2277C176.999 80.3384 176.931 80.4475 176.86 80.5549C176.789 80.6622 176.716 80.7677 176.64 80.8715C176.564 80.9751 176.485 81.0769 176.404 81.1767C174.855 83.0824 172.977 83.9324 170.567 84.1754C168.386 84.2367 166.164 83.6695 164.462 82.2502C162.831 80.8902 161.772 78.8213 161.583 76.7121C161.382 74.4674 162.181 72.2252 163.629 70.5123C165.062 68.817 167.164 68.0978 169.317 67.9103Z" fill="#4B68CB"/>
<path d="M164.778 72.5242C165.108 72.9828 165.311 78.6816 165.526 79.7688C165.533 79.8051 165.543 79.8408 165.551 79.8768L165.408 79.9551L165.418 80.0026L165.523 80.0699C165.521 80.1945 165.538 80.1385 165.475 80.2393C165.297 80.2012 165.127 79.9256 165.005 79.7852C164.872 79.6173 164.749 79.4427 164.635 79.2613C164.521 79.0801 164.417 78.8931 164.324 78.7004C164.231 78.5078 164.148 78.3107 164.076 78.109C164.004 77.9074 163.944 77.7025 163.894 77.4941C163.464 75.7092 163.819 74.0672 164.778 72.5242Z" fill="#FEFEFE"/>
<path d="M168.754 70.1341C169.207 70.091 169.669 70.0724 170.122 70.1248C171.831 70.3218 173.539 71.2922 174.584 72.6568C175.543 73.9111 176.036 75.4668 175.804 77.0476C175.552 78.7642 174.583 80.0781 173.224 81.099C173.064 81.2027 172.903 81.3045 172.733 81.3918C171.298 82.1328 169.295 82.1677 167.783 81.658C167.599 80.3216 167.547 78.9457 167.429 77.6006C167.231 75.3412 167.008 73.091 166.898 70.8248C167.506 70.5242 168.097 70.2972 168.754 70.1341Z" fill="#FEFEFE"/>
<path d="M151.132 29.0502C154.483 29.0057 156.265 28.5647 158.984 31.0207C162.838 34.5018 162.67 37.968 163.037 42.7531C163.257 45.5229 163.442 48.2951 163.592 51.0696C152.357 51.5959 141.086 51.7336 129.842 52.0403C103.831 52.6042 77.8289 53.4586 51.8363 54.6033C44.7677 54.903 37.7023 55.2674 30.6402 55.6967L19.2453 56.5604C19.0532 53.4492 18.8207 50.3201 18.756 47.2037C18.6743 43.2707 19.8336 39.2897 22.6135 36.4229C24.192 34.7947 26.3701 33.4973 28.5973 33.0217C31.0555 32.4969 34.398 32.5401 36.9594 32.3766L54.0445 31.3153C69.9182 30.5172 85.8017 30.0583 101.695 29.9385L151.132 29.0502Z" fill="#FEFEFE"/>
<path d="M68.8419 48.666C69.6618 48.6295 70.6872 48.476 71.4337 48.8754C71.698 49.0168 71.9126 49.2353 71.9655 49.542C72.014 49.823 71.8298 50.141 71.6528 50.3465C71.3265 50.725 71.0167 50.8396 70.5323 50.89C69.6943 50.9035 68.5316 51.098 67.7741 50.7088C67.5306 50.5836 67.297 50.3855 67.246 50.1019C67.1816 49.7431 67.4017 49.3672 67.6276 49.1052C67.9794 48.697 68.3343 48.7052 68.8419 48.666Z" fill="#4B68CB"/>
<path d="M60.3411 48.7699C61.0507 48.7761 61.7903 48.7217 62.4314 49.0722C62.7847 49.2654 63.0796 49.5701 63.1517 49.9801C63.1958 50.2301 63.0986 50.4445 62.9509 50.6398C62.588 51.1199 62.0374 51.1435 61.4919 51.1863C60.6986 51.2099 59.8786 51.2967 59.1636 50.8824C58.8622 50.7076 58.5859 50.4265 58.5372 50.066C58.5071 49.8431 58.5939 49.6426 58.7263 49.4681C59.129 48.9381 59.7245 48.8463 60.3411 48.7699Z" fill="#4B68CB"/>
<path d="M51.1387 49.1459C51.9772 49.0961 52.8989 48.9771 53.7276 49.1162C54.128 49.1834 54.5647 49.3279 54.7827 49.6998C54.9395 49.9674 54.9512 50.3767 54.837 50.665C54.6844 51.0498 54.321 51.2047 53.9729 51.3668C53.3075 51.4879 52.4764 51.5283 51.7979 51.4984C51.3387 51.4783 50.7606 51.3873 50.468 50.9879C50.2657 50.7117 50.2284 50.3168 50.3218 49.9922C50.4444 49.5664 50.7809 49.3637 51.1387 49.1459Z" fill="#4B68CB"/>
<path d="M33.5543 49.9443C34.1527 49.9047 34.8369 49.7842 35.3783 50.1041C35.6846 50.2852 35.9434 50.5549 35.9893 50.9229C36.0268 51.2244 35.9023 51.4938 35.7029 51.7106C35.2186 52.2369 34.5469 52.2063 33.89 52.2412C33.3258 52.2635 32.6197 52.3635 32.0779 52.1942C32.0396 52.1822 32.0023 52.1676 31.9645 52.1547C31.9215 52.1401 31.8779 52.1266 31.8352 52.1113C31.3982 51.9563 31.1203 51.7547 30.9219 51.3338C30.9049 51.0442 30.942 50.8906 31.14 50.6701C31.7742 49.9641 32.6871 49.9813 33.5543 49.9443Z" fill="#4B68CB"/>
<path d="M42.3238 49.5606C43.2947 49.5043 44.6719 49.2766 45.4998 49.9182C45.7006 50.0736 45.915 50.3264 45.906 50.5955C45.8996 50.7836 45.7728 50.9834 45.65 51.1174C45.0156 51.809 44.0881 51.7619 43.2355 51.7686C42.4594 51.8254 40.8805 52.1168 40.2531 51.6135C40.0301 51.4346 39.9256 51.2447 39.8951 50.9631C39.8582 50.6201 39.9267 50.2281 40.1674 49.968C40.6187 49.4795 41.7154 49.5816 42.3238 49.5606Z" fill="#4B68CB"/>
<path d="M150.28 38.4221C151.49 38.369 152.94 38.135 153.945 38.9711C154.009 39.024 154.07 39.0801 154.128 39.1395C154.186 39.1987 154.24 39.2608 154.292 39.3258C154.343 39.3909 154.391 39.4584 154.435 39.5283C154.48 39.5984 154.52 39.6706 154.557 39.7449C154.594 39.8193 154.627 39.8953 154.656 39.9731C154.684 40.0508 154.709 40.1298 154.73 40.2102C154.75 40.2905 154.766 40.3717 154.778 40.4537C154.79 40.5357 154.798 40.6182 154.801 40.701C154.805 40.7865 154.805 40.8721 154.8 40.9576C154.796 41.043 154.787 41.1281 154.773 41.2127C154.76 41.2973 154.743 41.3811 154.721 41.4639C154.7 41.5468 154.674 41.6285 154.645 41.7088C154.615 41.789 154.581 41.8677 154.544 41.9447C154.506 42.0217 154.465 42.0966 154.42 42.1693C154.375 42.2421 154.326 42.3125 154.274 42.3805C154.222 42.4484 154.167 42.5137 154.108 42.5762C153.647 43.0623 153.025 43.3078 152.368 43.3781C151.149 43.5084 149.863 43.4332 148.633 43.4664L141.007 43.702L117.673 44.4357L30.952 47.3574C29.6068 47.3766 28.1051 47.6738 27.001 46.6979C26.5352 46.2861 26.2773 45.7406 26.2383 45.1219C26.1916 44.3793 26.4117 43.5854 26.9309 43.0379C27.4711 42.4682 28.157 42.3397 28.9092 42.2746C30.8537 42.1061 32.8486 42.1424 34.7994 42.0953L42.6686 41.8277L73.2117 40.9443L150.28 38.4221Z" fill="#4B68CB"/>
<path d="M163.423 53.2648C163.504 53.2588 163.627 53.2871 163.709 53.2982C164.066 53.9636 164.156 58.6197 164.158 59.6377C163.846 59.6549 163.533 59.6773 163.221 59.705C162.909 59.7329 162.598 59.7661 162.287 59.8047C161.977 59.8432 161.667 59.887 161.357 59.9361C161.048 59.9853 160.74 60.0398 160.432 60.0994C160.125 60.1592 159.819 60.2241 159.513 60.2943C159.208 60.3645 158.904 60.4399 158.602 60.5205C158.299 60.6012 157.998 60.687 157.698 60.7779C157.399 60.8689 157.101 60.965 156.804 61.0662C156.508 61.1672 156.214 61.2734 155.921 61.3847C155.628 61.4959 155.337 61.6121 155.049 61.7334C154.76 61.8546 154.473 61.9808 154.189 62.1119C153.905 62.2429 153.623 62.3787 153.343 62.5195C153.063 62.6603 152.786 62.8057 152.511 62.9558C152.236 63.1061 151.964 63.261 151.695 63.4205C151.425 63.5801 151.159 63.7442 150.895 63.9129C150.631 64.0816 150.37 64.2548 150.112 64.4324C144.834 68.0072 140.717 74.0736 139.534 80.3422C138.393 86.3892 140.096 92.5679 143.544 97.5777C142.669 98.8068 139.822 102.862 139.637 104.155C139.957 105.159 143.45 106.778 144.431 107.29C142.984 109.859 141.352 112.324 139.802 114.832C137.797 118.101 135.821 121.388 133.877 124.694C132.619 126.786 131.302 128.844 130.11 130.975C128.498 131.462 126.741 131.785 125.189 132.427C124.431 132.741 123.744 133.226 123.436 134.015C122.725 135.841 124.384 138.701 125.133 140.325C123.001 141.579 118.561 141.564 117.336 143.804C116.473 145.382 117.571 147.554 118.056 149.107C116.329 149.745 114.434 149.991 112.774 150.786C112.684 150.928 112.596 151.07 112.521 151.22C112.018 152.223 112.643 153.377 112.964 154.358C110.112 154.837 107.026 154.805 104.133 154.96C97.9965 155.29 91.8576 155.552 85.7158 155.746L32.7914 157.461C30.6037 157.438 28.8693 156.869 27.2297 155.38C25.5609 153.864 24.326 151.744 23.889 149.529C23.3644 146.868 23.4252 143.495 23.2924 140.75L22.4855 123.761C21.3212 102.117 20.2782 80.4663 19.3564 58.8103C32.1449 57.6308 45.001 57.1109 57.8285 56.5429C81.4272 55.5879 105.032 54.828 128.643 54.2633L151.009 53.6746C155.144 53.5593 159.293 53.5168 163.423 53.2648Z" fill="#FEFEFE"/>
<path d="M135.021 97.4045C135.436 97.3541 135.872 97.3377 136.262 97.5084C136.685 97.6934 136.963 98.0412 137.118 98.4697C137.535 99.6207 136.924 101.116 136.405 102.156C135.819 103.329 134.848 104.701 133.537 105.1C132.666 105.365 131.957 105.138 131.181 104.731C131.117 104.687 131.056 104.641 130.995 104.594C129.663 103.557 128.313 101.432 128.129 99.7426C128.072 99.2264 128.168 98.6988 128.525 98.3035C129.474 97.2537 133.532 97.5277 135.021 97.4045Z" fill="#4B68CB"/>
<path d="M121.438 97.9904C122.142 97.9506 122.894 97.8701 123.597 97.936C124.126 97.9854 124.569 98.144 124.91 98.5684C125.29 99.0418 125.362 99.6606 125.293 100.246C125.093 101.955 124.003 104.153 122.607 105.192C121.827 105.772 121.216 105.893 120.269 105.736C119.872 105.612 119.522 105.466 119.184 105.218C117.816 104.211 116.414 101.967 116.184 100.286C116.116 99.7826 116.187 99.2887 116.519 98.8891C117.427 97.7992 120.098 98.0643 121.438 97.9904Z" fill="#4B68CB"/>
<path d="M109.924 98.5916C110.61 98.5465 111.377 98.4275 112.053 98.5947C112.486 98.7017 112.826 98.9605 113.036 99.3549C113.452 100.134 113.21 101.145 112.958 101.942C112.46 103.511 111.555 105.273 110.004 106.02C109.174 106.42 108.472 106.411 107.619 106.106C107.369 105.972 107.116 105.835 106.89 105.661C105.628 104.692 104.233 102.404 104.06 100.816C104.005 100.307 104.097 99.7867 104.445 99.393C105.329 98.3922 108.586 98.6615 109.924 98.5916Z" fill="#4B68CB"/>
<path d="M96.5395 99.1631C97.6374 99.1107 99.3178 98.8435 100.283 99.4148C100.664 99.6398 100.878 100.003 100.967 100.429C101.276 101.906 100.279 103.893 99.4672 105.081C98.6253 106.313 97.7227 106.887 96.2667 107.153C95.5975 107.014 95.0852 106.799 94.5442 106.374C93.1913 105.312 91.8073 103.185 91.6255 101.455C91.5719 100.946 91.6612 100.442 92.0071 100.048C92.9325 98.9941 95.2581 99.218 96.5395 99.1631Z" fill="#4B68CB"/>
<path d="M68.022 86.2701C68.1016 86.2611 68.1815 86.2533 68.2616 86.249C68.5129 86.2343 68.7644 86.2257 69.0161 86.2232C69.2678 86.2206 69.5194 86.2242 69.771 86.234C70.0225 86.2437 70.2737 86.2596 70.5245 86.2814C70.7751 86.3034 71.0252 86.3315 71.2747 86.3656C71.524 86.3997 71.7724 86.4399 72.0198 86.4861C72.2673 86.5323 72.5136 86.5845 72.7585 86.6426C73.0034 86.7008 73.2468 86.7649 73.4886 86.835C73.7302 86.905 73.9701 86.9809 74.2083 87.0625C74.4464 87.1441 74.6824 87.2316 74.9163 87.3248C75.1501 87.4179 75.3816 87.5167 75.6106 87.6211C75.8397 87.7255 76.066 87.8354 76.2897 87.9508C76.5134 88.0663 76.7341 88.1871 76.9518 88.3133C77.1697 88.4394 77.3843 88.5708 77.5958 88.7074C77.8072 88.844 78.0153 88.9857 78.2198 89.1324C78.4244 89.279 78.6252 89.4306 78.8224 89.5871C79.0195 89.7436 79.2127 89.9048 79.402 90.0707C79.5093 90.1661 79.6154 90.2629 79.7204 90.3609C79.8252 90.459 79.9289 90.5583 80.0313 90.659C80.1337 90.7596 80.2348 90.8615 80.3347 90.9646C80.4345 91.0678 80.5331 91.1722 80.6304 91.2779C80.7275 91.3835 80.8234 91.4904 80.9181 91.5984C81.0126 91.7065 81.1057 91.8157 81.1975 91.926C81.2895 92.0364 81.38 92.1479 81.469 92.2605C81.558 92.3732 81.6456 92.4869 81.7319 92.6017C81.8181 92.7166 81.9028 92.8325 81.986 92.9494C82.0694 93.0663 82.1512 93.1843 82.2315 93.3033C82.312 93.4222 82.3909 93.5421 82.4682 93.6631C82.5456 93.784 82.6214 93.906 82.6956 94.0289C82.7699 94.1517 82.8427 94.2754 82.9139 94.4002C82.9852 94.5248 83.0548 94.6503 83.1229 94.7767C83.191 94.9032 83.2575 95.0305 83.3223 95.1586C83.3872 95.2867 83.4505 95.4156 83.5122 95.5451C83.5739 95.6748 83.6339 95.8053 83.6923 95.9365C83.7507 96.0676 83.8075 96.1995 83.8626 96.332C83.9177 96.4646 83.9711 96.5978 84.0229 96.7318C84.0748 96.8657 84.1248 97.0003 84.1731 97.1355C84.2216 97.2707 84.2683 97.4064 84.3134 97.5428C84.3584 97.6791 84.4017 97.8159 84.4432 97.9533C84.4849 98.0908 84.5248 98.2288 84.563 98.3672C84.601 98.5056 84.6374 98.6445 84.6722 98.7838C84.7068 98.9231 84.7397 99.0628 84.771 99.2029C84.8021 99.3432 84.8315 99.4837 84.8591 99.6246C84.8868 99.7655 84.9127 99.9067 84.9368 100.048C84.961 100.19 84.9834 100.332 85.004 100.474C85.0246 100.616 85.0434 100.758 85.0604 100.901C85.0774 101.043 85.0926 101.186 85.1061 101.329C85.1195 101.472 85.1312 101.615 85.1411 101.758C85.151 101.901 85.1591 102.045 85.1653 102.188C85.1712 102.333 85.1753 102.478 85.1776 102.623C85.18 102.768 85.1805 102.914 85.1794 103.059C85.1781 103.204 85.1751 103.349 85.1704 103.494C85.1657 103.639 85.1593 103.784 85.1511 103.929C85.1429 104.074 85.1329 104.218 85.1212 104.363C85.1095 104.508 85.096 104.652 85.0807 104.796C85.0655 104.941 85.0485 105.085 85.0298 105.229C85.011 105.373 84.9905 105.516 84.9682 105.66C84.9461 105.803 84.9222 105.946 84.8964 106.089C84.8707 106.232 84.8433 106.374 84.8141 106.516C84.7851 106.659 84.7542 106.8 84.7216 106.942C84.689 107.083 84.6548 107.224 84.6188 107.365C84.5828 107.505 84.5451 107.645 84.5057 107.785C84.4663 107.925 84.4252 108.064 84.3825 108.203C84.3397 108.341 84.2952 108.479 84.2491 108.617C84.203 108.754 84.1552 108.891 84.1058 109.028C84.0563 109.164 84.0052 109.3 83.9524 109.435C83.8997 109.571 83.8453 109.705 83.7893 109.839C83.7334 109.973 83.6757 110.106 83.6165 110.238C83.5572 110.371 83.4964 110.503 83.4341 110.634C83.3717 110.765 83.3077 110.895 83.2421 111.024C83.1765 111.154 83.1093 111.282 83.0407 111.41C82.972 111.538 82.9017 111.665 82.83 111.791C82.7581 111.917 82.6848 112.042 82.61 112.167C82.5352 112.291 82.4589 112.415 82.3811 112.537C82.3033 112.659 82.224 112.781 82.1432 112.902C82.0625 113.022 81.9803 113.142 81.8966 113.26C81.813 113.379 81.7279 113.496 81.6413 113.613C81.5548 113.729 81.4669 113.845 81.3776 113.959C81.2883 114.073 81.1976 114.187 81.1055 114.299C81.0135 114.411 80.9201 114.522 80.8255 114.632C80.7307 114.742 80.6346 114.851 80.5372 114.958C77.4401 118.348 73.5347 119.777 69.0243 119.982C64.7313 119.9 61.0425 118.497 57.7095 115.788C54.3694 113.072 52.163 109.203 51.7395 104.906C51.3331 100.78 52.9497 96.2144 55.5931 93.0566C58.8411 89.1764 62.9352 86.7174 68.022 86.2701Z" fill="#4B68CB"/>
<path d="M68.4262 93.9734C69.3139 93.8691 70.1805 93.9375 71.0477 94.1478C73.2741 94.6883 75.285 96.0703 76.4762 98.0408C76.5477 98.1592 76.6161 98.2792 76.6815 98.4008C76.747 98.5225 76.8094 98.6458 76.8686 98.7707C76.9279 98.8956 76.984 99.0219 77.037 99.1496C77.0898 99.2773 77.1395 99.4062 77.186 99.5363C77.2324 99.6665 77.2755 99.7978 77.3153 99.9301C77.3551 100.062 77.3917 100.196 77.4249 100.33C77.4579 100.464 77.4877 100.599 77.5141 100.735C77.5406 100.87 77.5635 101.007 77.5831 101.143C77.6026 101.28 77.6187 101.417 77.6313 101.555C77.6439 101.693 77.6531 101.831 77.6589 101.969C77.6646 102.107 77.6668 102.245 77.6655 102.383C77.6643 102.521 77.6596 102.659 77.6514 102.797C77.6434 102.935 77.6318 103.073 77.6167 103.211C77.6016 103.348 77.5831 103.485 77.5612 103.621C77.5392 103.758 77.5139 103.894 77.4852 104.029C77.4564 104.164 77.4243 104.298 77.3887 104.432C76.729 106.97 75.0526 108.611 72.8477 109.897L71.1055 105.323C71.4809 105.07 71.863 104.816 72.2208 104.539C73.0294 103.911 73.6999 103.007 73.7893 101.961C73.8598 101.134 73.5631 100.332 73.0163 99.716C71.9889 98.5584 70.4846 98.1959 69.009 98.0849C68.4907 98.083 67.9756 98.123 67.4637 98.2049C66.2106 98.4162 64.8651 98.9812 64.1409 100.073C64.087 100.154 64.0372 100.237 63.9915 100.323C63.9458 100.408 63.9045 100.496 63.8676 100.586C63.8307 100.676 63.7982 100.767 63.7704 100.86C63.7426 100.953 63.7195 101.047 63.701 101.143C63.6825 101.238 63.6689 101.334 63.66 101.431C63.651 101.527 63.6469 101.624 63.6477 101.721C63.6485 101.818 63.654 101.915 63.6643 102.012C63.6747 102.108 63.6899 102.204 63.7098 102.299C64.0106 103.745 65.2194 104.566 66.36 105.333C66.2284 106.878 65.8637 108.618 65.4282 110.105C64.7346 109.812 64.0756 109.468 63.4561 109.039C61.7229 107.838 60.4335 106.147 60.0807 104.036C59.7321 101.95 60.4313 99.7246 61.6649 98.0385C61.7653 97.9029 61.8689 97.7698 61.9756 97.6392C62.0826 97.5088 62.1926 97.381 62.3057 97.2558C62.4189 97.1307 62.535 97.0084 62.6542 96.889C62.7733 96.7696 62.8953 96.6532 63.0202 96.5396C63.145 96.4262 63.2726 96.3159 63.4028 96.2088C63.533 96.1016 63.6658 95.9977 63.8012 95.8971C63.9366 95.7964 64.0744 95.6991 64.2145 95.6051C64.3546 95.5112 64.4969 95.4208 64.6415 95.334C64.7861 95.247 64.9327 95.1637 65.0813 95.084C65.23 95.0043 65.3805 94.9282 65.5329 94.8558C65.6854 94.7834 65.8394 94.7149 65.9952 94.6502C66.1509 94.5853 66.3081 94.5244 66.4669 94.4674C66.6257 94.4103 66.7858 94.3572 66.9471 94.308C67.1085 94.2588 67.2709 94.2135 67.4344 94.1723C67.598 94.1311 67.7625 94.0939 67.928 94.0607C68.0934 94.0275 68.2594 93.9984 68.4262 93.9734Z" fill="#FEFEFE"/>
<path d="M68.2343 88.5182C69.6271 88.3836 71.1593 88.5613 72.512 88.9055C76.1021 89.8187 79.0671 92.3857 80.9226 95.5392C81.0463 95.7516 81.1646 95.9669 81.2775 96.185C81.3905 96.403 81.498 96.6239 81.6001 96.8475C81.7022 97.0709 81.7988 97.2967 81.8898 97.525C81.9807 97.7532 82.0659 97.9836 82.1454 98.216C82.225 98.4484 82.2988 98.6827 82.3667 98.9187C82.4347 99.1548 82.4968 99.3924 82.5531 99.6316C82.6093 99.8708 82.6596 100.111 82.7038 100.353C82.7482 100.595 82.7866 100.837 82.8191 101.081C82.8514 101.324 82.8777 101.568 82.898 101.813C82.9183 102.058 82.9325 102.303 82.9407 102.549C82.949 102.794 82.951 103.04 82.947 103.286C82.9431 103.531 82.9331 103.777 82.9169 104.022C82.9009 104.267 82.8788 104.512 82.8507 104.756C82.8225 105 82.7883 105.243 82.7482 105.485C82.7079 105.728 82.6618 105.969 82.6097 106.209C82.5576 106.449 82.4996 106.688 82.4357 106.925C81.3716 110.991 78.9738 114.137 75.3601 116.276C74.7161 114.962 74.322 113.499 73.7351 112.148C75.3447 111.383 77.1615 109.616 78.1663 108.152C79.7993 105.771 80.2611 102.791 79.7316 99.9803C79.23 97.3193 77.4419 94.9974 75.2271 93.4937C72.778 91.8308 69.9958 91.391 67.1138 91.931C66.6648 92.0301 66.2163 92.1707 65.7835 92.3248C65.5853 92.3933 65.389 92.4667 65.1945 92.5451C64.9999 92.6235 64.8075 92.7067 64.6171 92.7947C64.4267 92.8826 64.2387 92.9753 64.0529 93.0726C63.8672 93.17 63.684 93.272 63.5034 93.3785C63.3227 93.485 63.1448 93.596 62.9698 93.7115C62.7947 93.8269 62.6226 93.9466 62.4534 94.0707C62.2843 94.1946 62.1184 94.3228 61.9558 94.4551C61.793 94.5875 61.6337 94.7238 61.4779 94.8641C61.322 95.0043 61.1697 95.1484 61.021 95.2963C60.8723 95.4442 60.7274 95.5957 60.5863 95.7508C60.4451 95.906 60.3079 96.0646 60.1747 96.2265C60.0415 96.3885 59.9125 96.5538 59.7876 96.7223C59.6626 96.8906 59.542 97.062 59.4257 97.2365C59.3093 97.411 59.1973 97.5883 59.0898 97.7683C58.9823 97.9484 58.8794 98.131 58.781 98.3162C58.6827 98.5015 58.589 98.6891 58.4999 98.8789C57.4661 101.142 57.3105 103.881 58.2054 106.216C59.4083 109.356 62.04 111.044 64.9587 112.37L64.0447 116.908C62.2187 116.251 60.6425 115.326 59.1587 114.073C56.2265 111.599 54.2361 108.246 53.9327 104.375C53.6337 100.562 55.3806 96.7877 57.8308 93.9627C60.6116 90.7566 63.9632 88.8299 68.2343 88.5182Z" fill="#FEFEFE"/>
</g>
<defs>
<clipPath id="clip0_1165_1674">
<rect width="200" height="200" fill="white"/>
</clipPath>
</defs>
</svg>
