<svg width="24" height="24" viewBox="0 0 24 24" fill="none" xmlns="http://www.w3.org/2000/svg">
<path d="M8.487 14.8871C8.877 14.8871 9.193 15.2011 9.193 15.5871C9.19261 15.6794 9.17403 15.7708 9.13834 15.8559C9.10265 15.941 9.05054 16.0183 8.98498 16.0833C8.91942 16.1483 8.8417 16.1998 8.75626 16.2347C8.67081 16.2697 8.57932 16.2875 8.487 16.2871H5.632C5.5396 16.2876 5.448 16.2699 5.36244 16.235C5.27688 16.2001 5.19904 16.1487 5.13338 16.0837C5.06771 16.0187 5.01551 15.9413 4.97975 15.8561C4.944 15.7709 4.92539 15.6795 4.925 15.5871C4.925 15.2011 5.242 14.8871 5.632 14.8871H8.487ZM9.177 12.2941C9.567 12.2941 9.883 12.6091 9.883 12.9941C9.88261 13.0865 9.864 13.1779 9.82825 13.2631C9.79249 13.3483 9.74029 13.4257 9.67462 13.4907C9.60896 13.5557 9.53112 13.6071 9.44556 13.642C9.36 13.6769 9.2684 13.6946 9.176 13.6941H5.648C5.55568 13.6945 5.46419 13.6767 5.37874 13.6417C5.2933 13.6068 5.21558 13.5553 5.15002 13.4903C5.08447 13.4253 5.03235 13.348 4.99666 13.2629C4.96097 13.1778 4.94239 13.0864 4.942 12.9941C4.942 12.6081 5.258 12.2941 5.648 12.2941H9.177ZM13.041 8.8341C13.0439 8.27501 13.2686 7.73993 13.6657 7.34638C14.0628 6.95283 14.5999 6.73297 15.159 6.7351C15.7183 6.73297 16.2555 6.95296 16.6526 7.34673C17.0498 7.7405 17.2744 8.27584 17.277 8.8351C17.2738 9.39447 17.0492 9.9298 16.6522 10.3239C16.2553 10.7181 15.7184 10.9389 15.159 10.9381C14.5995 10.9386 14.0626 10.7176 13.6657 10.3233C13.2688 9.929 13.0442 9.39356 13.041 8.8341ZM19.3 15.3931C19.4 16.0121 18.922 16.5731 18.295 16.5711H12.023C11.8757 16.5714 11.7301 16.5396 11.5963 16.4781C11.4625 16.4165 11.3437 16.3266 11.2481 16.2145C11.1525 16.1025 11.0824 15.971 11.0427 15.8291C11.0029 15.6873 10.9945 15.5385 11.018 15.3931C11.333 13.4511 12.409 11.8841 13.814 11.2631C14.2254 11.4916 14.6883 11.6116 15.159 11.6116C15.6297 11.6116 16.0926 11.4916 16.504 11.2631C17.909 11.8841 18.986 13.4531 19.3 15.3931ZM10.588 11.1031C2.208 11.1031 10.441 11.1011 5.647 11.1011C5.5546 11.1016 5.463 11.0839 5.37744 11.049C5.29188 11.0141 5.21404 10.9627 5.14838 10.8977C5.08271 10.8327 5.03051 10.7553 4.99475 10.6701C4.959 10.5849 4.94039 10.4935 4.94 10.4011C4.94 10.0151 5.257 9.7011 5.647 9.7011L10.588 9.7021C10.978 9.7021 11.295 10.0161 11.294 10.4031C11.294 10.4955 11.2757 10.587 11.2401 10.6724C11.2046 10.7577 11.1525 10.8351 11.0869 10.9002C11.0212 10.9653 10.9433 11.0167 10.8577 11.0515C10.7721 11.0864 10.6804 11.1039 10.588 11.1031ZM5.648 8.5091C5.55549 8.51002 5.46371 8.4926 5.37797 8.45784C5.29223 8.42307 5.21424 8.37166 5.14849 8.30656C5.08275 8.24147 5.03056 8.16399 4.99495 8.0786C4.95933 7.99322 4.941 7.90162 4.941 7.8091C4.941 7.4231 5.258 7.1091 5.648 7.1091H10.588C10.977 7.1091 11.293 7.4221 11.293 7.8091C11.2919 7.99537 11.217 8.17361 11.0846 8.30467C10.9523 8.43573 10.7733 8.5089 10.587 8.5081L5.648 8.5091ZM13.457 18.6261C13.631 18.6261 13.798 18.5574 13.9216 18.4349C14.0452 18.3124 14.1154 18.1461 14.117 17.9721H21.177V5.3721H2.824V17.9711H9.883C9.883 18.3321 10.178 18.6251 10.543 18.6251L13.457 18.6261ZM24 17.9721V18.9291C24 19.5341 23.504 20.0251 22.894 20.0251H1.106C0.496 20.0251 0 19.5351 0 18.9291V17.9721H1.413V5.3571C1.413 4.5941 2.036 3.9751 2.807 3.9751H21.194C21.964 3.9751 22.588 4.5941 22.588 5.3571V17.9721H24Z" fill="#777D8D"/>
</svg>
