<svg width="200" height="200" viewBox="0 0 200 200" fill="none" xmlns="http://www.w3.org/2000/svg">
<g clip-path="url(#clip0_1170_814)">
<path d="M97.5201 35.1981C97.5266 35.1973 97.533 35.1963 97.5395 35.1959C107.566 34.6158 116.484 37.0609 125.474 41.3248C131.035 43.9627 136.22 47.1596 140.827 51.252C141.215 51.603 141.599 51.9587 141.978 52.319C142.357 52.6794 142.732 53.0443 143.102 53.4137C143.472 53.7832 143.838 54.1571 144.199 54.5354C144.561 54.9137 144.917 55.2964 145.269 55.6834C145.621 56.0704 145.968 56.4616 146.311 56.857C146.653 57.2525 146.991 57.652 147.324 58.0557C147.657 58.4593 147.984 58.8669 148.307 59.2785C148.63 59.6901 148.948 60.1055 149.261 60.5248C149.573 60.9441 149.881 61.3671 150.184 61.794C150.486 62.2208 150.783 62.6512 151.075 63.0852C151.367 63.5191 151.654 63.9566 151.936 64.3977C152.217 64.8386 152.493 65.2828 152.763 65.7305C153.034 66.1783 153.299 66.6292 153.559 67.0832C153.819 67.5374 154.073 67.9946 154.321 68.4549C154.57 68.9152 154.813 69.3784 155.05 69.8445C155.287 70.3107 155.519 70.7797 155.745 71.2516C155.971 71.7233 156.191 72.1978 156.405 72.675C156.62 73.1522 156.828 73.6319 157.031 74.1141C157.234 74.5964 157.431 75.081 157.622 75.568C157.813 76.055 157.998 76.5442 158.177 77.0358C158.356 77.5272 158.529 78.0207 158.696 78.5164C158.863 79.0121 159.024 79.5098 159.179 80.0096C159.334 80.5092 159.483 81.0106 159.626 81.5137C159.769 82.0169 159.906 82.5219 160.036 83.0285C160.167 83.535 160.291 84.0431 160.409 84.5527C160.527 85.0623 160.639 85.5732 160.745 86.0856C160.851 86.5978 160.951 87.1113 161.044 87.626C161.137 88.1407 161.224 88.6565 161.305 89.1733C161.386 89.6902 161.461 90.208 161.529 90.7266C161.597 91.2452 161.659 91.7646 161.715 92.2848C161.77 92.8048 161.82 93.3255 161.863 93.8469C161.905 94.3682 161.942 94.89 161.972 95.4123C162.81 110.029 159.161 124.871 150.79 136.975C149.119 139.391 147.183 141.682 145.219 143.863C138.296 151.55 128.72 158.272 118.916 161.646C113.804 163.406 108.233 164.395 102.839 164.661C102.729 164.672 102.62 164.681 102.51 164.687C102.033 164.71 101.555 164.728 101.077 164.74C100.599 164.753 100.121 164.759 99.643 164.76C99.1648 164.76 98.6868 164.755 98.209 164.744C97.731 164.733 97.2532 164.716 96.7756 164.694C96.2981 164.671 95.8209 164.643 95.3439 164.609C94.8671 164.575 94.3908 164.535 93.9148 164.489C93.4389 164.444 92.9637 164.392 92.4891 164.335C92.0143 164.278 91.5404 164.215 91.0674 164.146C90.5942 164.078 90.1219 164.004 89.6506 163.923C89.1792 163.843 88.709 163.758 88.2398 163.666C87.7706 163.575 87.3025 163.478 86.8355 163.375C86.3686 163.272 85.9031 163.163 85.4389 163.049C84.9745 162.935 84.5117 162.816 84.0502 162.69C83.5889 162.565 83.1291 162.434 82.6709 162.298C82.2127 162.161 81.7562 162.019 81.3014 161.872C80.8467 161.725 80.3938 161.572 79.9428 161.413C79.4916 161.255 79.0425 161.091 78.5955 160.922C78.1484 160.752 77.7034 160.577 77.2606 160.397C76.8177 160.217 76.3771 160.032 75.9387 159.841C75.5003 159.65 75.0643 159.454 74.6307 159.253C74.1971 159.051 73.766 158.845 73.3373 158.633C72.9087 158.421 72.4827 158.204 72.0594 157.982C71.6361 157.76 71.2154 157.533 70.7975 157.301C70.3796 157.068 69.9647 156.831 69.5525 156.589C69.1404 156.346 68.7313 156.099 68.3252 155.847C67.9191 155.595 67.5161 155.337 67.1162 155.075C66.7163 154.813 66.3197 154.547 65.9262 154.275C65.5328 154.003 65.1428 153.727 64.7561 153.446C64.3693 153.165 63.9861 152.879 63.6063 152.589C63.2264 152.299 62.8502 152.004 62.4775 151.704C62.1048 151.405 61.7357 151.101 61.3705 150.792C61.0051 150.484 60.6436 150.171 60.2859 149.854C59.8792 149.492 59.4769 149.125 59.0791 148.753C58.6813 148.381 58.2882 148.005 57.8996 147.623C57.5111 147.242 57.1273 146.856 56.7482 146.465C56.3691 146.074 55.9949 145.679 55.6256 145.279C55.2562 144.879 54.8917 144.474 54.5322 144.065C54.1727 143.656 53.8183 143.243 53.4689 142.825C53.1196 142.408 52.7755 141.986 52.4365 141.56C52.0976 141.134 51.7639 140.704 51.4354 140.269C51.107 139.835 50.7839 139.397 50.4662 138.955C50.1485 138.512 49.8363 138.066 49.5295 137.617C49.2227 137.167 48.9215 136.713 48.6258 136.256C48.3302 135.799 48.0402 135.338 47.7559 134.874C47.4715 134.409 47.1928 133.942 46.9199 133.47C46.647 132.999 46.38 132.525 46.1188 132.047C45.8574 131.569 45.6021 131.088 45.3527 130.605C45.1033 130.121 44.8597 129.634 44.6221 129.144C44.3846 128.654 44.1531 128.161 43.9277 127.665C43.7022 127.17 43.4829 126.671 43.2697 126.171C43.0564 125.669 42.8494 125.166 42.6484 124.66C42.4475 124.154 42.2529 123.645 42.0645 123.135C41.876 122.624 41.6939 122.111 41.5182 121.595C41.3423 121.08 41.1727 120.563 41.0096 120.043C40.8464 119.524 40.6897 119.002 40.5393 118.479C40.3889 117.956 40.2449 117.431 40.1074 116.904C39.9699 116.377 39.8389 115.848 39.7145 115.318C39.5898 114.788 39.4718 114.257 39.3604 113.724C39.2488 113.191 39.1438 112.657 39.0453 112.121C38.9469 111.586 38.8551 111.049 38.7699 110.511C38.6846 109.974 38.6059 109.435 38.5338 108.895C38.4618 108.356 38.3964 107.815 38.3375 107.274C38.2788 106.732 38.2266 106.19 38.1811 105.648C38.1355 105.105 38.0966 104.562 38.0645 104.019C38.029 103.469 38.0005 102.919 37.9787 102.369C37.957 101.818 37.9421 101.268 37.9342 100.717C37.9261 100.166 37.9249 99.6154 37.9305 99.0647C37.9362 98.5139 37.9488 97.9632 37.9682 97.4127C37.9874 96.8622 38.0136 96.312 38.0467 95.7621C38.0798 95.2124 38.1197 94.6631 38.1664 94.1143C38.2132 93.5654 38.2667 93.0173 38.327 92.4697C38.3874 91.9222 38.4546 91.3755 38.5285 90.8297C38.6023 90.2839 38.683 89.739 38.7705 89.1951C38.858 88.6514 38.9523 88.1087 39.0533 87.5672C39.1544 87.0258 39.2621 86.4857 39.3766 85.9469C39.491 85.4081 39.6121 84.8708 39.7398 84.335C39.8677 83.7992 40.0022 83.265 40.1432 82.7326C40.2843 82.2001 40.432 81.6694 40.5861 81.1406C40.7404 80.612 40.9013 80.0852 41.0688 79.5604C41.2361 79.0356 41.41 78.513 41.5904 77.9926C41.7708 77.4721 41.9576 76.954 42.1508 76.4383C42.3441 75.9224 42.5438 75.4091 42.7498 74.8983C42.9559 74.3874 43.1683 73.8792 43.3869 73.3736C43.6057 72.8682 43.8306 72.3654 44.0617 71.8654C44.293 71.3654 44.5303 70.8684 44.7738 70.3744C45.0175 69.8804 45.2671 69.3895 45.5229 68.9016C45.7786 68.4137 46.0404 67.9291 46.3082 67.4479C46.576 66.9665 46.8498 66.4886 47.1295 66.0141C47.4092 65.5396 47.6947 65.0686 47.9861 64.6012C48.2775 64.1337 48.5747 63.67 48.8777 63.21C49.1807 62.7499 49.4894 62.2938 49.8037 61.8414C50.1179 61.3891 50.4378 60.9407 50.7633 60.4963C51.0887 60.0519 51.4196 59.6116 51.7561 59.1754C52.0925 58.7393 52.4343 58.3074 52.7814 57.8797C53.1286 57.4521 53.481 57.0288 53.8387 56.61C54.1964 56.1911 54.5592 55.7767 54.9272 55.3668C55.733 54.4792 56.5635 53.6153 57.4188 52.7752C58.274 51.9351 59.1525 51.1201 60.0543 50.3303C60.9561 49.5403 61.8798 48.7768 62.8252 48.0399C63.7706 47.3027 64.7364 46.5932 65.7225 45.9113C75.4541 39.1762 85.742 35.9018 97.5201 35.1981Z" fill="#4B68CB"/>
<path d="M100.29 36.5723C104.202 36.4158 108.302 36.9533 112.134 37.7172C119.778 39.2414 125.411 41.2635 131.965 45.5193C134.872 47.407 137.485 49.3836 140.035 51.7342C152.694 63.4041 159.7 79.3139 160.391 96.4629C161.076 113.436 154.474 131.236 142.953 143.718C140.522 146.352 137.931 148.604 135.125 150.822C124.112 159.525 114.199 161.939 100.328 162.485L100.187 162.488C84.4559 162.864 71.3068 158.177 59.85 147.241C57.1805 144.693 54.9127 141.918 52.748 138.94C52.5003 138.605 52.2558 138.268 52.0146 137.928C51.7734 137.589 51.5354 137.247 51.3008 136.903C51.0661 136.559 50.8348 136.213 50.6068 135.865C50.3788 135.516 50.1542 135.166 49.933 134.813C49.7118 134.46 49.4939 134.105 49.2795 133.748C49.065 133.391 48.8541 133.032 48.6467 132.671C48.4391 132.31 48.2351 131.947 48.0346 131.582C47.834 131.217 47.6371 130.85 47.4437 130.481C47.2503 130.113 47.0603 129.742 46.874 129.37C46.6877 128.997 46.5049 128.623 46.3258 128.247C46.1467 127.871 45.9713 127.494 45.7994 127.114C45.6275 126.735 45.4594 126.354 45.2949 125.972C45.1305 125.589 44.9697 125.205 44.8125 124.819C44.6553 124.434 44.5019 124.047 44.3523 123.658C44.2026 123.269 44.0567 122.879 43.9146 122.488C43.7725 122.097 43.634 121.704 43.4994 121.31C43.3649 120.916 43.2341 120.52 43.107 120.124C42.9801 119.727 42.857 119.329 42.7377 118.93C42.6183 118.532 42.5028 118.131 42.3912 117.73C42.2796 117.329 42.1719 116.927 42.068 116.524C41.9641 116.12 41.8641 115.716 41.768 115.311C41.6719 114.906 41.5797 114.5 41.4914 114.093C41.4031 113.686 41.3187 113.278 41.2383 112.87C41.1578 112.461 41.0813 112.052 41.0088 111.642C40.9363 111.232 40.8676 110.821 40.8029 110.41C40.7383 109.998 40.6777 109.586 40.6209 109.174C40.5642 108.761 40.5115 108.348 40.4627 107.935C40.414 107.521 40.3692 107.107 40.3283 106.693C40.2876 106.278 40.2508 105.863 40.218 105.448C40.1851 105.033 40.1563 104.618 40.1314 104.202C40.1067 103.786 40.0859 103.371 40.0691 102.954C40.0523 102.538 40.0395 102.122 40.0307 101.706C39.6432 84.7615 45.6297 67.5238 57.4328 55.2213C69.0631 43.0984 83.5316 36.9131 100.29 36.5723Z" fill="#FEFEFE"/>
<path d="M97.9479 38.6154C101.65 38.3351 105.554 38.7127 109.213 39.2726C109.681 39.3462 110.147 39.4255 110.613 39.5105C111.079 39.5956 111.543 39.6863 112.007 39.7826C112.47 39.8791 112.932 39.9812 113.393 40.0891C113.854 40.1967 114.314 40.3101 114.772 40.4293C115.23 40.5483 115.687 40.673 116.142 40.8033C116.597 40.9335 117.05 41.0693 117.502 41.2107C117.954 41.3521 118.404 41.4991 118.852 41.6516C119.3 41.804 119.746 41.962 120.19 42.1254C120.635 42.2888 121.077 42.4577 121.517 42.632C121.957 42.8062 122.395 42.9859 122.831 43.1709C123.266 43.3559 123.7 43.5463 124.131 43.742C124.562 43.9377 124.99 44.1387 125.416 44.3449C125.842 44.551 126.266 44.7624 126.687 44.9791C127.108 45.1956 127.526 45.4173 127.941 45.6441C128.357 45.8711 128.769 46.103 129.179 46.34C129.589 46.577 129.996 46.819 130.399 47.066C130.803 47.313 131.204 47.5649 131.602 47.8217C131.999 48.0786 132.394 48.3403 132.785 48.6068C133.176 48.8732 133.564 49.1445 133.948 49.4205C134.333 49.6965 134.714 49.9773 135.092 50.2627C135.469 50.5481 135.843 50.8381 136.214 51.1328C136.584 51.4273 136.951 51.7264 137.314 52.0301C137.678 52.3336 138.037 52.6416 138.393 52.9541C138.748 53.2665 139.1 53.5832 139.448 53.9043C139.796 54.2254 140.139 54.5506 140.479 54.8801C140.819 55.2096 141.155 55.5433 141.487 55.881C141.818 56.2188 142.146 56.5605 142.469 56.9062C142.792 57.2521 143.111 57.6018 143.426 57.9555C143.741 58.3091 144.051 58.6665 144.357 59.0277C144.663 59.3889 144.964 59.7538 145.261 60.1224C145.558 60.4912 145.85 60.8635 146.138 61.2393C146.426 61.615 146.709 61.9943 146.987 62.3771C147.441 62.9934 147.88 63.6196 148.306 64.2557C148.731 64.8917 149.142 65.537 149.538 66.1916C149.934 66.846 150.316 67.5091 150.682 68.1808C151.049 68.8526 151.4 69.5322 151.736 70.2197C152.072 70.9072 152.392 71.6019 152.696 72.3039C153.001 73.0057 153.29 73.7141 153.562 74.4291C153.835 75.1439 154.092 75.8646 154.332 76.591C154.572 77.3176 154.796 78.0491 155.004 78.7855C155.314 79.8892 155.794 81.2144 155.617 82.366C155.442 82.568 155.44 82.616 155.182 82.6588C154.342 82.158 153.913 79.3422 153.66 78.3721C153.365 77.2412 152.901 76.1267 152.493 75.0324C148.39 64.04 139.463 53.6699 129.338 47.7648C128.943 47.5308 128.545 47.3019 128.143 47.0781C127.742 46.8542 127.338 46.6353 126.932 46.4215C126.525 46.2077 126.116 45.999 125.704 45.7955C125.292 45.592 124.878 45.3937 124.461 45.2006C124.044 45.0075 123.625 44.8197 123.204 44.6371C122.782 44.4544 122.358 44.2771 121.932 44.1053C121.506 43.9333 121.078 43.7667 120.648 43.6055C120.218 43.4443 119.786 43.2885 119.352 43.1383C118.917 42.9879 118.482 42.843 118.044 42.7035C117.606 42.5642 117.167 42.4303 116.726 42.3019C116.284 42.1736 115.842 42.0507 115.398 41.9334C114.954 41.8162 114.508 41.7045 114.061 41.5984C113.614 41.4923 113.166 41.3918 112.716 41.2971C112.267 41.2023 111.816 41.1131 111.364 41.0297C110.913 40.9461 110.46 40.8682 110.006 40.7961C109.553 40.7239 109.098 40.6575 108.643 40.5969C108.187 40.5362 107.731 40.4812 107.275 40.4318C106.818 40.3826 106.361 40.3391 105.903 40.3012C105.445 40.2634 104.987 40.2314 104.528 40.2051C104.069 40.1788 103.61 40.1583 103.151 40.1435C102.692 40.1287 102.233 40.1196 101.774 40.1164C101.314 40.1133 100.855 40.1158 100.396 40.124C99.9363 40.1323 99.4771 40.1464 99.0182 40.1662C98.5592 40.186 98.1005 40.2116 97.6422 40.243C97.1839 40.2743 96.726 40.3114 96.2686 40.3543C95.8113 40.3971 95.3545 40.4457 94.8982 40.5C94.4421 40.5543 93.9867 40.6143 93.532 40.6801C93.0774 40.7457 92.6236 40.8171 92.1707 40.8943C91.7178 40.9714 91.266 41.0542 90.8152 41.1426C90.3645 41.2311 89.9148 41.3252 89.4664 41.425C89.018 41.5247 88.5709 41.6301 88.1252 41.7412C87.6794 41.8521 87.235 41.9687 86.7922 42.0908C86.327 42.2158 85.8634 42.3465 85.4014 42.483C84.9393 42.6193 84.479 42.7614 84.0205 42.9092C83.5619 43.0568 83.1052 43.2101 82.6504 43.3691C82.1956 43.528 81.7428 43.6924 81.2922 43.8625C80.8414 44.0325 80.3928 44.2081 79.9463 44.3891C79.4999 44.57 79.0558 44.7566 78.6139 44.9486C78.1721 45.1405 77.7326 45.3379 77.2955 45.5406C76.8585 45.7433 76.4241 45.9514 75.9922 46.1646C75.5603 46.3781 75.1311 46.5967 74.7045 46.8207C74.2779 47.0447 73.8542 47.2738 73.4332 47.508C73.0124 47.7424 72.5944 47.9818 72.1793 48.2264C71.7643 48.471 71.3524 48.7207 70.9434 48.9754C70.5345 49.2301 70.1288 49.4897 69.7262 49.7543C69.3237 50.019 68.9245 50.2886 68.5285 50.5631C68.1326 50.8376 67.74 51.1168 67.351 51.4008C66.9619 51.6849 66.5764 51.9738 66.1945 52.2674C65.8125 52.5609 65.4342 52.859 65.0596 53.1619C64.6848 53.4648 64.3139 53.7722 63.9469 54.0842C63.5797 54.396 63.2165 54.7124 62.8572 55.0334C62.4979 55.3542 62.1425 55.6794 61.791 56.009C61.4397 56.3385 61.0925 56.6724 60.7492 57.0105C60.4061 57.3486 60.0672 57.6908 59.7324 58.0373C59.3977 58.3836 59.0672 58.7341 58.741 59.0887C58.4149 59.4432 58.093 59.8017 57.7756 60.1642C57.4583 60.5266 57.1454 60.8929 56.8369 61.2631C56.5286 61.6331 56.2248 62.007 55.9256 62.3846C55.6264 62.7622 55.3318 63.1434 55.042 63.5281C54.7522 63.9129 54.4671 64.3012 54.1867 64.693C53.9065 65.0848 53.6311 65.4799 53.3604 65.8785C53.0898 66.2771 52.8241 66.6789 52.5633 67.084C52.3026 67.4891 52.0469 67.8973 51.7961 68.3086C51.5455 68.7199 51.2998 69.1343 51.0592 69.5518C49.9268 71.5113 48.9865 73.5871 48.1149 75.6732C42.9463 88.0424 42.4377 101.555 45.9191 114.446C47.4656 120.172 49.8453 125.436 52.8393 130.538C57.4039 138.317 63.2865 145.379 71.2055 149.919C79.6123 154.738 92.4023 157.053 102.031 156.75C103.35 156.7 104.666 156.613 105.979 156.488C107.293 156.364 108.602 156.202 109.906 156.003C111.21 155.804 112.508 155.568 113.798 155.295C115.089 155.022 116.371 154.713 117.645 154.367C120.835 153.471 124.08 152.348 127.003 150.769C131.057 148.581 134.696 145.603 137.929 142.341C147.532 132.653 153.294 120.351 156.001 107.071C156.354 105.312 156.625 103.541 156.813 101.758C156.933 100.594 156.976 99.3932 157.152 98.2398C157.181 98.0531 157.23 97.9533 157.362 97.8115C157.598 97.7586 157.591 97.7383 157.795 97.8635C157.919 98.1289 157.933 98.3486 157.953 98.6392C158.128 101.258 157.936 103.937 157.663 106.544C156.369 118.859 151.297 131.286 143.081 140.634C141.586 142.335 140.031 144.032 138.346 145.548C137.478 146.329 136.517 147.037 135.595 147.755C127.045 154.408 117.496 157.349 106.778 158.035C102.373 158.316 97.841 158.134 93.4428 157.789C87.109 157.291 80.6348 156.424 74.8178 153.715C73.385 153.048 72.0215 152.235 70.6627 151.431C69.2669 150.609 67.9124 149.723 66.5992 148.774C65.2862 147.826 64.0203 146.818 62.8016 145.75C49.9846 134.463 42.7699 119.19 41.6807 102.185C41.1457 93.8299 42.0588 84.9434 45.226 77.1394C46.1074 74.9674 47.2264 72.9096 48.3393 70.85C48.9363 69.7333 49.5655 68.6351 50.227 67.5553C50.8883 66.4756 51.5807 65.4161 52.3043 64.3767C53.0277 63.3376 53.781 62.3204 54.5641 61.3254C55.3471 60.3303 56.1587 59.359 56.9986 58.4115C57.2652 58.1084 57.5348 57.8081 57.8076 57.5105C58.0804 57.213 58.3563 56.9184 58.6352 56.6266C58.9139 56.3348 59.1957 56.0458 59.4805 55.7598C59.7654 55.4738 60.0531 55.1907 60.3438 54.9105C60.6344 54.6305 60.9279 54.3534 61.2242 54.0795C61.5206 53.8054 61.8197 53.5344 62.1215 53.2666C62.4234 52.9986 62.7281 52.7338 63.0356 52.4723C63.343 52.2107 63.653 51.9523 63.9656 51.6971C64.2784 51.4419 64.5937 51.1899 64.9115 50.9412C65.2295 50.6925 65.5499 50.4471 65.8729 50.2051C66.1959 49.963 66.5214 49.7243 66.8492 49.4889C67.1771 49.2534 67.5074 49.0214 67.84 48.7928C68.1727 48.5642 68.5077 48.3391 68.8449 48.1174C69.1823 47.8958 69.5219 47.6776 69.8637 47.4629C70.2055 47.2483 70.5495 47.0372 70.8957 46.8295C71.2418 46.6219 71.59 46.418 71.9404 46.2176C72.2908 46.0172 72.6432 45.8204 72.9977 45.6271C73.3521 45.434 73.7084 45.2446 74.0666 45.0588C74.4249 44.873 74.7852 44.6909 75.1473 44.5125C75.5094 44.3341 75.8732 44.1595 76.2389 43.9887C76.6046 43.8178 76.9721 43.6507 77.3412 43.4873C77.7104 43.324 78.0811 43.1646 78.4535 43.009C78.8259 42.8532 79.1999 42.7014 79.5754 42.5535C79.9509 42.4056 80.3279 42.2615 80.7065 42.1213C81.085 41.9812 81.4649 41.8449 81.8461 41.7125C82.2275 41.5802 82.6102 41.4518 82.9941 41.3273C83.3781 41.2029 83.7634 41.0823 84.1498 40.9658C84.5363 40.8494 84.9238 40.7369 85.3125 40.6283C85.7013 40.5198 86.0912 40.4154 86.482 40.3148C86.8731 40.2143 87.265 40.1178 87.6578 40.0254C88.0508 39.9331 88.4446 39.8447 88.8393 39.7603C89.2341 39.6761 89.6296 39.5959 90.026 39.5197C92.6531 39.0258 95.2824 38.7828 97.9479 38.6154Z" fill="#4B68CB"/>
<path d="M137.809 58.6852C138.018 58.7262 138.231 58.7701 138.432 58.8418C141.308 59.8692 145.786 64.7668 147.001 67.5471C146.053 69.0131 144.266 69.9512 142.938 71.0485C139 74.3014 134.881 78.1002 132.396 82.6143C130.203 86.5981 128.241 90.7533 126.265 94.8504C122.29 103.226 118.423 111.652 114.666 120.129C112.953 124 111.309 127.909 109.661 131.808C108.823 133.79 106.031 141.069 105.009 142.187C104.864 142.346 104.861 142.306 104.663 142.321C103.221 141.677 100.348 136.618 99.3824 135.075C99.21 135.198 98.9777 135.361 98.7734 135.422C98.5568 135.487 98.3408 135.481 98.1299 135.397C96.7973 134.871 94.5518 133.182 93.2629 132.356C89.5893 130.001 85.8227 127.824 82.0789 125.586C75.2467 121.445 68.3333 117.444 61.3387 113.584C58.8711 112.324 56.4471 110.97 53.9994 109.671C52.2799 108.758 50.4305 107.904 48.7998 106.846C48.4133 106.595 48.073 106.332 47.818 105.943C47.7615 104.818 51.4898 100.455 52.3449 99.3742C53.5495 97.8489 54.7824 96.3468 56.0436 94.868C57.5717 93.0772 59.2969 91.3395 60.3545 89.2172C60.8815 88.1598 61.2852 87.0225 61.725 85.925C62.4741 84.0642 63.213 82.1993 63.9416 80.3303C64.3764 79.211 64.7516 77.8541 65.4127 76.8586C65.5979 76.5795 65.7361 76.5309 66.0566 76.4657C66.6742 76.6405 67.8824 77.9117 68.4434 78.3713C69.9471 79.6033 71.5111 80.7576 72.9943 82.0158C77.5594 85.8887 81.9492 89.9932 86.3502 94.0504C88.9514 96.4483 91.717 98.784 94.1336 101.367C95.16 100.142 96.0465 98.8049 96.9855 97.5131C98.7322 95.0964 100.5 92.6954 102.289 90.31C110.279 79.8239 118.96 70.0619 130.172 62.9369C132.634 61.3721 135.254 60.0865 137.809 58.6852Z" fill="#4B68CB"/>
<path d="M63.7027 84.4402C64.0883 84.8787 64.3082 85.668 64.5252 86.2057C63.7793 86.6166 63.1607 87.208 62.5297 87.7725C62.3426 87.9367 62.1734 88.0553 61.9537 88.1723C62.118 87.3393 63.2767 85.325 63.7027 84.4402Z" fill="#FEFEFE"/>
<path d="M89.7733 99.0822C91.1545 99.9551 92.0113 101.352 93.226 102.396L92.6053 103.282C92.3557 103.642 92.0787 103.967 91.7906 104.296C90.9455 102.668 90.3639 100.815 89.7733 99.0822Z" fill="#FEFEFE"/>
<path d="M66.2002 77.7822C67.9443 78.7432 70.0582 81.0264 71.5672 82.3693C77.2487 87.3988 82.8244 92.543 88.2942 97.802C87.691 99.1465 88.8836 101.016 89.332 102.298C88.608 101.759 87.8951 101.231 87.2414 100.607C86.9385 99.4402 85.5723 95.9822 84.9344 95.0061C84.8049 94.808 84.7232 94.6566 84.4836 94.6045C84.2363 94.9023 84.0908 95.3022 83.9281 95.652C84.1789 96.7996 84.6565 97.9193 85.0627 99.0195C84.393 98.4059 83.5166 98.024 82.9813 97.2687C81.9611 95.8297 80.8256 91.0191 79.632 90.3068C79.3983 90.1674 79.275 90.165 79.018 90.2236L78.9104 90.4145C78.7971 91.7277 79.6992 93.5336 80.1752 94.7514C80.2518 94.9061 80.291 95.0258 80.317 95.1963C79.9695 95.1826 79.3393 94.6908 79.0008 94.501C78.6111 93.1018 76.9729 89.4213 76.2346 88.2037C75.9873 87.7957 75.742 87.4432 75.2641 87.3273C75.0994 87.4596 75.0361 87.5023 74.9719 87.7129C74.5422 89.1217 76.4108 91.9299 77.1354 93.185C76.3668 92.5885 75.5301 92.0822 74.7108 91.5596C73.8957 89.2854 72.8854 87.0414 71.9856 84.7951C71.7637 84.2414 71.4607 83.6238 70.8865 83.3797C70.7635 83.4098 70.6828 83.3893 70.6213 83.5152C70.1096 84.5639 72.1352 89.1508 72.5869 90.2801C72.0098 89.941 71.4471 89.5734 70.8803 89.2172C70.1518 87.358 68.7316 83.6102 67.7191 82.0367C67.5229 81.7314 67.3586 81.4918 66.9934 81.4131C66.8818 81.4945 66.6662 81.6057 66.6162 81.7352C66.3313 82.4746 68.3617 86.9045 68.8127 87.9762C67.9758 87.5078 67.1133 87.0814 66.2606 86.6424C65.5623 85.308 64.9848 83.8832 64.3451 82.5174C64.6606 81.4555 65.6877 78.6395 66.2002 77.7822Z" fill="#FEFEFE"/>
<path d="M129.49 84.381C129.458 84.8674 122.838 98.4144 122.045 100.12C117.937 108.954 114.383 118.068 110.713 127.091C108.746 131.927 106.575 136.69 104.71 141.568C103.697 140.405 102.888 139.135 102.081 137.827C101.353 136.649 100.614 135.115 99.5738 134.196C100.265 131.817 101.329 129.499 102.364 127.252C102.393 127.256 102.421 127.26 102.45 127.263C102.959 127.315 103.319 127.256 103.777 127.02C105.19 126.293 107.621 124.233 108.975 123.22C109.74 122.648 110.626 122.147 111.348 121.535C111.626 121.299 111.837 121.068 111.866 120.692C111.784 120.455 111.689 120.391 111.487 120.249C110.414 120.13 104.413 124.894 102.928 125.726C102.891 125.747 102.854 125.767 102.816 125.787L104.073 122.853C104.247 122.954 104.45 123.09 104.655 123.104C105.5 123.16 111.388 119.223 112.14 118.462C112.332 118.268 112.414 118.238 112.414 117.96C112.299 117.834 112.205 117.721 112.035 117.668C111.035 117.358 105.814 120.949 104.656 121.634C105.144 120.406 105.642 119.182 106.15 117.962L106.342 117.526C106.463 117.246 106.522 117.019 106.802 116.858C107.296 116.897 107.704 116.903 108.166 116.695C109.013 116.313 114.457 113.452 114.688 112.819L114.546 112.664C112.854 112.194 109.087 114.674 107.426 115.451C107.757 114.664 108.139 113.326 108.751 112.746C108.887 112.816 109.098 112.945 109.254 112.961C110.287 113.066 114.564 110.46 115.497 109.7C115.784 109.467 116.036 109.26 116.076 108.88L115.946 108.782C115.562 108.718 115.225 108.74 114.849 108.85C113.553 109.229 110.656 110.831 109.504 111.599C109.746 111.123 110.388 109.579 110.873 109.337C111.159 109.195 111.679 109.263 112.021 109.119C113.423 108.532 117.544 106.703 118.386 105.53C118.534 105.325 118.561 105.21 118.524 104.966C118.496 104.954 118.469 104.937 118.439 104.929C117.299 104.609 112.788 107.199 111.547 107.781C112.071 106.848 112.627 105.946 113.202 105.045C113.231 105.055 113.26 105.065 113.289 105.075C113.331 105.089 113.374 105.101 113.417 105.115C113.851 105.257 114.132 105.144 114.54 104.984C115.725 104.522 120.284 102.551 120.711 101.564C120.66 101.399 120.702 101.392 120.565 101.337C119.298 100.832 115.234 103.151 113.882 103.803C114.396 102.695 115.112 101.681 115.776 100.658C115.961 100.622 116.145 100.58 116.33 100.541C117.533 100.287 120.935 98.8486 121.806 98.0443C122.032 97.8351 122.095 97.6871 122.097 97.3838L121.902 97.218C120.602 96.9596 118.323 98.2744 117.04 98.7949C117.634 97.8349 118.287 96.5224 119.107 95.759C120.131 94.8062 124.446 93.4178 124.988 92.4103C125.065 92.2683 125.013 92.2146 124.974 92.0703C124.871 91.9931 124.849 91.9687 124.717 91.9158C123.841 91.5637 121.415 93.1004 120.602 93.489C121.164 92.616 121.795 91.7652 122.492 90.9953C122.872 90.9037 123.243 90.8008 123.609 90.6586C124.816 90.1892 127.175 88.9512 127.67 87.684C127.745 87.4935 127.757 87.4836 127.664 87.2951C127.631 87.2838 127.598 87.2676 127.564 87.2609C126.678 87.0914 124.677 88.6736 123.919 89.1373C124.631 88.1387 125.972 86.4166 127.012 85.7906C127.797 85.3181 128.859 85.0582 129.49 84.381Z" fill="#FEFEFE"/>
<path d="M106.011 133.302C106.29 133.31 106.465 133.358 106.722 133.454C106.825 133.571 106.925 133.624 106.927 133.788C106.937 134.601 104.536 136.51 103.885 137.094C103.854 137.089 103.822 137.088 103.791 137.081C103.356 136.978 103.102 136.514 102.86 136.174C103.716 134.922 104.616 133.94 106.011 133.302Z" fill="#4B68CB"/>
<path d="M107.798 128.421C107.912 128.409 108.039 128.389 108.155 128.399C108.411 128.421 108.519 128.485 108.693 128.665L108.677 128.917C107.961 129.704 106.883 130.272 106.029 130.921C104.895 131.784 103.847 132.756 102.657 133.546C102.307 133.779 101.957 133.95 101.565 134.104C101.243 134.169 100.967 134.164 100.662 134.044C100.602 133.899 100.579 133.926 100.625 133.796C101.163 132.286 106.132 129.135 107.798 128.421Z" fill="#4B68CB"/>
<path d="M109.159 125.098C109.421 125.061 109.741 125.036 109.972 125.191C110.092 125.271 110.07 125.364 110.093 125.495C109.921 125.921 109.553 126.227 109.198 126.505C108.429 127.107 107.502 127.578 106.675 128.102C105.342 128.945 103.979 129.969 102.54 130.615C102.176 130.573 101.613 130.539 101.365 130.247C101.371 130.22 101.374 130.193 101.383 130.167C101.754 129.185 108.002 125.625 109.159 125.098Z" fill="#4B68CB"/>
<path d="M138.072 60.0492C140.378 60.4217 144.058 65.2422 145.468 67.0912C145.299 67.1745 145.132 67.2606 144.966 67.3494C142.59 68.6 139.105 71.2047 136.946 72.9045C125.972 81.5457 116.597 94.1336 109.982 106.384C107.462 111.05 105.243 115.935 103.091 120.779C101.945 123.329 100.831 125.892 99.7482 128.469C99.1453 129.917 98.5107 131.355 98.0527 132.856C94.3209 130.272 90.4148 127.958 86.5111 125.646C81.4738 122.66 76.3893 119.756 71.2578 116.935C67.9791 115.145 64.6514 113.441 61.3619 111.67C57.5742 109.729 53.8316 107.624 49.9781 105.827C51.2166 103.734 52.9103 101.725 54.4703 99.8595C57.7967 95.881 61.141 92.1209 65.2988 88.9853C67.0109 89.7388 68.6457 90.7793 70.2644 91.7144C75.441 94.7241 80.4553 97.9832 85.3074 101.492C86.657 102.456 90.1057 105.539 91.2646 105.987C91.6988 106.155 92.1684 106.009 92.5322 105.748C93.6492 104.95 96.1486 100.942 97.1199 99.5851C107.901 84.5297 120.577 67.6207 138.072 60.0492Z" fill="#FEFEFE"/>
</g>
<defs>
<clipPath id="clip0_1170_814">
<rect width="200" height="200" fill="white"/>
</clipPath>
</defs>
</svg>
